<?xml version="1.0" encoding="UTF-8"?>
<svg id="Layer_2" data-name="Layer 2" xmlns="http://www.w3.org/2000/svg" viewBox="0 0 227.68 259.15">
  <defs>
    <style>
      .cls-1 {
        fill: #6a6a6a;
      }

      .cls-2 {
        fill: #9d9d9d;
      }

      .cls-3 {
        fill: #fff;
      }

      .cls-4 {
        fill: #989898;
      }

      .cls-5 {
        fill: #717171;
      }

      .cls-6 {
        fill: #222;
      }

      .cls-7 {
        fill: #777;
      }

      .cls-8 {
        fill: #959595;
      }

      .cls-9 {
        fill: #7c7c7c;
      }

      .cls-10 {
        fill: #232323;
      }

      .cls-11 {
        fill: #8e8e8e;
      }

      .cls-12 {
        fill: #6f6f6f;
      }

      .cls-13 {
        fill: #a1a1a1;
      }

      .cls-14 {
        fill: #212121;
      }

      .cls-15 {
        fill: none;
      }

      .cls-16 {
        fill: #ababab;
      }

      .cls-17 {
        fill: #757575;
      }
    </style>
  </defs>
  <g id="Layer_1-2" data-name="Layer 1">
    <path class="cls-3" d="m113.84,259.15c-2.09,0-4.19-.54-6.06-1.62L6.06,198.8c-3.75-2.17-6.06-6.17-6.06-10.5v-117.45c0-4.33,2.31-8.34,6.06-10.5L107.78,1.62c3.75-2.17,8.38-2.17,12.13,0l101.71,58.73c3.75,2.17,6.06,6.17,6.06,10.5v117.45c0,4.33-2.31,8.34-6.06,10.5l-101.71,58.72c-1.88,1.08-3.97,1.62-6.06,1.62ZM24.25,181.3l89.59,51.72,89.59-51.72v-103.45L113.84,26.13,24.25,77.85v103.45Z"/>
    <g>
      <polygon class="cls-13" points="124.7 199.28 138.57 130.87 145.2 134.69 131.33 203.11 124.7 199.28"/>
      <polygon class="cls-11" points="138.57 130.87 151.9 123.18 158.52 127 145.2 134.69 138.57 130.87"/>
      <polygon class="cls-5" points="153.42 182.7 152.94 180.54 158.05 177.59 160.05 186.52 153.42 182.7"/>
      <path class="cls-4" d="m172.39,179.4l-12.34,7.13-2-8.94-5.11,2.95-7.43,4.29-2.08,11.29-12.11,6.99,13.87-68.41,13.32-7.69,13.87,52.4Zm-16.61-11.36l-2.33-11.81-1.67-11.54-.16.09-1.2,9.7-.49,3.96-.85,5.39-.08.47-1.33,8.42,8.11-4.68Z"/>
      <polygon class="cls-17" points="149.15 164.22 149.08 163.83 149.93 158.44 150.42 154.48 153.45 156.23 155.78 168.04 149.15 164.22"/>
      <polygon points="149.08 163.83 149.15 164.22 149 164.3 149.08 163.83"/>
      <polygon class="cls-11" points="149 164.3 149.15 164.22 155.78 168.04 147.67 172.72 149 164.3"/>
      <polygon class="cls-9" points="151.78 144.69 153.45 156.23 150.42 154.48 151.63 144.78 151.78 144.69"/>
      <polygon class="cls-16" points="170.95 115.78 172.27 112.77 178.9 116.59 177.58 119.61 170.95 115.78"/>
      <polygon class="cls-16" points="172.27 112.77 174.21 110.12 180.84 113.95 178.9 116.59 172.27 112.77"/>
      <polygon class="cls-2" points="174.21 110.12 176.5 108.29 183.13 112.11 180.84 113.95 174.21 110.12"/>
      <polygon class="cls-2" points="170.51 118.72 170.95 115.78 177.58 119.61 177.13 122.54 170.51 118.72"/>
      <polygon class="cls-7" points="176.5 108.29 178.83 107.46 185.45 111.28 183.13 112.11 176.5 108.29"/>
      <polygon class="cls-7" points="170.96 121.11 170.51 118.72 177.13 122.54 177.58 124.94 170.96 121.11"/>
      <polygon class="cls-10" points="178.83 107.46 180.78 107.86 187.4 111.69 185.45 111.28 178.83 107.46"/>
      <polygon class="cls-14" points="172.29 122.6 170.96 121.11 177.58 124.94 178.92 126.42 178.86 126.39 172.29 122.6"/>
      <polygon class="cls-11" points="170.82 172.65 170.82 131.03 177.45 134.85 177.45 176.48 170.82 172.65"/>
      <polygon class="cls-11" points="170.82 131.03 178.86 126.39 178.92 126.42 180.86 126.85 183.13 126.05 183.92 125.42 188.85 128.27 177.45 134.85 170.82 131.03"/>
      <polygon class="cls-4" points="177.13 122.54 177.58 119.61 178.9 116.59 180.84 113.95 183.13 112.11 185.45 111.28 187.4 111.69 188.72 113.17 189.16 115.6 188.72 118.51 187.4 121.53 185.45 124.2 183.92 125.42 183.13 126.05 180.86 126.85 178.92 126.42 177.58 124.94 177.13 122.54"/>
      <polygon class="cls-4" points="177.45 134.85 188.85 128.27 188.85 169.9 177.45 176.48 177.45 134.85"/>
      <polygon class="cls-12" points="56.45 172.02 55.94 174.17 49.32 178 51.4 169.1 56.45 172.02"/>
      <polygon class="cls-11" points="57.71 114.78 71.03 122.48 64.41 126.3 51.08 118.61 57.71 114.78"/>
      <polygon class="cls-13" points="71.03 122.48 83.33 183.14 83.33 191.8 78.28 194.71 64.41 126.3 71.03 122.48"/>
      <polygon class="cls-11" points="93.35 154.14 101.36 158.76 94.73 162.59 83.33 156.01 88.26 153.16 89.01 153.77 91.34 154.59 93.28 154.17 93.35 154.14"/>
      <polygon class="cls-6" points="91.41 135.6 93.35 135.19 86.72 139.02 84.78 139.42 91.41 135.6"/>
      <polygon class="cls-7" points="93.35 135.19 95.64 136 89.01 139.83 86.72 139.02 93.35 135.19"/>
      <polygon class="cls-2" points="95.64 136 97.96 137.85 91.34 141.68 89.01 139.83 95.64 136"/>
      <polygon class="cls-16" points="97.96 137.85 99.91 140.51 93.28 144.33 91.34 141.68 97.96 137.85"/>
      <polygon class="cls-10" points="101.23 148.86 99.91 150.35 93.35 154.14 93.28 154.17 94.61 152.68 101.23 148.86"/>
      <polygon class="cls-16" points="99.91 140.51 101.23 143.52 94.61 147.35 93.28 144.33 99.91 140.51"/>
      <polygon class="cls-7" points="101.67 146.46 101.23 148.86 94.61 152.68 95.05 150.28 101.67 146.46"/>
      <polygon class="cls-2" points="101.23 143.52 101.67 146.46 95.05 150.28 94.61 147.35 101.23 143.52"/>
      <polygon class="cls-11" points="101.36 158.76 101.36 200.39 94.73 204.22 94.73 162.59 101.36 158.76"/>
      <path class="cls-4" d="m78.28,194.71l-12.34-7.13-2-11.24-7.49-4.32-5.05-2.92-2.08,8.89-12.11-6.99,13.87-52.4,13.32,7.69,13.87,68.41Zm-22.46-46.89l-2.26,11.67,8.11,4.68-1.36-8.43-.07-.41-.91-5.66-.45-3.62-1.22-9.84-.16-.09-1.69,11.7Z"/>
      <polygon class="cls-4" points="83.02 143.34 83.46 140.91 84.78 139.42 86.72 139.02 89.01 139.83 91.34 141.68 93.28 144.33 94.61 147.35 95.05 150.28 94.61 152.68 93.28 154.17 91.34 154.59 89.01 153.77 88.26 153.16 86.75 151.94 84.8 149.28 83.46 146.25 83.02 143.34"/>
      <polygon class="cls-4" points="83.33 156.01 94.73 162.59 94.73 204.22 83.33 197.63 83.33 191.8 83.33 183.14 83.33 156.01"/>
      <polygon class="cls-11" points="60.18 155.66 60.31 155.74 61.66 164.17 53.55 159.49 60.18 155.66"/>
      <polygon points="60.31 155.74 60.18 155.66 60.24 155.33 60.31 155.74"/>
      <polygon class="cls-17" points="60.24 155.33 60.18 155.66 53.55 159.49 55.81 147.82 58.88 146.05 59.33 149.67 60.24 155.33"/>
      <polygon class="cls-9" points="57.51 136.12 57.67 136.21 58.88 146.05 55.81 147.82 57.51 136.12"/>
      <path d="m34.47,175.4v-80.19l69.45,40.1v80.19l-69.45-40.1Zm21.47-1.23l.5-2.15,7.49,4.32,2,11.24,12.34,7.13,5.05-2.92v5.84l11.4,6.58,6.63-3.83v-41.63l-8.01-4.63,6.56-3.79,1.32-1.49.44-2.4-.44-2.94-1.32-3.01-1.95-2.65-2.32-1.85-2.29-.81-1.94.41-6.63,3.83-1.32,1.49-.44,2.43.45,2.91,1.34,3.03,1.94,2.67,1.51,1.22-4.93,2.85v27.14l-12.3-60.67-13.32-7.69-6.63,3.83-13.87,52.4,12.11,6.99,6.63-3.83Z"/>
      <polygon class="cls-11" points="34.47 95.21 34.47 175.4 24.55 181.13 24.55 89.48 34.47 95.21"/>
      <polygon class="cls-11" points="34.47 175.4 103.92 215.5 103.92 226.95 24.55 181.13 34.47 175.4"/>
      <polygon class="cls-11" points="193.21 175.4 193.21 95.21 203.13 89.48 203.13 181.13 193.21 175.4"/>
      <path d="m193.21,95.21v80.19l-69.45,40.1v-80.19l69.45-40.1Zm-54.64,35.66l-13.87,68.41,6.63,3.83,12.11-6.99,2.08-11.29,7.43-4.29.48,2.16,6.63,3.83,12.34-7.13-13.87-52.4-6.63-3.83-13.32,7.69Zm33.7-18.1l-1.32,3.01-.44,2.94.45,2.4,1.34,1.48,6.56,3.79-8.03,4.64v41.63l6.63,3.83,11.4-6.58v-41.63l-4.93-2.85,1.53-1.22,1.95-2.67,1.32-3.02.44-2.91-.44-2.43-1.32-1.49-6.63-3.83-1.95-.4-2.32.83-2.29,1.83-1.94,2.65Z"/>
      <polygon class="cls-11" points="123.76 215.5 193.21 175.4 203.13 181.13 123.76 226.95 123.76 215.5"/>
      <path class="cls-8" d="m213.05,186.86l-99.21,57.28v-114.56l99.21-57.28v114.56Zm-89.29,40.1l79.37-45.82v-91.65l-9.92,5.73-69.45,40.1v91.65Z"/>
      <path class="cls-1" d="m113.84,244.14L14.63,186.86v-114.56l99.21,57.28v114.56ZM24.55,89.48v91.65l79.37,45.82v-91.65l-69.45-40.1-9.92-5.73Z"/>
      <polygon class="cls-11" points="14.63 72.3 113.84 15.02 213.05 72.3 113.84 129.58 14.63 72.3"/>
      <g>
        <path class="cls-15" d="m124.7,199.28l13.87-68.41m0,0l13.32-7.69m-2.74,41.04l-.08-.39m21.87-48.04l1.32-3.01m0,0l1.94-2.65m0,0l2.29-1.83m-6,10.43l.44-2.94m-21.95,48.52l.15-.09m27.35-55.93l2.32-.83m-7.87,13.66l-.45-2.4m8.32-11.26l1.95.4m-8.48,14.74l-1.34-1.48m-.13,51.54v-41.63m0,0l8.03-4.64m-25.43,56.31l-.48-2.16m-97-6.37l.5-2.15m1.26-57.24l13.32,7.69m-10.85,33.19l.13.08m-.13-.08l.06-.33m23.09,27.81l-12.3-60.67m22.32,31.66l8.01,4.63m-9.95-23.17l1.94-.41m0,0l2.29.81m0,0l2.32,1.85m1.95,2.65l-1.95-2.65m1.95,12.49l1.32-1.49m0-5.33l-1.32-3.01m1.32,8.35l.44-2.4m0,0l-.44-2.94m.13,56.87v-41.63m-66.89,16.64v-80.19m158.74,80.19v-80.19m0,80.19l-69.45,40.1m-19.84,0l-69.45-40.1"/>
        <path class="cls-15" d="m123.76,226.95l79.37-45.82m-9.92-5.73l9.92,5.73"/>
        <path class="cls-15" d="m113.84,244.14l99.21-57.28m-198.43,0l99.21,57.28"/>
        <path class="cls-15" d="m203.13,181.13v-91.65M24.55,181.13v-91.65m0,91.65l9.92-5.73"/>
        <path class="cls-15" d="m14.63,186.86v-114.56M113.84,15.02L14.63,72.3"/>
        <path class="cls-15" d="m14.63,72.3l99.21,57.28m0,0l99.21-57.28"/>
        <line class="cls-15" x1="213.05" y1="72.3" x2="113.84" y2="15.02"/>
        <path class="cls-15" d="m24.55,181.13l79.37,45.82m9.92,17.18v-114.56"/>
        <path class="cls-15" d="m213.05,186.86v-114.56m-134.78,122.42l-12.34-7.13m0,0l-2-11.24"/>
        <line class="cls-15" x1="51.4" y1="169.1" x2="49.32" y2="178"/>
        <path class="cls-15" d="m49.32,178l-12.11-6.99m0,0l13.87-52.4"/>
        <path class="cls-15" d="m51.08,118.61l13.32,7.69m0,0l13.87,68.41"/>
        <line class="cls-15" x1="57.67" y1="136.21" x2="57.51" y2="136.12"/>
        <path class="cls-15" d="m57.51,136.12l-1.69,11.7m0,0l-2.26,11.67m0,0l8.11,4.68"/>
        <path class="cls-15" d="m83.33,191.8l-5.05,2.92m-22.33-20.54l-6.63,3.83m8.39-63.21l-6.63,3.83"/>
        <path class="cls-15" d="m71.03,122.48l-6.63,3.83m-4.23,29.36l-6.63,3.83"/>
        <path class="cls-15" d="m83.02,143.34l.44-2.43m0,0l1.32-1.49"/>
        <path class="cls-15" d="m84.78,139.42l1.94-.41m0,0l2.29.81m0,0l2.32,1.85m0,0l1.95,2.65m0,0l1.32,3.01m0,0l.44,2.94m0,0l-.44,2.4m0,0l-1.32,1.49"/>
        <path class="cls-15" d="m93.28,154.17l-1.95.42m0,0l-2.32-.83m-2.27-1.82l-1.94-2.67m0,0l-1.34-3.03m0,0l-.45-2.91m8.39-7.74l-6.63,3.83"/>
        <path class="cls-15" d="m83.33,156.01l11.4,6.58m0,0v41.63"/>
        <line class="cls-15" x1="94.73" y1="204.22" x2="83.33" y2="197.63"/>
        <line class="cls-15" x1="101.36" y1="158.76" x2="94.73" y2="162.59"/>
        <path class="cls-15" d="m88.26,153.16l-4.93,2.85m18.03,44.39l-6.63,3.83m77.66-24.82l-12.34,7.13"/>
        <line class="cls-15" x1="160.05" y1="186.52" x2="158.05" y2="177.59"/>
        <path class="cls-15" d="m145.51,184.83l-2.08,11.29m0,0l-12.11,6.99"/>
        <path class="cls-15" d="m131.33,203.11l13.87-68.41m0,0l13.32-7.69"/>
        <line class="cls-15" x1="158.52" y1="127" x2="172.39" y2="179.4"/>
        <path class="cls-15" d="m155.78,168.04l-2.33-11.81m0,0l-1.67-11.54"/>
        <line class="cls-15" x1="151.78" y1="144.69" x2="151.63" y2="144.78"/>
        <line class="cls-15" x1="147.67" y1="172.72" x2="155.78" y2="168.04"/>
        <path class="cls-15" d="m153.42,182.7l6.63,3.83m-35.35,12.76l6.63,3.83"/>
        <line class="cls-15" x1="138.57" y1="130.87" x2="145.2" y2="134.69"/>
        <line class="cls-15" x1="151.9" y1="123.18" x2="158.52" y2="127"/>
        <path class="cls-15" d="m149.15,164.22l6.63,3.83m21.36-45.5l.44-2.94m0,0l1.32-3.01m0,0l1.94-2.65m0,0l2.29-1.83m0,0l2.32-.83m0,0l1.95.4"/>
        <path class="cls-15" d="m187.4,111.69l1.32,1.49m0,0l.44,2.43m0,0l-.44,2.91m0,0l-1.32,3.02m0,0l-1.95,2.67m-2.32,1.86l-2.27.79m0,0l-1.94-.42"/>
        <path class="cls-15" d="m178.92,126.42l-1.34-1.48m0,0l-.45-2.4"/>
        <line class="cls-15" x1="180.78" y1="107.86" x2="187.4" y2="111.69"/>
        <line class="cls-15" x1="177.45" y1="134.85" x2="188.85" y2="128.27"/>
        <path class="cls-15" d="m188.85,128.27v41.63m0,0l-11.4,6.58"/>
        <line class="cls-15" x1="183.92" y1="125.42" x2="188.85" y2="128.27"/>
        <line class="cls-15" x1="170.82" y1="131.03" x2="177.45" y2="134.85"/>
        <path class="cls-15" d="m170.82,172.65l6.63,3.83m-73.53-41.17l-69.45-40.1m0,0l-9.92-5.73m79.37,137.47v-11.46m0,0v-80.19m19.84,0l69.45-40.1m0,0l9.92-5.73m-79.37,137.47v-11.46m0,0v-80.19m-59.83,41.04l-7.49-4.32m0,0l-5.05-2.92m10.27-4.93l-1.36-8.43m-.98-6.07l-.45-3.62m0,0l-1.22-9.84m31.35,17.56l-.75-.61m0,0l-1.51-1.22m13.16-1.59l-6.56,3.79m0,0l-.06.04m-9.95,28.97v-27.14m74.72,21.58l-5.11,2.95m0,0l-7.43,4.29m6.11-40.04l-1.2,9.7m0,0l-.49,3.96m-.93,5.86l-1.33,8.42m37.78-48.53l-1.53,1.22m0,0l-.79.63m-10.84-3.45l6.56,3.79m0,0l.06.04m-118.61,29.32l-.07-.41m0,0l-.91-5.66m24,47.96v-5.84m0,0v-8.65m66.6-24.7l-.85,5.39m0,0l-.08.47"/>
      </g>
    </g>
  </g>
</svg>