<?xml version="1.0" encoding="UTF-8"?>
<svg id="Layer_2" data-name="Layer 2" xmlns="http://www.w3.org/2000/svg" viewBox="0 0 529.81 605.94">
  <defs>
    <style>
      .cls-1 {
        fill: #fff;
      }

      .cls-2 {
        fill: #be1e2d;
      }

      .cls-3 {
        fill: #1c75bc;
      }
    </style>
  </defs>
  <g id="Layer_1-2" data-name="Layer 1">
    <path class="cls-1" d="m505.79,155.1L280.34,24.94c-2.12-1.22-4.73-1.22-6.85,0L27.45,166.99c-2.12,1.22-3.42,3.48-3.42,5.93v277.91l225.45,130.16c2.12,1.22,4.73,1.22,6.85,0l246.05-142.05c2.12-1.22,3.42-3.48,3.42-5.93V155.1Z"/>
    <path class="cls-2" d="m505.79,155.1L280.34,24.94c-2.12-1.22-4.73-1.22-6.85,0L27.45,166.99c-2.12,1.22-3.42,3.48-3.42,5.93v277.91l-20.6-11.89c-2.12-1.22-3.42-3.48-3.42-5.93V148.9c0-2.45,1.31-4.71,3.42-5.93L249.47.92c2.12-1.22,4.73-1.22,6.85,0l246.05,142.05c2.12,1.22,3.42,3.48,3.42,5.93v6.2Z"/>
    <path class="cls-3" d="m505.79,155.1l20.6,11.89c2.12,1.22,3.42,3.48,3.42,5.93v284.11c0,2.45-1.31,4.71-3.42,5.93l-246.05,142.05c-2.12,1.22-4.73,1.22-6.85,0L27.45,462.96c-2.12-1.22-3.42-3.48-3.42-5.93v-6.2l225.45,130.16c2.12,1.22,4.73,1.22,6.85,0l246.05-142.05c2.12-1.22,3.42-3.48,3.42-5.93V155.1Z"/>
  </g>
</svg>