<?xml version="1.0" encoding="UTF-8"?>
<svg id="Layer_2" data-name="Layer 2" xmlns="http://www.w3.org/2000/svg" viewBox="0 0 70.39 92.49">
  <defs>
    <style>
      .cls-1 {
        fill: #fff;
      }

      .cls-2 {
        fill: #d1d3d4;
      }

      .cls-3 {
        fill: #231f20;
      }
    </style>
  </defs>
  <g id="Layer_1-2" data-name="Layer 1">
    <path class="cls-3" d="m46.13,0h1.44c.89.2,1.7.56,2.49,1.02,5.45,3.13,10.86,6.34,16.39,9.33,2.82,1.53,3.95,3.73,3.94,6.8-.04,11.95-.03,23.89-.05,35.84,0,1.65.1,3.33-.2,4.95-1.08,6.01-4.01,10.84-9.37,13.98-8.46,4.95-16.93,9.87-25.41,14.79-2.88,1.68-5.76,3.38-8.69,4.96-1.93,1.04-3.92,1.15-5.92-.03-5.99-3.52-12.01-6.99-18-10.5-.83-.48-1.41-1.21-1.79-2.09-.47-1.09-.71-2.22-.73-3.41-.06-5.57.01-11.13-.08-16.7-.13-7.52-.22-15.05-.04-22.57.16-6.56,3.14-11.86,8.63-15.43,4.45-2.9,9.19-5.35,13.81-8,5.14-2.95,10.25-5.92,15.42-8.82,2.66-1.49,5.14-3.37,8.17-4.13Zm-26.7,65.67s.03,0,.04,0c0,6.29,0,12.58,0,18.87,0,1.18.09,2.35.41,3.48.71,2.54,2.82,3.73,5.36,3.03,1.41-.38,2.63-1.17,3.87-1.89,5.61-3.27,11.23-6.51,16.85-9.78,4.78-2.78,9.53-5.62,14.34-8.36,5.85-3.34,8.86-8.49,9.01-15.06.28-12.15.01-24.31.19-36.46.02-1.38,0-2.77-.33-4.13-.58-2.37-2.29-3.73-4.51-3.59-1.1.07-2.11.49-3.05,1.03-11.13,6.39-22.3,12.73-33.37,19.23-5.82,3.42-8.74,8.69-8.79,15.48-.04,6.05,0,12.1,0,18.14Zm0,0s.03,0,.04,0c0,6.29,0,12.58,0,18.87,0,1.18.09,2.35.41,3.48.71,2.54,2.82,3.73,5.36,3.03,1.41-.38,2.63-1.17,3.87-1.89,5.61-3.27,11.23-6.51,16.85-9.78,4.78-2.78,9.53-5.62,14.34-8.36,5.85-3.34,8.86-8.49,9.01-15.06.28-12.15.01-24.31.19-36.46.02-1.38,0-2.77-.33-4.13-.58-2.37-2.29-3.73-4.51-3.59-1.1.07-2.11.49-3.05,1.03-11.13,6.39-22.3,12.73-33.37,19.23-5.82,3.42-8.74,8.69-8.79,15.48-.04,6.05,0,12.1,0,18.14Z"/>
    <path class="cls-1" d="m19.43,65.67s.03,0,.04,0c0,6.29,0,12.58,0,18.87,0,1.18.09,2.35.41,3.48.71,2.54,2.82,3.73,5.36,3.03,1.41-.38,2.63-1.17,3.87-1.89,5.61-3.27,11.23-6.51,16.85-9.78,4.78-2.78,9.53-5.62,14.34-8.36,5.85-3.34,8.86-8.49,9.01-15.06.28-12.15.01-24.31.19-36.46.02-1.38,0-2.77-.33-4.13-.58-2.37-2.29-3.73-4.51-3.59-1.1.07-2.11.49-3.05,1.03-11.13,6.39-22.3,12.73-33.37,19.23-5.82,3.42-8.74,8.69-8.79,15.48-.04,6.05,0,12.1,0,18.14Z"/>
    <g>
      <path d="m30.62,43.27c-.02-2.21.98-3.79,2.89-4.86,2.62-1.47,5.22-2.97,7.82-4.46,2.81-1.6,5.62-3.21,8.43-4.81.78-.44,1.56-.88,2.33-1.34.78-.48,1.53-.54,2.34-.04.94.58,1.91,1.09,2.87,1.64.55.32.85.78.94,1.43.33,2.39-.91,4.58-2.83,5.66-6.16,3.47-12.28,7.03-18.42,10.55-.26.15-.52.29-.8.41-.49.21-.97.2-1.45-.07-1.13-.66-2.27-1.29-3.4-1.94-.51-.3-.7-.79-.74-1.35-.02-.27,0-.54,0-.8Zm3.99,1.82c.01.33,0,.66.09.99.21.81.69,1.08,1.48.8.16-.06.32-.13.47-.22.74-.42,1.47-.85,2.2-1.27,2.9-1.67,5.81-3.33,8.71-4.99,2.51-1.44,4.99-2.92,7.53-4.3,1.75-.95,2.73-2.32,2.72-4.33,0-1.74-.78-2.17-2.3-1.3-3.19,1.83-6.38,3.65-9.58,5.48-3.05,1.75-6.12,3.49-9.16,5.26-1.47.86-2.15,2.19-2.17,3.88Z"/>
      <path d="m58.24,45.7c-.03,2.09-.9,3.68-2.73,4.73-6.17,3.56-12.33,7.12-18.5,10.68-.3.17-.6.35-.93.46-.43.14-.84.12-1.23-.1-1.15-.66-2.29-1.32-3.43-1.98-.51-.3-.72-.79-.77-1.34-.2-1.92.32-3.59,1.79-4.89.69-.61,1.54-.98,2.32-1.43,2.91-1.69,5.83-3.35,8.74-5.03,2.9-1.67,5.81-3.32,8.7-5,.76-.44,1.46-.44,2.21.02.9.55,1.82,1.07,2.74,1.57.76.41,1.11,1.03,1.08,1.89,0,.14,0,.28,0,.43Zm-23.61,13.57c.03.25.05.58.12.9.16.72.68,1.02,1.38.8.16-.05.33-.12.48-.2,3.29-1.9,6.59-3.8,9.88-5.7,3.03-1.75,6.06-3.51,9.11-5.25,1.64-.94,2.57-3.13,2.08-4.96-.16-.6-.73-.91-1.32-.7-.39.13-.75.32-1.11.52-2.11,1.22-4.21,2.44-6.33,3.66-4,2.31-8.01,4.61-12.01,6.92-1.52.87-2.19,2.24-2.28,4.02Z"/>
      <path d="m30.71,71.33c-.01-2.17.96-3.73,2.84-4.79,2.95-1.67,5.88-3.39,8.82-5.09,3.32-1.92,6.63-3.84,9.95-5.76.61-.35,1.24-.39,1.88,0,.99.59,1.98,1.17,2.98,1.71.69.37.99.94,1.02,1.68.12,2.3-.7,4.11-2.74,5.3-6.25,3.63-12.5,7.26-18.75,10.89-.73.43-1.42.47-2.17,0-.91-.57-1.83-1.11-2.77-1.61-.78-.41-1.11-1.02-1.06-1.88,0-.16,0-.31,0-.47Zm27.02-11.46c0-.38-.02-.76-.14-1.12-.2-.57-.65-.8-1.22-.63-.35.1-.67.26-.99.44-1.33.78-2.66,1.56-3.99,2.33-4.87,2.82-9.74,5.64-14.61,8.46-1.69.98-2.38,3.02-2.02,4.77.16.81.76,1.08,1.54.78.41-.16.77-.43,1.15-.65,3.36-1.94,6.72-3.89,10.08-5.83,2.46-1.43,4.9-2.9,7.39-4.27,1.73-.95,2.78-2.26,2.82-4.28Z"/>
    </g>
    <path class="cls-1" d="m34.6,45.09c.01.33,0,.66.09.99.21.81.69,1.08,1.48.8.16-.06.32-.13.47-.22.74-.42,1.47-.85,2.2-1.27,2.9-1.67,5.81-3.33,8.71-4.99,2.51-1.44,4.99-2.92,7.53-4.3,1.75-.95,2.73-2.32,2.72-4.33,0-1.74-.78-2.17-2.3-1.3-3.19,1.83-6.38,3.65-9.58,5.48-3.05,1.75-6.12,3.49-9.16,5.26-1.47.86-2.15,2.19-2.17,3.88Z"/>
    <path class="cls-1" d="m34.6,59.15c.01.33,0,.66.09.99.21.81.69,1.08,1.48.8.16-.06.32-.13.47-.22.74-.42,1.47-.85,2.2-1.27,2.9-1.67,5.81-3.33,8.71-4.99,2.51-1.44,4.99-2.92,7.53-4.3,1.75-.95,2.73-2.32,2.72-4.33,0-1.74-.78-2.17-2.3-1.3-3.19,1.83-6.38,3.65-9.58,5.48-3.05,1.75-6.12,3.49-9.16,5.26-1.47.86-2.15,2.19-2.17,3.88Z"/>
    <path class="cls-1" d="m34.49,73.13c.01.33,0,.66.09.99.21.81.69,1.08,1.48.8.16-.06.32-.13.47-.22.74-.42,1.47-.85,2.2-1.27,2.9-1.67,5.81-3.33,8.71-4.99,2.51-1.44,4.99-2.92,7.53-4.3,1.75-.95,2.73-2.32,2.72-4.33,0-1.74-.78-2.17-2.3-1.3-3.19,1.83-6.38,3.65-9.58,5.48-3.05,1.75-6.12,3.49-9.16,5.26-1.47.86-2.15,2.19-2.17,3.88Z"/>
  </g>
</svg>