<?xml version="1.0" encoding="UTF-8"?>
<svg id="Layer_2" data-name="Layer 2" xmlns="http://www.w3.org/2000/svg"  height="450px" viewBox="0 0 387.45 441">
  <defs>
    <style>
      .cls-1 {
        fill: #d7a086;
      }

      .cls-2 {
        fill: #c59078;
      }

      .cls-3 {
        fill: #2c2119;
      }

      .cls-4 {
        fill: #575f5f;
      }

      .cls-5 {
        fill: none;
      }
    </style>
  </defs>
  <g id="Layer_1-2" data-name="Layer 1">
    <path d="m193.72,441c-3.56,0-7.13-.92-10.32-2.76L10.32,338.3c-6.39-3.69-10.32-10.5-10.32-17.87V120.57c0-7.37,3.93-14.19,10.32-17.87L183.41,2.76c6.38-3.69,14.25-3.69,20.64,0l173.09,99.93c6.39,3.69,10.32,10.5,10.32,17.87v199.86c0,7.37-3.93,14.19-10.32,17.87l-173.09,99.93c-3.19,1.84-6.76,2.76-10.32,2.76ZM41.27,308.52l152.45,88.02,152.45-88.02v-176.04L193.72,44.46,41.27,132.48v176.04Z"/>
    <path class="cls-5" d="m298.34,173.5l.71-.89"/>
    <g>
      <path class="cls-2" d="m116.21,351.77l77.52,44.75,39.39-22.74c.17-.68.34-1.36.5-2.03l21.72-90.74c-44.74-2.6-79.62-31.88-123.21-42.26-6.03,22.45-3.94,46.69-11.68,68.6-.4,1.13-.88,2.32-1.9,2.96-.87.54-1.95.55-2.97.55-2.96,0-5.92,0-8.88,0-1.34,14.11,3.64,27.87,9.51,40.91Z"/>
      <path class="cls-1" d="m129.52,222.72c-2.15,2.74-6.67,2.4-9.39.23-2.73-2.17-4.1-5.58-5.37-8.82-2.4-6.15-4.81-12.38-5.49-18.94-1.14-10.99,2.67-21.85,6.77-32.11.38-.95.78-1.92,1.5-2.64,1.63-1.61,4.44-1.39,6.35-.12s3.12,3.32,4.27,5.3c1.9-11.48,3.8-22.97,5.7-34.45.79-4.77,1.58-9.54,2.37-14.31,1.32-7.96,2.69-16.08,6.45-23.22,5.65-10.72,16-18.01,26.03-24.8,5.77-3.91,11.68-7.84,18.38-9.76,7.33-2.1,15.12-1.65,22.73-1.18,8.15.5,16.31,1.01,24.46,1.51,4.73.29,9.52.59,14.06,1.95,6.85,2.04,12.76,6.36,18.51,10.59,12.24,9.01,25.08,18.77,30.59,32.94,2.96,7.62,3.59,16.08,7.32,23.36,1.14,2.22,2.57,4.36,3.07,6.81.7,3.48-.6,7.01-1.82,10.35-3.37,9.21-6.25,18.59-8.68,28.08-2.93,11.44-5.2,23.06-6.74,34.77,3.07-2.32,7.84-.38,9.77,2.95,1.93,3.32,1.79,7.42,1.44,11.25-1.16,12.5-4.38,25.56-13.28,34.41-5.34,5.31-14.31,8.6-20.26,3.99-1.66,18.83-12.65,36.6-28.75,46.5s-36.92,11.68-54.47,4.66c-9.72-3.89-18.27-10.21-26.15-17.09-5.94-5.18-11.56-10.72-16.84-16.58-3.35-3.72-6.6-7.63-8.65-12.2-1.91-4.28-2.68-8.97-3.2-13.62-1.08-9.85-1.07-19.81.03-29.66l-.71-.16Z"/>
      <path class="cls-5" d="m131.34,132.09c.72-.3,1.58-.6,2.52-.91"/>
      <path class="cls-3" d="m133.86,131.17c4.74-1.57,11.7-3.32,15.33-4.8,1.08-.44,2.18-.9,3.01-1.71,1.68-1.64,1.83-4.22,2.45-6.49.99-3.64,3.48-6.85,6.76-8.72,2.93-1.66,6.36-2.26,9.29-3.93,3.38-1.93,5.82-5.13,8.78-7.65,2.97-2.52,7.06-4.42,10.69-3.02,2.67,1.03,4.4,3.57,5.97,5.97,4,6.15,8,12.31,12.01,18.46,2.94,4.52,5.92,9.09,9.84,12.8,3.92,3.71,8.92,6.54,14.31,6.83-4.03-6.41-8.06-12.82-12.09-19.23-1.26-2.01-2.42-4.9-.65-6.47.62-.54,1.45-.75,2.27-.88,6.19-.97,12.55,2.02,16.77,6.64,2.25,2.46,4.77,5.7,8.05,5.11,1.8-.32,3.26-1.8,5.07-2.01,2.61-.3,4.77,2.17,5.55,4.68.78,2.51.69,5.23,1.55,7.72,1.56,4.54,6.46,7.67,11.24,7.18-.89-3-1.78-6-2.67-9-.79-2.66-1.41-5.97.65-7.83,2.42-2.19,6.29-.4,8.7,1.8.87.8,1.75,1.73,1.91,2.91.15,1.14-.4,2.24-.62,3.36-.8,4.12,2.81,7.66,4.25,11.6,1.84,5.03.26,11.27,3.61,15.44,1.23,1.53,3.03,2.61,3.91,4.36,1.17,2.3.44,5.05.34,7.63-.09,2.58,1.11,5.76,3.69,5.93,1.17-1.46,2.33-2.91,3.5-4.37,2.43-9.5,5.31-18.88,8.68-28.08,1.22-3.33,2.52-6.87,1.82-10.35-.49-2.45-1.93-4.58-3.07-6.81-3.73-7.28-4.35-15.74-7.32-23.36-5.51-14.17-18.34-23.93-30.59-32.94-5.76-4.24-11.66-8.55-18.51-10.59-4.55-1.36-9.33-1.66-14.06-1.95-8.15-.5-16.31-1.01-24.46-1.51-7.61-.47-15.4-.92-22.73,1.18-6.7,1.92-12.61,5.85-18.38,9.76-10.03,6.79-20.38,14.08-26.03,24.8-3.76,7.14-5.13,15.26-6.45,23.22-.79,4.77-1.58,9.54-2.37,14.31Z"/>
      <g>
        <path class="cls-4" d="m115.16,351.17l-62.88-36.31c4.57-1.13,9.22-1.95,13.9-2.45,4.34-.46,8.75-.66,12.93-1.91,2.95-.88,5.72-2.26,8.59-3.35,6.33-2.39,13.2-3.34,19.94-2.74-2.8,7.99-.6,16.77,1.61,24.94,1.97,7.27,3.94,14.55,5.91,21.82Z"/>
        <line class="cls-4" x1="51.54" y1="314.44" x2="52.27" y2="314.86"/>
        <line class="cls-4" x1="291.26" y1="340.22" x2="293.89" y2="338.74"/>
        <path class="cls-4" d="m291.26,340.22l-.17.09-58.22,33.61c.3-1.64.54-3.29.76-4.87,2.09-14.85,6.48-29.37,12.98-42.88,6.85,5.71,16.54,5.87,25.31,7.47,6.72,1.22,13.26,3.46,19.34,6.58Z"/>
      </g>
    </g>
  </g>
</svg>