<?xml version="1.0" encoding="UTF-8"?>
<svg id="Layer_2" data-name="Layer 2" xmlns="http://www.w3.org/2000/svg" viewBox="0 0 387.45 441">
  <defs>
    <style>
      .cls-1 {
        fill: #6a6a6a;
      }

      .cls-2 {
        fill: #b7b7b7;
      }

      .cls-3 {
        fill: #979797;
      }

      .cls-4 {
        fill: #a7a7a7;
      }

      .cls-5 {
        fill: #939393;
      }

      .cls-6 {
        fill: #343434;
      }

      .cls-7 {
        fill: #262626;
      }

      .cls-8 {
        fill: #555;
      }

      .cls-9 {
        fill: #0f0f0f;
      }

      .cls-10 {
        fill: #8b8b8b;
      }

      .cls-11 {
        fill: #585858;
      }

      .cls-12 {
        fill: #3d3d3d;
      }

      .cls-13 {
        fill: #727272;
      }

      .cls-14 {
        fill: #575757;
      }

      .cls-15 {
        fill: #d1d1d1;
      }

      .cls-16 {
        fill: #848484;
      }

      .cls-17 {
        fill: #3f3f3f;
      }

      .cls-18 {
        fill: #a5a5a5;
      }

      .cls-19 {
        fill: #bfbfbf;
      }

      .cls-20 {
        fill: #9c9c9c;
      }

      .cls-21 {
        fill: #aeaeae;
      }

      .cls-22 {
        fill: #363636;
      }

      .cls-23 {
        fill: #0c0c0c;
      }

      .cls-24 {
        fill: silver;
      }

      .cls-25 {
        fill: #989898;
      }

      .cls-26 {
        fill: #717171;
      }

      .cls-27 {
        fill: #4b4b4b;
      }

      .cls-28 {
        fill: #222;
      }

      .cls-29 {
        fill: #040404;
      }

      .cls-30 {
        fill: #5f5f5f;
      }

      .cls-31 {
        fill: #a9a9a9;
      }

      .cls-32 {
        fill: #9f9f9f;
      }

      .cls-33 {
        fill: #a0a0a0;
      }

      .cls-34 {
        fill: #4a4a4a;
      }

      .cls-35 {
        fill: #b2b2b2;
      }

      .cls-36 {
        fill: #a6a6a6;
      }

      .cls-37 {
        fill: #8c8c8c;
      }

      .cls-38 {
        fill: #3e3e3e;
      }

      .cls-39 {
        fill: #959595;
      }

      .cls-40 {
        fill: #868686;
      }

      .cls-41 {
        fill: #b4b4b4;
      }

      .cls-42 {
        fill: #303030;
      }

      .cls-43 {
        fill: #909090;
      }

      .cls-44 {
        fill: #393939;
      }

      .cls-45 {
        fill: #4e4e4e;
      }

      .cls-46 {
        fill: #7c7c7c;
      }

      .cls-47 {
        fill: #2f2f2f;
      }

      .cls-48 {
        fill: #8d8d8d;
      }

      .cls-49 {
        fill: #656565;
      }

      .cls-50 {
        fill: #bdbdbd;
      }

      .cls-51 {
        fill: #313131;
      }

      .cls-52 {
        fill: #1b1b1b;
      }

      .cls-53 {
        fill: #707070;
      }

      .cls-54 {
        fill: #333;
      }

      .cls-55 {
        fill: #646464;
      }

      .cls-56 {
        fill: #818181;
      }

      .cls-57 {
        fill: #929292;
      }

      .cls-58 {
        fill: #969696;
      }

      .cls-59 {
        fill: #b0b0b0;
      }

      .cls-60 {
        fill: gray;
      }

      .cls-61 {
        fill: #444;
      }

      .cls-62 {
        fill: #5a5a5a;
      }

      .cls-63 {
        fill: #0d0d0d;
      }

      .cls-64 {
        fill: #080808;
      }

      .cls-65 {
        fill: #828282;
      }

      .cls-66 {
        fill: #8e8e8e;
      }

      .cls-67 {
        fill: #b8b8b8;
      }

      .cls-68 {
        fill: #898989;
      }

      .cls-69 {
        fill: #a1a1a1;
      }

      .cls-70 {
        fill: #424242;
      }

      .cls-71 {
        fill: #414141;
      }

      .cls-72 {
        fill: #2b2b2b;
      }

      .cls-73 {
        fill: #676767;
      }

      .cls-74 {
        fill: #737373;
      }

      .cls-75 {
        fill: #a3a3a3;
      }

      .cls-76 {
        fill: #3b3b3b;
      }

      .cls-77 {
        fill: #212121;
      }

      .cls-78 {
        fill: #b6b6b6;
      }

      .cls-79 {
        fill: #aaa;
      }

      .cls-80 {
        fill: #5d5d5d;
      }

      .cls-81 {
        fill: #878787;
      }

      .cls-82 {
        fill: #afafaf;
      }

      .cls-83 {
        fill: #494949;
      }

      .cls-84 {
        fill: #d3d3d3;
      }

      .cls-85 {
        fill: #bebebe;
      }

      .cls-86 {
        fill: #1d1d1d;
      }

      .cls-87 {
        fill: #202020;
      }

      .cls-88 {
        fill: #636363;
      }

      .cls-89 {
        fill: #353535;
      }

      .cls-90 {
        fill: #c1c1c1;
      }

      .cls-91 {
        fill: #999;
      }

      .cls-92 {
        fill: #535353;
      }

      .cls-93 {
        fill: #bcbcbc;
      }

      .cls-94 {
        fill: #515151;
      }

      .cls-95 {
        fill: #9b9b9b;
      }

      .cls-96 {
        fill: #b1b1b1;
      }

      .cls-97 {
        fill: #2d2d2d;
      }

      .cls-98 {
        fill: #ababab;
      }

      .cls-99 {
        fill: #757575;
      }

      .cls-100 {
        fill: #bbb;
      }

      .cls-101 {
        fill: #b3b3b3;
      }

      .cls-102 {
        fill: #434343;
      }

      .cls-103 {
        fill: #7e7e7e;
      }

      .cls-104 {
        fill: #545454;
      }

      .cls-105 {
        fill: #c2c2c2;
      }

      .cls-106 {
        fill: #7b7b7b;
      }

      .cls-107 {
        fill: #1f1f1f;
      }

      .cls-108 {
        fill: #1a1a1a;
      }

      .cls-109 {
        fill: #525252;
      }

      .cls-110 {
        fill: #7a7a7a;
      }

      .cls-111 {
        fill: #a8a8a8;
      }

      .cls-112 {
        fill: #949494;
      }

      .cls-113 {
        fill: #b5b5b5;
      }

      .cls-114 {
        fill: #484848;
      }

      .cls-115 {
        fill: #7f7f7f;
      }

      .cls-116 {
        fill: #8a8a8a;
      }

      .cls-117 {
        fill: #595959;
      }

      .cls-118 {
        fill: #cdcdcd;
      }

      .cls-119 {
        fill: #5b5b5b;
      }

      .cls-120 {
        fill: #9e9e9e;
      }

      .cls-121 {
        fill: #838383;
      }

      .cls-122 {
        fill: #686868;
      }

      .cls-123 {
        fill: #919191;
      }

      .cls-124 {
        fill: #666;
      }

      .cls-125 {
        fill: #c4c4c4;
      }

      .cls-126 {
        fill: #3c3c3c;
      }

      .cls-127 {
        fill: #888;
      }

      .cls-128 {
        fill: #5e5e5e;
      }

      .cls-129 {
        fill: #a2a2a2;
      }

      .cls-130 {
        fill: #b9b9b9;
      }
    </style>
  </defs>
  <g id="Layer_1-2" data-name="Layer 1">
    <path d="m193.72,441c-3.56,0-7.13-.92-10.32-2.76L10.32,338.3c-6.39-3.69-10.32-10.5-10.32-17.87V120.57c0-7.37,3.93-14.19,10.32-17.87L183.41,2.76c6.38-3.69,14.25-3.69,20.64,0l173.09,99.93c6.39,3.69,10.32,10.5,10.32,17.87v199.86c0,7.37-3.93,14.19-10.32,17.87l-173.09,99.93c-3.19,1.84-6.76,2.76-10.32,2.76ZM41.27,308.52l152.45,88.02,152.45-88.02v-176.04L193.72,44.46,41.27,132.48v176.04Z"/>
    <g>
      <polygon class="cls-14" points="209.48 387.44 208.85 387.8 208.85 387.44 209.48 387.44"/>
      <polygon class="cls-59" points="208.85 387.44 208.85 387.8 193.72 396.54 193.72 387.44 208.85 387.44"/>
      <polygon class="cls-78" points="193.72 387.44 193.72 396.54 178.59 387.81 178.59 387.44 193.72 387.44"/>
      <polygon class="cls-100" points="178.59 387.44 178.59 387.81 177.96 387.44 178.59 387.44"/>
      <polygon class="cls-74" points="232.78 373.99 223.99 379.06 223.99 373.99 232.78 373.99"/>
      <polygon class="cls-36" points="223.99 373.99 223.99 379.06 209.48 387.44 208.85 387.44 208.85 373.99 223.99 373.99"/>
      <rect class="cls-41" x="193.72" y="373.99" width="15.13" height="13.44"/>
      <rect class="cls-78" x="178.59" y="373.99" width="15.13" height="13.44"/>
      <polygon class="cls-125" points="178.59 373.99 178.59 387.44 177.96 387.44 163.45 379.06 163.45 373.99 178.59 373.99"/>
      <polygon class="cls-105" points="163.45 373.99 163.45 379.06 154.66 373.99 163.45 373.99"/>
      <polygon class="cls-45" points="256.06 360.55 254.25 361.59 254.25 360.55 256.06 360.55"/>
      <polygon class="cls-114" points="254.25 360.55 254.25 361.59 239.12 370.33 239.12 360.55 254.25 360.55"/>
      <polygon class="cls-68" points="239.12 360.55 239.12 370.33 232.78 373.99 223.99 373.99 223.99 360.55 239.12 360.55"/>
      <rect class="cls-31" x="208.86" y="360.54" width="15.13" height="13.44"/>
      <rect class="cls-82" x="193.72" y="360.54" width="15.13" height="13.44"/>
      <rect class="cls-24" x="178.59" y="360.54" width="15.13" height="13.44"/>
      <rect class="cls-105" x="163.46" y="360.54" width="15.13" height="13.44"/>
      <polygon class="cls-125" points="163.45 360.55 163.45 373.99 154.66 373.99 148.32 370.33 148.32 360.55 163.45 360.55"/>
      <polygon class="cls-93" points="148.32 360.55 148.32 370.33 133.19 361.59 133.19 360.55 148.32 360.55"/>
      <polygon class="cls-80" points="133.19 360.55 133.19 361.59 131.38 360.55 133.19 360.55"/>
      <polygon class="cls-8" points="279.35 347.1 269.39 352.85 269.39 347.1 279.35 347.1"/>
      <polygon class="cls-44" points="269.39 347.1 269.39 352.85 256.06 360.55 254.25 360.55 254.25 347.1 269.39 347.1"/>
      <rect class="cls-34" x="239.12" y="347.1" width="15.13" height="13.44"/>
      <rect class="cls-91" x="223.99" y="347.1" width="15.13" height="13.44"/>
      <rect class="cls-21" x="208.86" y="347.1" width="15.13" height="13.44"/>
      <rect class="cls-5" x="193.72" y="347.1" width="15.13" height="13.44"/>
      <rect class="cls-2" x="178.59" y="347.1" width="15.13" height="13.44"/>
      <rect class="cls-24" x="163.46" y="347.1" width="15.13" height="13.44"/>
      <rect class="cls-90" x="148.32" y="347.1" width="15.13" height="13.44"/>
      <rect class="cls-100" x="133.19" y="347.1" width="15.13" height="13.44"/>
      <polygon class="cls-35" points="133.19 347.1 133.19 360.55 131.38 360.55 118.05 352.85 118.05 347.1 133.19 347.1"/>
      <polygon class="cls-122" points="118.05 347.1 118.05 352.85 108.08 347.1 118.05 347.1"/>
      <path class="cls-34" d="m291.08,340.33l-6.56,3.79v-6.33c.49.17.99.34,1.5.51,1.57.53,3.29,1.22,5.06,2.03Z"/>
      <polygon class="cls-62" points="284.52 333.66 284.52 344.12 279.35 347.1 269.39 347.1 269.39 333.66 284.52 333.66"/>
      <rect class="cls-54" x="254.26" y="333.65" width="15.13" height="13.44"/>
      <rect class="cls-17" x="239.12" y="333.65" width="15.13" height="13.44"/>
      <rect class="cls-3" x="223.99" y="333.65" width="15.13" height="13.44"/>
      <rect class="cls-81" x="208.86" y="333.65" width="15.13" height="13.44"/>
      <rect class="cls-74" x="193.72" y="333.65" width="15.13" height="13.44"/>
      <rect class="cls-35" x="178.59" y="333.65" width="15.13" height="13.44"/>
      <rect class="cls-35" x="163.46" y="333.65" width="15.13" height="13.44"/>
      <rect class="cls-130" x="148.32" y="333.65" width="15.13" height="13.44"/>
      <rect class="cls-67" x="133.19" y="333.65" width="15.13" height="13.44"/>
      <rect class="cls-111" x="118.06" y="333.65" width="15.13" height="13.44"/>
      <polygon class="cls-62" points="118.05 333.66 118.05 347.1 108.08 347.1 102.92 344.12 102.92 333.66 118.05 333.66"/>
      <polygon class="cls-128" points="102.92 333.66 102.92 344.12 87.79 335.38 87.79 333.66 102.92 333.66"/>
      <polygon class="cls-102" points="87.79 333.66 87.79 335.38 84.8 333.66 87.79 333.66"/>
      <rect class="cls-6" x="239.12" y="320.21" width="15.13" height="13.44"/>
      <rect class="cls-69" x="223.99" y="320.21" width="15.13" height="13.44"/>
      <rect class="cls-26" x="208.86" y="320.21" width="15.13" height="13.44"/>
      <rect class="cls-35" x="193.72" y="320.21" width="15.13" height="13.44"/>
      <rect class="cls-100" x="178.59" y="320.21" width="15.13" height="13.44"/>
      <rect class="cls-101" x="163.46" y="320.21" width="15.13" height="13.44"/>
      <rect class="cls-98" x="148.32" y="320.21" width="15.13" height="13.44"/>
      <rect class="cls-96" x="133.19" y="320.21" width="15.13" height="13.44"/>
      <rect class="cls-20" x="118.06" y="320.21" width="15.13" height="13.44"/>
      <rect class="cls-7" x="102.92" y="320.21" width="15.13" height="13.44"/>
      <rect class="cls-30" x="87.79" y="320.21" width="15.13" height="13.44"/>
      <polygon class="cls-44" points="87.79 320.21 87.79 333.66 84.8 333.66 72.65 326.64 72.65 320.21 87.79 320.21"/>
      <polygon class="cls-97" points="72.65 320.21 72.65 326.64 61.51 320.21 72.65 320.21"/>
      <rect class="cls-65" x="239.12" y="306.77" width="15.13" height="13.44"/>
      <rect x="223.99" y="306.77" width="15.13" height="13.44"/>
      <rect class="cls-104" x="208.86" y="306.77" width="15.13" height="13.44"/>
      <rect class="cls-103" x="193.72" y="306.77" width="15.13" height="13.44"/>
      <rect class="cls-87" x="178.59" y="306.77" width="15.13" height="13.44"/>
      <rect class="cls-98" x="163.46" y="306.77" width="15.13" height="13.44"/>
      <rect class="cls-33" x="148.32" y="306.77" width="15.13" height="13.44"/>
      <rect class="cls-96" x="133.19" y="306.77" width="15.13" height="13.44"/>
      <rect class="cls-57" x="118.06" y="306.77" width="15.13" height="13.44"/>
      <rect class="cls-71" x="102.92" y="306.77" width="15.13" height="13.44"/>
      <rect class="cls-88" x="87.79" y="306.77" width="15.13" height="13.44"/>
      <rect class="cls-12" x="72.66" y="306.77" width="15.13" height="13.44"/>
      <polygon class="cls-83" points="72.65 306.77 72.65 320.21 61.51 320.21 57.52 317.91 57.52 306.77 72.65 306.77"/>
      <path class="cls-23" d="m57.52,313.51v4.4l-5.99-3.46c1.85-.22,3.89-.55,5.99-.94Z"/>
      <rect class="cls-114" x="239.12" y="293.32" width="15.13" height="13.44"/>
      <rect class="cls-3" x="223.99" y="293.32" width="15.13" height="13.44"/>
      <rect class="cls-25" x="208.86" y="293.32" width="15.13" height="13.44"/>
      <rect class="cls-2" x="193.72" y="293.32" width="15.13" height="13.44"/>
      <rect class="cls-41" x="178.59" y="293.32" width="15.13" height="13.44"/>
      <rect class="cls-102" x="163.46" y="293.32" width="15.13" height="13.44"/>
      <rect class="cls-58" x="148.32" y="293.32" width="15.13" height="13.44"/>
      <rect class="cls-31" x="133.19" y="293.32" width="15.13" height="13.44"/>
      <rect class="cls-60" x="118.06" y="293.32" width="15.13" height="13.44"/>
      <rect class="cls-26" x="239.12" y="279.88" width="15.13" height="13.44"/>
      <rect class="cls-129" x="223.99" y="279.88" width="15.13" height="13.44"/>
      <rect class="cls-101" x="208.86" y="279.88" width="15.13" height="13.44"/>
      <rect class="cls-129" x="193.72" y="279.88" width="15.13" height="13.44"/>
      <rect class="cls-18" x="178.59" y="279.88" width="15.13" height="13.44"/>
      <rect class="cls-95" x="163.46" y="279.88" width="15.13" height="13.44"/>
      <rect class="cls-61" x="148.32" y="279.88" width="15.13" height="13.44"/>
      <rect class="cls-120" x="133.19" y="279.88" width="15.13" height="13.44"/>
      <rect class="cls-46" x="118.06" y="279.88" width="15.13" height="13.44"/>
      <rect class="cls-106" x="254.26" y="266.43" width="15.13" height="13.44"/>
      <rect class="cls-50" x="239.12" y="266.43" width="15.13" height="13.44"/>
      <rect class="cls-109" x="223.99" y="266.43" width="15.13" height="13.44"/>
      <rect class="cls-56" x="208.86" y="266.43" width="15.13" height="13.44"/>
      <rect class="cls-79" x="193.72" y="266.43" width="15.13" height="13.44"/>
      <rect class="cls-101" x="178.59" y="266.43" width="15.13" height="13.44"/>
      <rect class="cls-4" x="163.46" y="266.43" width="15.13" height="13.44"/>
      <rect class="cls-39" x="148.32" y="266.43" width="15.13" height="13.44"/>
      <rect class="cls-72" x="133.19" y="266.43" width="15.13" height="13.44"/>
      <rect class="cls-22" x="118.06" y="266.43" width="15.13" height="13.44"/>
      <rect class="cls-50" x="269.39" y="252.99" width="15.13" height="13.44"/>
      <rect class="cls-57" x="254.26" y="252.99" width="15.13" height="13.44"/>
      <rect class="cls-31" x="239.12" y="252.99" width="15.13" height="13.44"/>
      <rect class="cls-47" x="223.99" y="252.99" width="15.13" height="13.44"/>
      <rect class="cls-84" x="208.86" y="252.99" width="15.13" height="13.44"/>
      <rect class="cls-15" x="193.72" y="252.99" width="15.13" height="13.44"/>
      <rect class="cls-11" x="178.59" y="252.99" width="15.13" height="13.44"/>
      <rect class="cls-36" x="163.46" y="252.99" width="15.13" height="13.44"/>
      <rect class="cls-32" x="148.32" y="252.99" width="15.13" height="13.44"/>
      <rect class="cls-106" x="133.19" y="252.99" width="15.13" height="13.44"/>
      <rect x="118.06" y="252.99" width="15.13" height="13.44"/>
      <rect class="cls-25" x="284.52" y="239.54" width="15.13" height="13.44"/>
      <rect x="269.39" y="239.54" width="15.13" height="13.44"/>
      <rect class="cls-31" x="254.26" y="239.54" width="15.13" height="13.44"/>
      <rect class="cls-35" x="239.12" y="239.54" width="15.13" height="13.44"/>
      <rect class="cls-48" x="223.99" y="239.54" width="15.13" height="13.44"/>
      <rect class="cls-20" x="208.86" y="239.54" width="15.13" height="13.44"/>
      <rect class="cls-43" x="193.72" y="239.54" width="15.13" height="13.44"/>
      <rect class="cls-27" x="178.59" y="239.54" width="15.13" height="13.44"/>
      <rect class="cls-95" x="163.46" y="239.54" width="15.13" height="13.44"/>
      <rect class="cls-105" x="148.32" y="239.54" width="15.13" height="13.44"/>
      <rect class="cls-123" x="133.19" y="239.54" width="15.13" height="13.44"/>
      <rect class="cls-118" x="284.52" y="226.1" width="15.13" height="13.44"/>
      <rect class="cls-42" x="269.39" y="226.1" width="15.13" height="13.44"/>
      <rect class="cls-82" x="254.26" y="226.1" width="15.13" height="13.44"/>
      <rect class="cls-105" x="239.12" y="226.1" width="15.13" height="13.44"/>
      <rect class="cls-40" x="223.99" y="226.1" width="15.13" height="13.44"/>
      <rect class="cls-21" x="208.86" y="226.1" width="15.13" height="13.44"/>
      <rect class="cls-31" x="193.72" y="226.1" width="15.13" height="13.44"/>
      <rect class="cls-116" x="178.59" y="226.1" width="15.13" height="13.44"/>
      <rect class="cls-95" x="163.46" y="226.1" width="15.13" height="13.44"/>
      <rect class="cls-50" x="148.32" y="226.1" width="15.13" height="13.44"/>
      <rect class="cls-121" x="133.19" y="226.1" width="15.13" height="13.44"/>
      <rect class="cls-33" x="284.52" y="212.65" width="15.13" height="13.44"/>
      <rect class="cls-119" x="269.39" y="212.65" width="15.13" height="13.44"/>
      <rect class="cls-75" x="254.26" y="212.65" width="15.13" height="13.44"/>
      <rect class="cls-75" x="239.12" y="212.65" width="15.13" height="13.44"/>
      <rect class="cls-53" x="223.99" y="212.65" width="15.13" height="13.44"/>
      <rect class="cls-19" x="208.86" y="212.65" width="15.13" height="13.44"/>
      <rect class="cls-116" x="193.72" y="212.65" width="15.13" height="13.44"/>
      <rect class="cls-35" x="178.59" y="212.65" width="15.13" height="13.44"/>
      <rect class="cls-19" x="163.46" y="212.65" width="15.13" height="13.44"/>
      <rect class="cls-36" x="148.32" y="212.65" width="15.13" height="13.44"/>
      <rect class="cls-73" x="133.19" y="212.65" width="15.13" height="13.44"/>
      <rect class="cls-21" x="118.06" y="212.65" width="15.13" height="13.44"/>
      <rect x="284.52" y="199.21" width="15.13" height="13.44"/>
      <rect class="cls-65" x="269.39" y="199.21" width="15.13" height="13.44"/>
      <rect class="cls-4" x="254.26" y="199.21" width="15.13" height="13.44"/>
      <rect class="cls-112" x="239.12" y="199.21" width="15.13" height="13.44"/>
      <rect class="cls-70" x="223.99" y="199.21" width="15.13" height="13.44"/>
      <rect class="cls-58" x="208.86" y="199.21" width="15.13" height="13.44"/>
      <rect class="cls-44" x="193.72" y="199.21" width="15.13" height="13.44"/>
      <rect class="cls-98" x="178.59" y="199.21" width="15.13" height="13.44"/>
      <rect class="cls-113" x="163.46" y="199.21" width="15.13" height="13.44"/>
      <rect class="cls-98" x="148.32" y="199.21" width="15.13" height="13.44"/>
      <rect class="cls-126" x="133.19" y="199.21" width="15.13" height="13.44"/>
      <rect class="cls-13" x="118.06" y="199.21" width="15.13" height="13.44"/>
      <rect class="cls-49" x="102.92" y="199.21" width="15.13" height="13.44"/>
      <rect class="cls-64" x="284.52" y="185.77" width="15.13" height="13.44"/>
      <rect class="cls-37" x="269.39" y="185.77" width="15.13" height="13.44"/>
      <rect class="cls-109" x="254.26" y="185.77" width="15.13" height="13.44"/>
      <rect class="cls-30" x="239.12" y="185.77" width="15.13" height="13.44"/>
      <rect class="cls-38" x="223.99" y="185.77" width="15.13" height="13.44"/>
      <rect class="cls-1" x="208.86" y="185.77" width="15.13" height="13.44"/>
      <rect class="cls-115" x="193.72" y="185.77" width="15.13" height="13.44"/>
      <rect class="cls-66" x="178.59" y="185.77" width="15.13" height="13.44"/>
      <rect class="cls-32" x="163.46" y="185.77" width="15.13" height="13.44"/>
      <rect class="cls-91" x="148.32" y="185.77" width="15.13" height="13.44"/>
      <rect class="cls-76" x="133.19" y="185.77" width="15.13" height="13.44"/>
      <rect class="cls-2" x="118.06" y="185.77" width="15.13" height="13.44"/>
      <rect class="cls-114" x="102.92" y="185.77" width="15.13" height="13.44"/>
      <rect class="cls-107" x="284.52" y="172.32" width="15.13" height="13.44"/>
      <rect x="269.39" y="172.32" width="15.13" height="13.44"/>
      <rect class="cls-65" x="254.26" y="172.32" width="15.13" height="13.44"/>
      <rect class="cls-54" x="239.12" y="172.32" width="15.13" height="13.44"/>
      <rect class="cls-10" x="223.99" y="172.32" width="15.13" height="13.44"/>
      <rect class="cls-48" x="208.86" y="172.32" width="15.13" height="13.44"/>
      <rect class="cls-110" x="193.72" y="172.32" width="15.13" height="13.44"/>
      <rect x="178.59" y="172.32" width="15.13" height="13.44"/>
      <rect class="cls-26" x="163.46" y="172.32" width="15.13" height="13.44"/>
      <rect class="cls-56" x="148.32" y="172.32" width="15.13" height="13.44"/>
      <rect class="cls-38" x="133.19" y="172.32" width="15.13" height="13.44"/>
      <rect class="cls-18" x="118.06" y="172.32" width="15.13" height="13.44"/>
      <rect x="102.92" y="172.32" width="15.13" height="13.44"/>
      <rect x="284.52" y="158.88" width="15.13" height="13.44"/>
      <rect class="cls-92" x="269.39" y="158.88" width="15.13" height="13.44"/>
      <rect class="cls-75" x="254.26" y="158.88" width="15.13" height="13.44"/>
      <rect class="cls-113" x="239.12" y="158.88" width="15.13" height="13.44"/>
      <rect class="cls-105" x="223.99" y="158.88" width="15.13" height="13.44"/>
      <rect class="cls-24" x="208.86" y="158.88" width="15.13" height="13.44"/>
      <rect class="cls-108" x="193.72" y="158.88" width="15.13" height="13.44"/>
      <rect class="cls-96" x="178.59" y="158.88" width="15.13" height="13.44"/>
      <rect class="cls-25" x="163.46" y="158.88" width="15.13" height="13.44"/>
      <rect class="cls-55" x="148.32" y="158.88" width="15.13" height="13.44"/>
      <rect x="133.19" y="158.88" width="15.13" height="13.44"/>
      <rect class="cls-18" x="118.06" y="158.88" width="15.13" height="13.44"/>
      <rect x="299.66" y="145.43" width="15.13" height="13.44"/>
      <rect x="284.52" y="145.43" width="15.13" height="13.44"/>
      <rect class="cls-94" x="269.39" y="145.43" width="15.13" height="13.44"/>
      <rect class="cls-48" x="254.26" y="145.43" width="15.13" height="13.44"/>
      <rect class="cls-129" x="239.12" y="145.43" width="15.13" height="13.44"/>
      <rect class="cls-4" x="223.99" y="145.43" width="15.13" height="13.44"/>
      <rect class="cls-85" x="208.86" y="145.43" width="15.13" height="13.44"/>
      <rect class="cls-35" x="193.72" y="145.43" width="15.13" height="13.44"/>
      <rect x="178.59" y="145.43" width="15.13" height="13.44"/>
      <rect x="163.46" y="145.43" width="15.13" height="13.44"/>
      <rect class="cls-61" x="148.32" y="145.43" width="15.13" height="13.44"/>
      <rect class="cls-77" x="133.19" y="145.43" width="15.13" height="13.44"/>
      <rect x="299.66" y="131.99" width="15.13" height="13.44"/>
      <rect x="284.52" y="131.99" width="15.13" height="13.44"/>
      <rect x="269.39" y="131.99" width="15.13" height="13.44"/>
      <rect x="254.26" y="131.99" width="15.13" height="13.44"/>
      <rect class="cls-112" x="239.12" y="131.99" width="15.13" height="13.44"/>
      <rect class="cls-123" x="223.99" y="131.99" width="15.13" height="13.44"/>
      <rect class="cls-91" x="208.86" y="131.99" width="15.13" height="13.44"/>
      <rect class="cls-66" x="193.72" y="131.99" width="15.13" height="13.44"/>
      <rect class="cls-127" x="178.59" y="131.99" width="15.13" height="13.44"/>
      <rect class="cls-117" x="163.46" y="131.99" width="15.13" height="13.44"/>
      <rect class="cls-30" x="148.32" y="131.99" width="15.13" height="13.44"/>
      <rect class="cls-29" x="133.19" y="131.99" width="15.13" height="13.44"/>
      <rect class="cls-9" x="299.66" y="118.54" width="15.13" height="13.44"/>
      <rect class="cls-63" x="284.52" y="118.54" width="15.13" height="13.44"/>
      <rect x="269.39" y="118.54" width="15.13" height="13.44"/>
      <rect class="cls-83" x="254.26" y="118.54" width="15.13" height="13.44"/>
      <rect class="cls-99" x="239.12" y="118.54" width="15.13" height="13.44"/>
      <rect class="cls-127" x="223.99" y="118.54" width="15.13" height="13.44"/>
      <rect class="cls-124" x="208.86" y="118.54" width="15.13" height="13.44"/>
      <rect class="cls-57" x="193.72" y="118.54" width="15.13" height="13.44"/>
      <rect class="cls-103" x="178.59" y="118.54" width="15.13" height="13.44"/>
      <rect class="cls-30" x="163.46" y="118.54" width="15.13" height="13.44"/>
      <rect class="cls-89" x="148.32" y="118.54" width="15.13" height="13.44"/>
      <rect x="133.19" y="118.54" width="15.13" height="13.44"/>
      <rect x="284.52" y="105.1" width="15.13" height="13.44"/>
      <rect x="269.39" y="105.1" width="15.13" height="13.44"/>
      <rect x="254.26" y="105.1" width="15.13" height="13.44"/>
      <rect x="239.12" y="105.1" width="15.13" height="13.44"/>
      <rect class="cls-52" x="223.99" y="105.1" width="15.13" height="13.44"/>
      <rect x="208.86" y="105.1" width="15.13" height="13.44"/>
      <rect class="cls-16" x="193.72" y="105.1" width="15.13" height="13.44"/>
      <rect class="cls-53" x="178.59" y="105.1" width="15.13" height="13.44"/>
      <rect class="cls-51" x="163.46" y="105.1" width="15.13" height="13.44"/>
      <rect x="148.32" y="105.1" width="15.13" height="13.44"/>
      <rect x="133.19" y="105.1" width="15.13" height="13.44"/>
      <rect class="cls-72" x="284.52" y="91.65" width="15.13" height="13.44"/>
      <rect x="269.39" y="91.65" width="15.13" height="13.44"/>
      <rect class="cls-86" x="254.26" y="91.65" width="15.13" height="13.44"/>
      <rect x="239.12" y="91.65" width="15.13" height="13.44"/>
      <rect x="223.99" y="91.65" width="15.13" height="13.44"/>
      <rect x="208.86" y="91.65" width="15.13" height="13.44"/>
      <rect x="193.72" y="91.65" width="15.13" height="13.44"/>
      <rect x="178.59" y="91.65" width="15.13" height="13.44"/>
      <rect x="163.46" y="91.65" width="15.13" height="13.44"/>
      <rect x="148.32" y="91.65" width="15.13" height="13.44"/>
      <rect x="133.19" y="91.65" width="15.13" height="13.44"/>
      <rect class="cls-28" x="269.39" y="78.21" width="15.13" height="13.44"/>
      <rect x="254.26" y="78.21" width="15.13" height="13.44"/>
      <rect x="239.12" y="78.21" width="15.13" height="13.44"/>
      <rect x="223.99" y="78.21" width="15.13" height="13.44"/>
      <rect x="208.86" y="78.21" width="15.13" height="13.44"/>
      <rect x="193.72" y="78.21" width="15.13" height="13.44"/>
      <rect x="178.59" y="78.21" width="15.13" height="13.44"/>
      <rect x="163.46" y="78.21" width="15.13" height="13.44"/>
      <rect x="148.32" y="78.21" width="15.13" height="13.44"/>
      <rect x="254.26" y="64.77" width="15.13" height="13.44"/>
      <rect x="239.12" y="64.77" width="15.13" height="13.44"/>
      <rect x="223.99" y="64.77" width="15.13" height="13.44"/>
      <rect x="208.86" y="64.77" width="15.13" height="13.44"/>
      <rect x="193.72" y="64.77" width="15.13" height="13.44"/>
      <rect x="178.59" y="64.77" width="15.13" height="13.44"/>
      <rect x="163.46" y="64.77" width="15.13" height="13.44"/>
      <rect x="239.12" y="51.32" width="15.13" height="13.44"/>
      <rect x="223.99" y="51.32" width="15.13" height="13.44"/>
      <rect x="208.86" y="51.32" width="15.13" height="13.44"/>
      <rect x="193.72" y="51.32" width="15.13" height="13.44"/>
      <rect x="178.59" y="51.32" width="15.13" height="13.44"/>
    </g>
  </g>
</svg>