<?xml version="1.0" encoding="UTF-8"?>
<svg id="Layer_2" data-name="Layer 2" xmlns="http://www.w3.org/2000/svg" viewBox="0 0 387.45 441">
  <defs>
    <style>
      .cls-1 {
        fill: #282624;
      }

      .cls-2 {
        fill: #6e4e3e;
      }

      .cls-3 {
        fill: #492618;
      }

      .cls-4 {
        fill: #50423a;
      }

      .cls-5 {
        fill: #a0725e;
      }

      .cls-6 {
        fill: #895038;
      }

      .cls-7 {
        fill: #c18970;
      }

      .cls-8 {
        fill: #c99b84;
      }

      .cls-9 {
        fill: #c69078;
      }

      .cls-10 {
        fill: #b37e68;
      }

      .cls-11 {
        fill: #454d52;
      }

      .cls-12 {
        fill: #3d322f;
      }

      .cls-13 {
        fill: #b6876c;
      }

      .cls-14 {
        fill: #4e514a;
      }

      .cls-15 {
        fill: #59311d;
      }

      .cls-16 {
        fill: #302a28;
      }

      .cls-17 {
        fill: #a3715c;
      }

      .cls-18 {
        fill: #bd8e72;
      }

      .cls-19 {
        fill: #b28a70;
      }

      .cls-20 {
        fill: #d1a58d;
      }

      .cls-21 {
        fill: #d2a28d;
      }

      .cls-22 {
        fill: #1a181a;
      }

      .cls-23 {
        fill: #af775d;
      }

      .cls-24 {
        fill: #af7963;
      }

      .cls-25 {
        fill: #b98469;
      }

      .cls-26 {
        fill: #b98a7d;
      }

      .cls-27 {
        fill: #403b38;
      }

      .cls-28 {
        fill: #362f29;
      }

      .cls-29 {
        fill: #181615;
      }

      .cls-30 {
        fill: #644d43;
      }

      .cls-31 {
        fill: #c68f7a;
      }

      .cls-32 {
        fill: #ba846e;
      }

      .cls-33 {
        fill: #b17c65;
      }

      .cls-34 {
        fill: #be876e;
      }

      .cls-35 {
        fill: #191717;
      }

      .cls-36 {
        fill: #c18c71;
      }

      .cls-37 {
        fill: #a17861;
      }

      .cls-38 {
        fill: #9e7056;
      }

      .cls-39 {
        fill: #c4997f;
      }

      .cls-40 {
        fill: #a2775e;
      }

      .cls-41 {
        fill: #bd8d77;
      }

      .cls-42 {
        fill: #28221b;
      }

      .cls-43 {
        fill: #ac8268;
      }

      .cls-44 {
        fill: #956c58;
      }

      .cls-45 {
        fill: #af7862;
      }

      .cls-46 {
        fill: #be9176;
      }

      .cls-47 {
        fill: #be8e78;
      }

      .cls-48 {
        fill: #aa7f66;
      }

      .cls-49 {
        fill: #4c5552;
      }

      .cls-50 {
        fill: #47413f;
      }

      .cls-51 {
        fill: #a77660;
      }

      .cls-52 {
        fill: #c7997e;
      }

      .cls-53 {
        fill: #505457;
      }

      .cls-54 {
        fill: #c29781;
      }

      .cls-55 {
        fill: #2f2d2a;
      }

      .cls-56 {
        fill: #c99d80;
      }

      .cls-57 {
        fill: #474f54;
      }

      .cls-58 {
        fill: #9b6753;
      }

      .cls-59 {
        fill: #c7987e;
      }

      .cls-60 {
        fill: #475255;
      }

      .cls-61 {
        fill: #9d7054;
      }

      .cls-62 {
        fill: #ca937a;
      }

      .cls-63 {
        fill: #ab7964;
      }

      .cls-64 {
        fill: #593727;
      }

      .cls-65 {
        fill: #3b3a3c;
      }

      .cls-66 {
        fill: #cf9980;
      }

      .cls-67 {
        fill: #464342;
      }

      .cls-68 {
        fill: #946b52;
      }

      .cls-69 {
        fill: #1d1a1a;
      }

      .cls-70 {
        fill: #545f5d;
      }

      .cls-71 {
        fill: #67524b;
      }

      .cls-72 {
        fill: #7d5644;
      }

      .cls-73 {
        fill: #3f484b;
      }

      .cls-74 {
        fill: #786a64;
      }

      .cls-75 {
        fill: #181718;
      }

      .cls-76 {
        fill: #8d634f;
      }

      .cls-77 {
        fill: #a67661;
      }

      .cls-78 {
        fill: #4e392f;
      }

      .cls-79 {
        fill: #90583f;
      }

      .cls-80 {
        fill: #b1816f;
      }

      .cls-81 {
        fill: #b88a70;
      }

      .cls-82 {
        fill: #daa788;
      }

      .cls-83 {
        fill: #9b7259;
      }

      .cls-84 {
        fill: #272118;
      }

      .cls-85 {
        fill: #ad7e63;
      }

      .cls-86 {
        fill: #cd9a8b;
      }

      .cls-87 {
        fill: #5a2918;
      }

      .cls-88 {
        fill: #7a5040;
      }

      .cls-89 {
        fill: #ac745b;
      }

      .cls-90 {
        fill: #c2a08e;
      }

      .cls-91 {
        fill: #cc9e85;
      }

      .cls-92 {
        fill: #1b1818;
      }

      .cls-93 {
        fill: #d0a58d;
      }

      .cls-94 {
        fill: #b08569;
      }

      .cls-95 {
        fill: #864b34;
      }

      .cls-96 {
        fill: #dfa68f;
      }

      .cls-97 {
        fill: #be967f;
      }

      .cls-98 {
        fill: #b98f76;
      }

      .cls-99 {
        fill: #aa6f5c;
      }

      .cls-100 {
        fill: #502d18;
      }

      .cls-101 {
        fill: #ac8165;
      }

      .cls-102 {
        fill: #8e5f4c;
      }

      .cls-103 {
        fill: #d3a790;
      }

      .cls-104 {
        fill: #a17258;
      }

      .cls-105 {
        fill: #8e654e;
      }

      .cls-106 {
        fill: #c69b81;
      }

      .cls-107 {
        fill: #c49a7e;
      }

      .cls-108 {
        fill: #c68e76;
      }

      .cls-109 {
        fill: #cca18c;
      }

      .cls-110 {
        fill: #452c22;
      }

      .cls-111 {
        fill: #4f5756;
      }

      .cls-112 {
        fill: #c5977b;
      }

      .cls-113 {
        fill: #b98a72;
      }

      .cls-114 {
        fill: #b78a75;
      }

      .cls-115 {
        fill: #493b31;
      }

      .cls-116 {
        fill: #c3987e;
      }

      .cls-117 {
        fill: #33312f;
      }

      .cls-118 {
        fill: #291a16;
      }

      .cls-119 {
        fill: #774a34;
      }

      .cls-120 {
        fill: #a37966;
      }

      .cls-121 {
        fill: #ba8869;
      }

      .cls-122 {
        fill: #724930;
      }

      .cls-123 {
        fill: #997058;
      }

      .cls-124 {
        fill: #be987f;
      }

      .cls-125 {
        fill: #76493d;
      }

      .cls-126 {
        fill: #2c2119;
      }

      .cls-127 {
        fill: #494744;
      }

      .cls-128 {
        fill: #c18974;
      }

      .cls-129 {
        fill: #d5a282;
      }

      .cls-130 {
        fill: #cc977b;
      }

      .cls-131 {
        fill: #1e1717;
      }

      .cls-132 {
        fill: #393331;
      }

      .cls-133 {
        fill: #6d4528;
      }

      .cls-134 {
        fill: #ad8367;
      }

      .cls-135 {
        fill: #151818;
      }

      .cls-136 {
        fill: #a97e62;
      }

      .cls-137 {
        fill: #b98c71;
      }

      .cls-138 {
        fill: #cba085;
      }

      .cls-139 {
        fill: #794f3d;
      }

      .cls-140 {
        fill: #d5a991;
      }

      .cls-141 {
        fill: #785345;
      }

      .cls-142 {
        fill: #c6a28f;
      }

      .cls-143 {
        fill: #b78776;
      }

      .cls-144 {
        fill: #ad8264;
      }

      .cls-145 {
        fill: #464d4d;
      }

      .cls-146 {
        fill: #b0765f;
      }

      .cls-147 {
        fill: #c29380;
      }

      .cls-148 {
        fill: #955e49;
      }

      .cls-149 {
        fill: #2b2522;
      }

      .cls-150 {
        fill: #8b553c;
      }

      .cls-151 {
        fill: #565f5d;
      }

      .cls-152 {
        fill: #c28f75;
      }

      .cls-153 {
        fill: #5e3120;
      }

      .cls-154 {
        fill: #555d5c;
      }

      .cls-155 {
        fill: #ac7860;
      }

      .cls-156 {
        fill: #342e28;
      }

      .cls-157 {
        fill: #2f1b12;
      }

      .cls-158 {
        fill: #866258;
      }

      .cls-159 {
        fill: #b17861;
      }

      .cls-160 {
        fill: #4d5554;
      }

      .cls-161 {
        fill: #b7826b;
      }

      .cls-162 {
        fill: #9f745d;
      }

      .cls-163 {
        fill: #e0b0a0;
      }

      .cls-164 {
        fill: #3f302b;
      }

      .cls-165 {
        fill: #4c5459;
      }

      .cls-166 {
        fill: #9b644b;
      }

      .cls-167 {
        fill: #1c1d1d;
      }

      .cls-168 {
        fill: #874e36;
      }

      .cls-169 {
        fill: #525b59;
      }

      .cls-170 {
        fill: #dea38d;
      }

      .cls-171 {
        fill: #171617;
      }

      .cls-172 {
        fill: #7a573f;
      }

      .cls-173 {
        fill: #575f5f;
      }

      .cls-174 {
        fill: #222322;
      }

      .cls-175 {
        fill: #d4a58f;
      }

      .cls-176 {
        fill: #2c2622;
      }

      .cls-177 {
        fill: #c0957c;
      }

      .cls-178 {
        fill: #7f5b4a;
      }

      .cls-179 {
        fill: #1b1716;
      }

      .cls-180 {
        fill: #67422e;
      }

      .cls-181 {
        fill: #976b53;
      }

      .cls-182 {
        fill: #d7a187;
      }

      .cls-183 {
        fill: #ba8469;
      }

      .cls-184 {
        fill: #b2816f;
      }

      .cls-185 {
        fill: #c49583;
      }

      .cls-186 {
        fill: #3b2e27;
      }

      .cls-187 {
        fill: #ac836a;
      }

      .cls-188 {
        fill: #e1b89f;
      }

      .cls-189 {
        fill: #8b5e48;
      }

      .cls-190 {
        fill: #ca947b;
      }

      .cls-191 {
        fill: #cda088;
      }

      .cls-192 {
        fill: #5c6462;
      }

      .cls-193 {
        fill: #8c5c4a;
      }

      .cls-194 {
        fill: #af7d66;
      }

      .cls-195 {
        fill: #2a272a;
      }

      .cls-196 {
        fill: #d5a992;
      }

      .cls-197 {
        fill: #5c473d;
      }

      .cls-198 {
        fill: #502e1e;
      }

      .cls-199 {
        fill: #966b4e;
      }

      .cls-200 {
        fill: #353a3e;
      }

      .cls-201 {
        fill: #724c40;
      }

      .cls-202 {
        fill: #a16650;
      }

      .cls-203 {
        fill: #87614e;
      }

      .cls-204 {
        fill: #22201f;
      }

      .cls-205 {
        fill: #c79d7f;
      }

      .cls-206 {
        fill: #e2b59e;
      }

      .cls-207 {
        fill: #996955;
      }

      .cls-208 {
        fill: #2d2825;
      }

      .cls-209 {
        fill: #5c6062;
      }

      .cls-210 {
        fill: #281e18;
      }

      .cls-211 {
        fill: #b17b65;
      }

      .cls-212 {
        fill: #17171a;
      }

      .cls-213 {
        fill: #c08f75;
      }

      .cls-214 {
        fill: #c79c84;
      }

      .cls-215 {
        fill: #ce977e;
      }

      .cls-216 {
        fill: #201919;
      }

      .cls-217 {
        fill: #191718;
      }

      .cls-218 {
        fill: #c59780;
      }

      .cls-219 {
        fill: #b7896e;
      }

      .cls-220 {
        fill: #1c1b19;
      }

      .cls-221 {
        fill: #644438;
      }

      .cls-222 {
        fill: #c89a83;
      }

      .cls-223 {
        fill: #795638;
      }

      .cls-224 {
        fill: #935b42;
      }

      .cls-225 {
        fill: #a06d57;
      }

      .cls-226 {
        fill: #b97f68;
      }

      .cls-227 {
        fill: #1f1f1f;
      }

      .cls-228 {
        fill: #52443b;
      }

      .cls-229 {
        fill: #c48f74;
      }

      .cls-230 {
        fill: #d3a48e;
      }

      .cls-231 {
        fill: #5b5c5a;
      }

      .cls-232 {
        fill: #9c7262;
      }

      .cls-233 {
        fill: #dba38e;
      }

      .cls-234 {
        fill: #99745d;
      }

      .cls-235 {
        fill: #151417;
      }

      .cls-236 {
        fill: #79503b;
      }

      .cls-237 {
        fill: #a6735f;
      }

      .cls-238 {
        fill: #814730;
      }

      .cls-239 {
        fill: #946250;
      }

      .cls-240 {
        fill: #895943;
      }

      .cls-241 {
        fill: #565b5a;
      }

      .cls-242 {
        fill: #b88d74;
      }

      .cls-243 {
        fill: #a66f58;
      }

      .cls-244 {
        fill: #b7816b;
      }

      .cls-245 {
        fill: #b08063;
      }

      .cls-246 {
        fill: #784b37;
      }

      .cls-247 {
        fill: #c18c76;
      }

      .cls-248 {
        fill: #b27961;
      }

      .cls-249 {
        fill: #bf947b;
      }

      .cls-250 {
        fill: #171816;
      }

      .cls-251 {
        fill: #d7a691;
      }

      .cls-252 {
        fill: #9b6853;
      }

      .cls-253 {
        fill: #825a46;
      }

      .cls-254 {
        fill: #2b2420;
      }

      .cls-255 {
        fill: #1b1d17;
      }

      .cls-256 {
        fill: #424b4b;
      }

      .cls-257 {
        fill: #b67e66;
      }

      .cls-258 {
        fill: #161516;
      }

      .cls-259 {
        fill: #bc8a7a;
      }

      .cls-260 {
        fill: #b28276;
      }

      .cls-261 {
        fill: #845c42;
      }

      .cls-262 {
        fill: #b27c66;
      }

      .cls-263 {
        fill: #c18c72;
      }

      .cls-264 {
        fill: #c4987d;
      }

      .cls-265 {
        fill: #d3a78f;
      }

      .cls-266 {
        fill: #c99079;
      }

      .cls-267 {
        fill: #161719;
      }

      .cls-268 {
        fill: #b5856a;
      }

      .cls-269 {
        fill: #2d251e;
      }

      .cls-270 {
        fill: #2b201b;
      }

      .cls-271 {
        fill: #7a5538;
      }

      .cls-272 {
        fill: #bf9276;
      }

      .cls-273 {
        fill: #a26f5a;
      }
    </style>
  </defs>
  <g id="Layer_1-2" data-name="Layer 1">
    <path d="m193.72,441c-3.56,0-7.13-.92-10.32-2.76L10.32,338.3c-6.39-3.69-10.32-10.5-10.32-17.87V120.57c0-7.37,3.93-14.19,10.32-17.87L183.41,2.76c6.38-3.69,14.25-3.69,20.64,0l173.09,99.93c6.39,3.69,10.32,10.5,10.32,17.87v199.86c0,7.37-3.93,14.19-10.32,17.87l-173.09,99.93c-3.19,1.84-6.76,2.76-10.32,2.76ZM41.27,308.52l152.45,88.02,152.45-88.02v-176.04L193.72,44.46,41.27,132.48v176.04Z"/>
    <g>
      <polygon class="cls-241" points="209.71 387.44 209.08 387.8 209.08 387.44 209.71 387.44"/>
      <polygon class="cls-97" points="209.08 387.44 209.08 387.8 193.95 396.54 193.95 387.44 209.08 387.44"/>
      <polygon class="cls-8" points="193.95 387.44 193.95 396.54 178.82 387.81 178.82 387.44 193.95 387.44"/>
      <polygon class="cls-90" points="178.82 387.44 178.82 387.81 178.19 387.44 178.82 387.44"/>
      <polygon class="cls-74" points="233.01 373.99 224.22 379.06 224.22 373.99 233.01 373.99"/>
      <polygon class="cls-242" points="224.22 373.99 224.22 379.06 209.71 387.44 209.08 387.44 209.08 373.99 224.22 373.99"/>
      <rect class="cls-39" x="193.95" y="373.99" width="15.13" height="13.44"/>
      <rect class="cls-106" x="178.82" y="373.99" width="15.13" height="13.44"/>
      <polygon class="cls-196" points="178.82 373.99 178.82 387.44 178.19 387.44 163.68 379.06 163.68 373.99 178.82 373.99"/>
      <polygon class="cls-103" points="163.68 373.99 163.68 379.06 154.89 373.99 163.68 373.99"/>
      <polygon class="cls-111" points="256.29 360.55 254.48 361.59 254.48 360.55 256.29 360.55"/>
      <polygon class="cls-49" points="254.48 360.55 254.48 361.59 239.35 370.33 239.35 360.55 254.48 360.55"/>
      <polygon class="cls-37" points="239.35 360.55 239.35 370.33 233.01 373.99 224.22 373.99 224.22 360.55 239.35 360.55"/>
      <rect class="cls-98" x="209.09" y="360.54" width="15.13" height="13.44"/>
      <rect class="cls-177" x="193.95" y="360.54" width="15.13" height="13.44"/>
      <rect class="cls-93" x="178.82" y="360.54" width="15.13" height="13.44"/>
      <rect class="cls-265" x="163.69" y="360.54" width="15.13" height="13.44"/>
      <polygon class="cls-140" points="163.68 360.55 163.68 373.99 154.89 373.99 148.55 370.33 148.55 360.55 163.68 360.55"/>
      <polygon class="cls-109" points="148.55 360.55 148.55 370.33 133.42 361.59 133.42 360.55 148.55 360.55"/>
      <polygon class="cls-70" points="133.42 360.55 133.42 361.59 131.61 360.55 133.42 360.55"/>
      <polygon class="cls-169" points="279.58 347.1 269.62 352.85 269.62 347.1 279.58 347.1"/>
      <polygon class="cls-145" points="269.62 347.1 269.62 352.85 256.29 360.55 254.48 360.55 254.48 347.1 269.62 347.1"/>
      <rect class="cls-53" x="239.35" y="347.1" width="15.13" height="13.44"/>
      <rect class="cls-187" x="224.22" y="347.1" width="15.13" height="13.44"/>
      <rect class="cls-249" x="209.09" y="347.1" width="15.13" height="13.44"/>
      <rect class="cls-48" x="193.95" y="347.1" width="15.13" height="13.44"/>
      <rect class="cls-214" x="178.82" y="347.1" width="15.13" height="13.44"/>
      <rect class="cls-20" x="163.69" y="347.1" width="15.13" height="13.44"/>
      <rect class="cls-175" x="148.55" y="347.1" width="15.13" height="13.44"/>
      <rect class="cls-191" x="133.42" y="347.1" width="15.13" height="13.44"/>
      <polygon class="cls-124" points="133.42 347.1 133.42 360.55 131.61 360.55 118.28 352.85 118.28 347.1 133.42 347.1"/>
      <polygon class="cls-192" points="118.28 347.1 118.28 352.85 108.31 347.1 118.28 347.1"/>
      <path class="cls-160" d="m291.31,340.33l-6.56,3.79v-6.33c.49.17.99.34,1.5.51,1.57.53,3.29,1.22,5.06,2.03Z"/>
      <polygon class="cls-154" points="284.75 333.66 284.75 344.12 279.58 347.1 269.62 347.1 269.62 333.66 284.75 333.66"/>
      <rect class="cls-256" x="254.49" y="333.65" width="15.13" height="13.44"/>
      <rect class="cls-14" x="239.35" y="333.65" width="15.13" height="13.44"/>
      <rect class="cls-144" x="224.22" y="333.65" width="15.13" height="13.44"/>
      <rect class="cls-40" x="209.09" y="333.65" width="15.13" height="13.44"/>
      <rect class="cls-181" x="193.95" y="333.65" width="15.13" height="13.44"/>
      <rect class="cls-264" x="178.82" y="333.65" width="15.13" height="13.44"/>
      <rect class="cls-218" x="163.69" y="333.65" width="15.13" height="13.44"/>
      <rect class="cls-91" x="148.55" y="333.65" width="15.13" height="13.44"/>
      <rect class="cls-56" x="133.42" y="333.65" width="15.13" height="13.44"/>
      <rect class="cls-47" x="118.29" y="333.65" width="15.13" height="13.44"/>
      <polygon class="cls-231" points="118.28 333.66 118.28 347.1 108.31 347.1 103.15 344.12 103.15 333.66 118.28 333.66"/>
      <polygon class="cls-151" points="103.15 333.66 103.15 344.12 88.02 335.38 88.02 333.66 103.15 333.66"/>
      <polygon class="cls-60" points="88.02 333.66 88.02 335.38 85.03 333.66 88.02 333.66"/>
      <rect class="cls-30" x="239.35" y="320.21" width="15.13" height="13.44"/>
      <rect class="cls-19" x="224.22" y="320.21" width="15.13" height="13.44"/>
      <rect class="cls-68" x="209.09" y="320.21" width="15.13" height="13.44"/>
      <rect class="cls-116" x="193.95" y="320.21" width="15.13" height="13.44"/>
      <rect class="cls-138" x="178.82" y="320.21" width="15.13" height="13.44"/>
      <rect class="cls-52" x="163.69" y="320.21" width="15.13" height="13.44"/>
      <rect class="cls-272" x="148.55" y="320.21" width="15.13" height="13.44"/>
      <rect class="cls-112" x="133.42" y="320.21" width="15.13" height="13.44"/>
      <rect class="cls-268" x="118.29" y="320.21" width="15.13" height="13.44"/>
      <rect class="cls-197" x="103.15" y="320.21" width="15.13" height="13.44"/>
      <rect class="cls-173" x="88.02" y="320.21" width="15.13" height="13.44"/>
      <polygon class="cls-11" points="88.02 320.21 88.02 333.66 85.03 333.66 72.88 326.64 72.88 320.21 88.02 320.21"/>
      <polygon class="cls-73" points="72.88 320.21 72.88 326.64 61.74 320.21 72.88 320.21"/>
      <rect class="cls-234" x="239.35" y="306.77" width="15.13" height="13.44"/>
      <rect class="cls-100" x="224.22" y="306.77" width="15.13" height="13.44"/>
      <rect class="cls-261" x="209.09" y="306.77" width="15.13" height="13.44"/>
      <rect class="cls-83" x="193.95" y="306.77" width="15.13" height="13.44"/>
      <rect class="cls-133" x="178.82" y="306.77" width="15.13" height="13.44"/>
      <rect class="cls-46" x="163.69" y="306.77" width="15.13" height="13.44"/>
      <rect class="cls-219" x="148.55" y="306.77" width="15.13" height="13.44"/>
      <rect class="cls-112" x="133.42" y="306.77" width="15.13" height="13.44"/>
      <rect class="cls-85" x="118.29" y="306.77" width="15.13" height="13.44"/>
      <rect class="cls-71" x="103.15" y="306.77" width="15.13" height="13.44"/>
      <rect class="cls-209" x="88.02" y="306.77" width="15.13" height="13.44"/>
      <rect class="cls-57" x="72.89" y="306.77" width="15.13" height="13.44"/>
      <polygon class="cls-165" points="72.88 306.77 72.88 320.21 61.74 320.21 57.75 317.91 57.75 306.77 72.88 306.77"/>
      <path class="cls-200" d="m57.75,313.51v4.4l-5.99-3.46c1.85-.22,3.89-.55,5.99-.94Z"/>
      <rect class="cls-172" x="239.35" y="293.32" width="15.13" height="13.44"/>
      <rect class="cls-43" x="224.22" y="293.32" width="15.13" height="13.44"/>
      <rect class="cls-134" x="209.09" y="293.32" width="15.13" height="13.44"/>
      <rect class="cls-205" x="193.95" y="293.32" width="15.13" height="13.44"/>
      <rect class="cls-107" x="178.82" y="293.32" width="15.13" height="13.44"/>
      <rect class="cls-271" x="163.69" y="293.32" width="15.13" height="13.44"/>
      <rect class="cls-101" x="148.55" y="293.32" width="15.13" height="13.44"/>
      <rect class="cls-213" x="133.42" y="293.32" width="15.13" height="13.44"/>
      <rect class="cls-104" x="118.29" y="293.32" width="15.13" height="13.44"/>
      <rect class="cls-199" x="239.35" y="279.88" width="15.13" height="13.44"/>
      <rect class="cls-81" x="224.22" y="279.88" width="15.13" height="13.44"/>
      <rect class="cls-52" x="209.09" y="279.88" width="15.13" height="13.44"/>
      <rect class="cls-81" x="193.95" y="279.88" width="15.13" height="13.44"/>
      <rect class="cls-137" x="178.82" y="279.88" width="15.13" height="13.44"/>
      <rect class="cls-94" x="163.69" y="279.88" width="15.13" height="13.44"/>
      <rect class="cls-223" x="148.55" y="279.88" width="15.13" height="13.44"/>
      <rect class="cls-13" x="133.42" y="279.88" width="15.13" height="13.44"/>
      <rect class="cls-38" x="118.29" y="279.88" width="15.13" height="13.44"/>
      <rect class="cls-61" x="254.49" y="266.43" width="15.13" height="13.44"/>
      <rect class="cls-129" x="239.35" y="266.43" width="15.13" height="13.44"/>
      <rect class="cls-79" x="224.22" y="266.43" width="15.13" height="13.44"/>
      <rect class="cls-99" x="209.09" y="266.43" width="15.13" height="13.44"/>
      <rect class="cls-31" x="193.95" y="266.43" width="15.13" height="13.44"/>
      <rect class="cls-59" x="178.82" y="266.43" width="15.13" height="13.44"/>
      <rect class="cls-18" x="163.69" y="266.43" width="15.13" height="13.44"/>
      <rect class="cls-245" x="148.55" y="266.43" width="15.13" height="13.44"/>
      <rect class="cls-122" x="133.42" y="266.43" width="15.13" height="13.44"/>
      <rect class="cls-2" x="118.29" y="266.43" width="15.13" height="13.44"/>
      <rect class="cls-142" x="269.62" y="252.99" width="15.13" height="13.44"/>
      <rect class="cls-194" x="254.49" y="252.99" width="15.13" height="13.44"/>
      <rect class="cls-229" x="239.35" y="252.99" width="15.13" height="13.44"/>
      <rect class="cls-238" x="224.22" y="252.99" width="15.13" height="13.44"/>
      <rect class="cls-188" x="209.09" y="252.99" width="15.13" height="13.44"/>
      <rect class="cls-206" x="193.95" y="252.99" width="15.13" height="13.44"/>
      <rect class="cls-224" x="178.82" y="252.99" width="15.13" height="13.44"/>
      <rect class="cls-36" x="163.69" y="252.99" width="15.13" height="13.44"/>
      <rect class="cls-121" x="148.55" y="252.99" width="15.13" height="13.44"/>
      <rect class="cls-123" x="133.42" y="252.99" width="15.13" height="13.44"/>
      <rect class="cls-118" x="118.29" y="252.99" width="15.13" height="13.44"/>
      <rect class="cls-184" x="284.75" y="239.54" width="15.13" height="13.44"/>
      <rect class="cls-153" x="269.62" y="239.54" width="15.13" height="13.44"/>
      <rect class="cls-152" x="254.49" y="239.54" width="15.13" height="13.44"/>
      <rect class="cls-130" x="239.35" y="239.54" width="15.13" height="13.44"/>
      <rect class="cls-159" x="224.22" y="239.54" width="15.13" height="13.44"/>
      <rect class="cls-32" x="209.09" y="239.54" width="15.13" height="13.44"/>
      <rect class="cls-211" x="193.95" y="239.54" width="15.13" height="13.44"/>
      <rect class="cls-150" x="178.82" y="239.54" width="15.13" height="13.44"/>
      <rect class="cls-25" x="163.69" y="239.54" width="15.13" height="13.44"/>
      <rect class="cls-82" x="148.55" y="239.54" width="15.13" height="13.44"/>
      <rect class="cls-136" x="133.42" y="239.54" width="15.13" height="13.44"/>
      <rect class="cls-163" x="284.75" y="226.1" width="15.13" height="13.44"/>
      <rect class="cls-119" x="269.62" y="226.1" width="15.13" height="13.44"/>
      <rect class="cls-190" x="254.49" y="226.1" width="15.13" height="13.44"/>
      <rect class="cls-96" x="239.35" y="226.1" width="15.13" height="13.44"/>
      <rect class="cls-89" x="224.22" y="226.1" width="15.13" height="13.44"/>
      <rect class="cls-62" x="209.09" y="226.1" width="15.13" height="13.44"/>
      <rect class="cls-108" x="193.95" y="226.1" width="15.13" height="13.44"/>
      <rect class="cls-23" x="178.82" y="226.1" width="15.13" height="13.44"/>
      <rect class="cls-183" x="163.69" y="226.1" width="15.13" height="13.44"/>
      <rect class="cls-182" x="148.55" y="226.1" width="15.13" height="13.44"/>
      <rect class="cls-162" x="133.42" y="226.1" width="15.13" height="13.44"/>
      <rect class="cls-143" x="284.75" y="212.65" width="15.13" height="13.44"/>
      <rect class="cls-189" x="269.62" y="212.65" width="15.13" height="13.44"/>
      <rect class="cls-128" x="254.49" y="212.65" width="15.13" height="13.44"/>
      <rect class="cls-7" x="239.35" y="212.65" width="15.13" height="13.44"/>
      <rect class="cls-202" x="224.22" y="212.65" width="15.13" height="13.44"/>
      <rect class="cls-170" x="209.09" y="212.65" width="15.13" height="13.44"/>
      <rect class="cls-146" x="193.95" y="212.65" width="15.13" height="13.44"/>
      <rect class="cls-215" x="178.82" y="212.65" width="15.13" height="13.44"/>
      <rect class="cls-233" x="163.69" y="212.65" width="15.13" height="13.44"/>
      <rect class="cls-263" x="148.55" y="212.65" width="15.13" height="13.44"/>
      <rect class="cls-105" x="133.42" y="212.65" width="15.13" height="13.44"/>
      <rect class="cls-147" x="118.29" y="212.65" width="15.13" height="13.44"/>
      <rect class="cls-110" x="284.75" y="199.21" width="15.13" height="13.44"/>
      <rect class="cls-5" x="269.62" y="199.21" width="15.13" height="13.44"/>
      <rect class="cls-247" x="254.49" y="199.21" width="15.13" height="13.44"/>
      <rect class="cls-257" x="239.35" y="199.21" width="15.13" height="13.44"/>
      <rect class="cls-6" x="224.22" y="199.21" width="15.13" height="13.44"/>
      <rect class="cls-226" x="209.09" y="199.21" width="15.13" height="13.44"/>
      <rect class="cls-95" x="193.95" y="199.21" width="15.13" height="13.44"/>
      <rect class="cls-266" x="178.82" y="199.21" width="15.13" height="13.44"/>
      <rect class="cls-66" x="163.69" y="199.21" width="15.13" height="13.44"/>
      <rect class="cls-9" x="148.55" y="199.21" width="15.13" height="13.44"/>
      <rect class="cls-236" x="133.42" y="199.21" width="15.13" height="13.44"/>
      <rect class="cls-207" x="118.29" y="199.21" width="15.13" height="13.44"/>
      <rect class="cls-158" x="103.15" y="199.21" width="15.13" height="13.44"/>
      <rect class="cls-115" x="284.75" y="185.77" width="15.13" height="13.44"/>
      <rect class="cls-120" x="269.62" y="185.77" width="15.13" height="13.44"/>
      <rect class="cls-240" x="254.49" y="185.77" width="15.13" height="13.44"/>
      <rect class="cls-148" x="239.35" y="185.77" width="15.13" height="13.44"/>
      <rect class="cls-168" x="224.22" y="185.77" width="15.13" height="13.44"/>
      <rect class="cls-166" x="209.09" y="185.77" width="15.13" height="13.44"/>
      <rect class="cls-243" x="193.95" y="185.77" width="15.13" height="13.44"/>
      <rect class="cls-248" x="178.82" y="185.77" width="15.13" height="13.44"/>
      <rect class="cls-34" x="163.69" y="185.77" width="15.13" height="13.44"/>
      <rect class="cls-244" x="148.55" y="185.77" width="15.13" height="13.44"/>
      <rect class="cls-139" x="133.42" y="185.77" width="15.13" height="13.44"/>
      <rect class="cls-86" x="118.29" y="185.77" width="15.13" height="13.44"/>
      <rect class="cls-260" x="103.15" y="185.77" width="15.13" height="13.44"/>
      <rect class="cls-228" x="284.75" y="172.32" width="15.13" height="13.44"/>
      <rect class="cls-157" x="269.62" y="172.32" width="15.13" height="13.44"/>
      <rect class="cls-232" x="254.49" y="172.32" width="15.13" height="13.44"/>
      <rect class="cls-246" x="239.35" y="172.32" width="15.13" height="13.44"/>
      <rect class="cls-155" x="224.22" y="172.32" width="15.13" height="13.44"/>
      <rect class="cls-45" x="209.09" y="172.32" width="15.13" height="13.44"/>
      <rect class="cls-225" x="193.95" y="172.32" width="15.13" height="13.44"/>
      <rect class="cls-87" x="178.82" y="172.32" width="15.13" height="13.44"/>
      <rect class="cls-252" x="163.69" y="172.32" width="15.13" height="13.44"/>
      <rect class="cls-17" x="148.55" y="172.32" width="15.13" height="13.44"/>
      <rect class="cls-88" x="133.42" y="172.32" width="15.13" height="13.44"/>
      <rect class="cls-259" x="118.29" y="172.32" width="15.13" height="13.44"/>
      <rect class="cls-270" x="103.15" y="172.32" width="15.13" height="13.44"/>
      <rect class="cls-216" x="284.75" y="158.88" width="15.13" height="13.44"/>
      <rect class="cls-178" x="269.62" y="158.88" width="15.13" height="13.44"/>
      <rect class="cls-114" x="254.49" y="158.88" width="15.13" height="13.44"/>
      <rect class="cls-222" x="239.35" y="158.88" width="15.13" height="13.44"/>
      <rect class="cls-251" x="224.22" y="158.88" width="15.13" height="13.44"/>
      <rect class="cls-230" x="209.09" y="158.88" width="15.13" height="13.44"/>
      <rect class="cls-180" x="193.95" y="158.88" width="15.13" height="13.44"/>
      <rect class="cls-185" x="178.82" y="158.88" width="15.13" height="13.44"/>
      <rect class="cls-80" x="163.69" y="158.88" width="15.13" height="13.44"/>
      <rect class="cls-76" x="148.55" y="158.88" width="15.13" height="13.44"/>
      <rect class="cls-64" x="133.42" y="158.88" width="15.13" height="13.44"/>
      <rect class="cls-26" x="118.29" y="158.88" width="15.13" height="13.44"/>
      <rect class="cls-212" x="299.89" y="145.43" width="15.13" height="13.44"/>
      <rect class="cls-179" x="284.75" y="145.43" width="15.13" height="13.44"/>
      <rect class="cls-253" x="269.62" y="145.43" width="15.13" height="13.44"/>
      <rect class="cls-63" x="254.49" y="145.43" width="15.13" height="13.44"/>
      <rect class="cls-113" x="239.35" y="145.43" width="15.13" height="13.44"/>
      <rect class="cls-41" x="224.22" y="145.43" width="15.13" height="13.44"/>
      <rect class="cls-21" x="209.09" y="145.43" width="15.13" height="13.44"/>
      <rect class="cls-54" x="193.95" y="145.43" width="15.13" height="13.44"/>
      <rect class="cls-198" x="178.82" y="145.43" width="15.13" height="13.44"/>
      <rect class="cls-3" x="163.69" y="145.43" width="15.13" height="13.44"/>
      <rect class="cls-141" x="148.55" y="145.43" width="15.13" height="13.44"/>
      <rect class="cls-221" x="133.42" y="145.43" width="15.13" height="13.44"/>
      <rect class="cls-195" x="299.89" y="131.99" width="15.13" height="13.44"/>
      <rect class="cls-131" x="284.75" y="131.99" width="15.13" height="13.44"/>
      <rect class="cls-126" x="269.62" y="131.99" width="15.13" height="13.44"/>
      <rect class="cls-15" x="254.49" y="131.99" width="15.13" height="13.44"/>
      <rect class="cls-10" x="239.35" y="131.99" width="15.13" height="13.44"/>
      <rect class="cls-33" x="224.22" y="131.99" width="15.13" height="13.44"/>
      <rect class="cls-161" x="209.09" y="131.99" width="15.13" height="13.44"/>
      <rect class="cls-24" x="193.95" y="131.99" width="15.13" height="13.44"/>
      <rect class="cls-51" x="178.82" y="131.99" width="15.13" height="13.44"/>
      <rect class="cls-193" x="163.69" y="131.99" width="15.13" height="13.44"/>
      <rect class="cls-203" x="148.55" y="131.99" width="15.13" height="13.44"/>
      <rect class="cls-78" x="133.42" y="131.99" width="15.13" height="13.44"/>
      <rect class="cls-65" x="299.89" y="118.54" width="15.13" height="13.44"/>
      <rect class="cls-27" x="284.75" y="118.54" width="15.13" height="13.44"/>
      <rect class="cls-210" x="269.62" y="118.54" width="15.13" height="13.44"/>
      <rect class="cls-72" x="254.49" y="118.54" width="15.13" height="13.44"/>
      <rect class="cls-44" x="239.35" y="118.54" width="15.13" height="13.44"/>
      <rect class="cls-77" x="224.22" y="118.54" width="15.13" height="13.44"/>
      <rect class="cls-239" x="209.09" y="118.54" width="15.13" height="13.44"/>
      <rect class="cls-262" x="193.95" y="118.54" width="15.13" height="13.44"/>
      <rect class="cls-273" x="178.82" y="118.54" width="15.13" height="13.44"/>
      <rect class="cls-102" x="163.69" y="118.54" width="15.13" height="13.44"/>
      <rect class="cls-201" x="148.55" y="118.54" width="15.13" height="13.44"/>
      <rect class="cls-149" x="133.42" y="118.54" width="15.13" height="13.44"/>
      <rect class="cls-16" x="284.75" y="105.1" width="15.13" height="13.44"/>
      <rect class="cls-28" x="269.62" y="105.1" width="15.13" height="13.44"/>
      <rect class="cls-176" x="254.49" y="105.1" width="15.13" height="13.44"/>
      <rect class="cls-156" x="239.35" y="105.1" width="15.13" height="13.44"/>
      <rect class="cls-4" x="224.22" y="105.1" width="15.13" height="13.44"/>
      <rect class="cls-186" x="209.09" y="105.1" width="15.13" height="13.44"/>
      <rect class="cls-237" x="193.95" y="105.1" width="15.13" height="13.44"/>
      <rect class="cls-58" x="178.82" y="105.1" width="15.13" height="13.44"/>
      <rect class="cls-125" x="163.69" y="105.1" width="15.13" height="13.44"/>
      <rect class="cls-84" x="148.55" y="105.1" width="15.13" height="13.44"/>
      <rect class="cls-55" x="133.42" y="105.1" width="15.13" height="13.44"/>
      <rect class="cls-127" x="284.75" y="91.65" width="15.13" height="13.44"/>
      <rect class="cls-132" x="269.62" y="91.65" width="15.13" height="13.44"/>
      <rect class="cls-50" x="254.49" y="91.65" width="15.13" height="13.44"/>
      <rect class="cls-208" x="239.35" y="91.65" width="15.13" height="13.44"/>
      <rect class="cls-269" x="224.22" y="91.65" width="15.13" height="13.44"/>
      <rect class="cls-42" x="209.09" y="91.65" width="15.13" height="13.44"/>
      <rect class="cls-12" x="193.95" y="91.65" width="15.13" height="13.44"/>
      <rect class="cls-164" x="178.82" y="91.65" width="15.13" height="13.44"/>
      <rect class="cls-254" x="163.69" y="91.65" width="15.13" height="13.44"/>
      <rect class="cls-255" x="148.55" y="91.65" width="15.13" height="13.44"/>
      <rect class="cls-92" x="133.42" y="91.65" width="15.13" height="13.44"/>
      <rect class="cls-67" x="269.62" y="78.21" width="15.13" height="13.44"/>
      <rect class="cls-220" x="254.49" y="78.21" width="15.13" height="13.44"/>
      <rect class="cls-1" x="239.35" y="78.21" width="15.13" height="13.44"/>
      <rect class="cls-29" x="224.22" y="78.21" width="15.13" height="13.44"/>
      <rect class="cls-69" x="209.09" y="78.21" width="15.13" height="13.44"/>
      <rect class="cls-35" x="193.95" y="78.21" width="15.13" height="13.44"/>
      <rect class="cls-217" x="178.82" y="78.21" width="15.13" height="13.44"/>
      <rect class="cls-171" x="163.69" y="78.21" width="15.13" height="13.44"/>
      <rect class="cls-167" x="148.55" y="78.21" width="15.13" height="13.44"/>
      <rect class="cls-117" x="254.49" y="64.77" width="15.13" height="13.44"/>
      <rect class="cls-204" x="239.35" y="64.77" width="15.13" height="13.44"/>
      <rect class="cls-250" x="224.22" y="64.77" width="15.13" height="13.44"/>
      <rect class="cls-22" x="209.09" y="64.77" width="15.13" height="13.44"/>
      <rect class="cls-75" x="193.95" y="64.77" width="15.13" height="13.44"/>
      <rect class="cls-258" x="178.82" y="64.77" width="15.13" height="13.44"/>
      <rect class="cls-235" x="163.69" y="64.77" width="15.13" height="13.44"/>
      <rect class="cls-227" x="239.35" y="51.32" width="15.13" height="13.44"/>
      <rect class="cls-227" x="224.22" y="51.32" width="15.13" height="13.44"/>
      <rect class="cls-174" x="209.09" y="51.32" width="15.13" height="13.44"/>
      <rect class="cls-135" x="193.95" y="51.32" width="15.13" height="13.44"/>
      <rect class="cls-267" x="178.82" y="51.32" width="15.13" height="13.44"/>
    </g>
  </g>
</svg>