<?xml version="1.0" encoding="UTF-8"?>
<svg id="Layer_2" data-name="Layer 2" xmlns="http://www.w3.org/2000/svg" xmlns:xlink="http://www.w3.org/1999/xlink" viewBox="0 0 378.64 488.58">
  <defs>
    <style>
      .cls-1 {
        clip-path: url(#clippath);
      }

      .cls-2 {
        fill: none;
      }
    </style>
    <clipPath id="clippath">
      <path class="cls-2" d="m344.71,382.96c-11.95-3.98-19.92-7.97-28.22-9.3-8.3-1.33-10.29-1-10.29-1l-16.93-9.3,8.3-30.55s-.66-5.64,4.32-9.96c4.98-4.32,5.31-7.64,9.3-12.95s9.3-14.61,9.63-19.92,3.65-8.63,3.65-8.63c0,0,0-1.99,3.32-1.33,3.32.66,5.64,0,14.94-5.98,9.3-5.98,15.94-16.93,18.26-23.24,2.32-6.31,5.98-29.55,5.98-34.2s1.99-10.96-7.64-13.95c-9.63-2.99-6.64,2.66-7.64,2.99-1,.33.33-2.66.33-2.66,0,0,0-1.66.66-7.31s.66-3.98,2.32-11.29c1.66-7.31.33-4.32.66-8.97s1-3.98,1.99-4.98c1-1,3.32-7.97,4.32-16.6,1-8.63,1.66-7.64,1.99-12.29.33-4.65,1-7.64,2.66-12.62,1.66-4.98,4.32-6.97,3.98-9.3-.33-2.32.33-8.97,3.65-10.63,3.32-1.66,2.66-2.99,0-7.31-2.66-4.32-1.99-9.96-6.64-19.26s-4.32-6.97-7.64-15.27-4.32-11.95-7.64-17.6-10.29-10.96-11.62-13.95c-1.33-2.99-3.65-5.64-6.31-7.97s-10.96-3.65-13.95-6.64c-2.99-2.99-15.27-7.31-23.24-11.95-7.97-4.65-8.3-2.32-16.6-5.31C272.33.78,264.36.11,262.7,0c-1.66-.11-5.98,4.76-12.62,3.43-6.64-1.33-13.28-1.99-16.27-2.99-2.99-1-16.27,0-17.27,0s-11.29,7.64-11.29,7.64c0,0-18.59,2.32-21.58,5.64-2.99,3.32-6.97,8.63-6.97,8.63,0,0-7.31,4.65-7.64,5.64-.33,1-4.32,6.31-6.97,9.63-2.66,3.32-4.32,7.64-6.97,10.96s-3.98,7.31-6.64,9.63c-2.66,2.32-3.98,3.98-6.97,16.6s-4.32,15.61-4.32,15.61l-7.15,57.44s.17,2.32-1.49-1.66c-1.66-3.98-2.99-8.97-9.63-9.96-6.64-1-5.31,3.32-7.64,7.97s1.99,8.3-3.98,15.94c-5.98,7.64-5.4,24.24-6.31,30.88-.91,6.64,3.98,18.01,7.06,25.15s6.23,7.47,9.63,11.37c3.4,3.9,7.31,1.99,10.54.75,3.24-1.25,1.17.91,1.17.91,0,0-.26,22.41,0,29.88s-6.23,39.85-7.22,45.08c-1,5.23-5.98,35.36-5.98,35.36,0,0-5.48,1.25-8.22.75s-1.49-1.74-5.98-4.23c-4.48-2.49-6.23-.5-9.71,0-3.49.5-5.73,1.99-10.71,4.23s-5.73,0-9.21,0-2.24,3.49-3.74,3.49-3.98-1-6.97-1-28.39,7.47-41.34,7.97c-12.95.5-12.7,5.23-17.68,7.47-.78.35-1.66.58-2.62.75l222.44,128.42c2.73,1.57,6.08,1.57,8.81,0l147.39-85.1s-.04-.05-.06-.08c-3.65-3.98-21.92-15.27-33.87-19.26Z"/>
    </clipPath>
  </defs>
  <g id="Layer_1-2" data-name="Layer 1">
    <g class="cls-1">
      <image width="695" height="926" transform="translate(-91.23 -173.02) scale(.89)" xlink:href="../../../../Downloads/IMG_20200812_220928.jpg"/>
    </g>
  </g>
</svg>