<?xml version="1.0" encoding="UTF-8"?>
<svg id="Layer_2" data-name="Layer 2" xmlns="http://www.w3.org/2000/svg" viewBox="0 0 227.68 259.15">
  <defs>
    <style>
      .cls-1 {
        fill: #797979;
      }

      .cls-2 {
        fill: #939393;
      }

      .cls-3 {
        fill: #ddd;
      }

      .cls-4 {
        fill: #262626;
      }

      .cls-5 {
        fill: #0f0f0f;
      }

      .cls-6 {
        fill: #fff;
      }

      .cls-7 {
        fill: #090909;
      }

      .cls-8 {
        fill: #3f3f3f;
      }

      .cls-9 {
        fill: #dbdbdb;
      }

      .cls-10 {
        fill: #a5a5a5;
      }

      .cls-11 {
        fill: #cacaca;
      }

      .cls-12 {
        fill: #d8d8d8;
      }

      .cls-13 {
        fill: #aeaeae;
      }

      .cls-14 {
        fill: #0c0c0c;
      }

      .cls-15 {
        fill: silver;
      }

      .cls-16 {
        fill: #989898;
      }

      .cls-17 {
        fill: #717171;
      }

      .cls-18 {
        fill: #4b4b4b;
      }

      .cls-19 {
        fill: #b2b2b2;
      }

      .cls-20 {
        fill: #bababa;
      }

      .cls-21 {
        fill: #323232;
      }

      .cls-22 {
        fill: #959595;
      }

      .cls-23 {
        fill: #131313;
      }

      .cls-24 {
        fill: #d6d6d6;
      }

      .cls-25 {
        fill: #b4b4b4;
      }

      .cls-26 {
        fill: #909090;
      }

      .cls-27 {
        fill: #c9c9c9;
      }

      .cls-28 {
        fill: #393939;
      }

      .cls-29 {
        fill: #4e4e4e;
      }

      .cls-30 {
        fill: #232323;
      }

      .cls-31 {
        fill: #1c1c1c;
      }

      .cls-32 {
        fill: #e0e0e0;
      }

      .cls-33 {
        fill: #8d8d8d;
      }

      .cls-34 {
        fill: #c7c7c7;
      }

      .cls-35 {
        fill: #dedede;
      }

      .cls-36 {
        fill: #6b6b6b;
      }

      .cls-37 {
        fill: #c3c3c3;
      }

      .cls-38 {
        fill: #cfcfcf;
      }

      .cls-39 {
        fill: #d7d7d7;
      }

      .cls-40 {
        fill: #bdbdbd;
      }

      .cls-41 {
        fill: #313131;
      }

      .cls-42 {
        fill: #111;
      }

      .cls-43 {
        fill: #626262;
      }

      .cls-44 {
        fill: #444;
      }

      .cls-45 {
        fill: #dadada;
      }

      .cls-46 {
        fill: #414141;
      }

      .cls-47 {
        fill: #c8c8c8;
      }

      .cls-48 {
        fill: #e4e4e4;
      }

      .cls-49 {
        fill: #a3a3a3;
      }

      .cls-50 {
        fill: #3b3b3b;
      }

      .cls-51 {
        fill: #464646;
      }

      .cls-52 {
        fill: #b6b6b6;
      }

      .cls-53 {
        fill: #494949;
      }

      .cls-54 {
        fill: #858585;
      }

      .cls-55 {
        fill: #2c2c2c;
      }

      .cls-56 {
        fill: #d3d3d3;
      }

      .cls-57 {
        fill: #d5d5d5;
      }

      .cls-58 {
        fill: #202020;
      }

      .cls-59 {
        fill: none;
      }

      .cls-60 {
        fill: #dcdcdc;
      }

      .cls-61 {
        fill: #636363;
      }

      .cls-62 {
        fill: #c1c1c1;
      }

      .cls-63 {
        fill: #161616;
      }

      .cls-64 {
        fill: #474747;
      }

      .cls-65 {
        fill: #bcbcbc;
      }

      .cls-66 {
        fill: #515151;
      }

      .cls-67 {
        fill: #ababab;
      }

      .cls-68 {
        fill: #0b0b0b;
      }

      .cls-69 {
        fill: #bbb;
      }

      .cls-70 {
        fill: #b3b3b3;
      }

      .cls-71 {
        fill: #434343;
      }

      .cls-72 {
        fill: #9a9a9a;
      }

      .cls-73 {
        fill: #7b7b7b;
      }

      .cls-74 {
        fill: #454545;
      }

      .cls-75 {
        fill: #f3f3f3;
      }

      .cls-76 {
        fill: #acacac;
      }

      .cls-77 {
        fill: #484848;
      }

      .cls-78 {
        fill: #7f7f7f;
      }

      .cls-79 {
        fill: #8a8a8a;
      }

      .cls-80 {
        fill: #d9d9d9;
      }

      .cls-81 {
        fill: #cdcdcd;
      }

      .cls-82 {
        fill: #f8f8f8;
      }

      .cls-83 {
        fill: #d2d2d2;
      }

      .cls-84 {
        fill: #919191;
      }

      .cls-85 {
        fill: #d0d0d0;
      }

      .cls-86 {
        fill: #3c3c3c;
      }

      .cls-87 {
        fill: #a2a2a2;
      }

      .cls-88 {
        fill: #b9b9b9;
      }

      .cls-89 {
        fill: #ededed;
      }

      .cls-90 {
        fill: #dfdfdf;
      }
    </style>
  </defs>
  <g id="Layer_1-2" data-name="Layer 1">
    <path class="cls-6" d="m113.84,259.15c-2.09,0-4.19-.54-6.06-1.62L6.06,198.8c-3.75-2.17-6.06-6.17-6.06-10.5v-117.45c0-4.33,2.31-8.34,6.06-10.5L107.78,1.62c3.75-2.17,8.38-2.17,12.13,0l101.71,58.73c3.75,2.17,6.06,6.17,6.06,10.5v117.45c0,4.33-2.31,8.34-6.06,10.5l-101.71,58.72c-1.88,1.08-3.97,1.62-6.06,1.62ZM24.25,181.3l89.59,51.72,89.59-51.72v-103.45L113.84,26.13,24.25,77.85v103.45Z"/>
    <g>
      <polygon points="31.15 115.8 42.02 122.08 39.06 123.78 28.19 117.51 28.52 117.32 31.15 115.8"/>
      <path class="cls-48" d="m42.02,122.08l-10.87-6.27-2.62,1.52-4.4-10.43,34.97,20.19,8.39,19.89,30.25,17.47v30.49l-9.33-5.38-3.93-2.27,8.4,19.92-20.13-11.62-.85-2.02,9.49,5.48,2.96-1.71-13.65-32.35,19.08,11.02,2.96-1.71v-7.86l-24-13.86-2.63,1.52-10.08-23.91-10.03-5.79-2.42,1.4-1.56-3.69Zm50.72,56.82l-16.62-9.6-1.61.93,4.85,11,11.77,6.8,1.61-.93v-8.2Z"/>
      <polygon points="42.02 122.08 43.57 125.77 43.04 126.08 55.64 155.97 53.22 157.36 39.06 123.78 42.02 122.08"/>
      <polygon class="cls-14" points="45.99 124.37 56.02 130.16 53.07 131.87 43.04 126.08 43.57 125.77 45.99 124.37"/>
      <polygon class="cls-4" points="70.7 164.96 84.35 197.32 81.39 199.03 53.07 131.87 56.02 130.16 66.11 154.07 65.78 154.26 70.43 164.81 70.7 164.96"/>
      <polygon class="cls-21" points="68.74 152.55 92.74 166.41 89.78 168.12 65.78 154.26 66.11 154.07 68.74 152.55"/>
      <polygon class="cls-21" points="92.74 166.41 92.74 174.27 89.78 175.98 89.78 168.12 92.74 166.41"/>
      <polygon class="cls-24" points="67.49 146.97 59.1 127.08 61.49 125.7 69.88 145.59 67.49 146.97"/>
      <polygon class="cls-70" points="59.1 127.08 24.13 106.89 26.51 105.51 61.49 125.7 59.1 127.08"/>
      <polygon class="cls-18" points="66.08 180.72 61.49 186.31 59.1 187.69 65.66 179.71 66.08 180.72"/>
      <polygon class="cls-48" points="24.13 167.49 40.75 147.28 42.36 151.09 28.19 168.31 39.06 174.59 42.02 172.88 55.74 156.19 57.2 159.66 43.04 176.88 53.07 182.67 56.02 180.97 62.74 172.8 65.66 179.71 59.1 187.69 24.13 167.49"/>
      <polygon points="55.74 156.19 42.02 172.88 39.06 174.59 53.22 157.36 55.64 155.97 55.74 156.19"/>
      <polygon points="62.74 172.8 56.02 180.97 53.07 182.67 62.21 171.55 62.74 172.8"/>
      <polygon class="cls-24" points="92.89 207.19 84.49 187.28 88.41 189.54 95.28 205.81 92.89 207.19"/>
      <polygon class="cls-70" points="100.13 193.55 97.74 194.93 97.74 164.44 100.13 163.06 100.13 193.55"/>
      <polygon class="cls-70" points="100.13 163.06 97.74 164.44 67.49 146.97 69.88 145.59 100.13 163.06"/>
      <polygon class="cls-14" points="53.07 131.87 81.39 199.03 71.91 193.55 71.36 193.23 66.08 180.72 65.66 179.71 62.74 172.8 62.21 171.55 53.07 182.67 43.04 176.88 57.2 159.66 55.74 156.19 55.64 155.97 43.04 126.08 53.07 131.87"/>
      <polygon class="cls-21" points="70.43 164.81 65.78 154.26 89.78 168.12 89.78 175.98 70.7 164.96 70.43 164.81"/>
      <polygon points="39.06 123.78 53.22 157.36 39.06 174.59 28.19 168.31 42.36 151.09 40.75 147.28 28.19 117.51 39.06 123.78"/>
      <polygon class="cls-21" points="76.12 169.3 92.74 178.89 91.13 179.82 74.5 170.23 76.12 169.3"/>
      <polygon class="cls-21" points="92.74 178.89 92.74 187.1 91.13 188.03 91.13 179.82 92.74 178.89"/>
      <polygon class="cls-21" points="91.13 179.82 91.13 188.03 79.35 181.23 74.5 170.23 91.13 179.82"/>
      <polygon class="cls-54" points="99.31 102.91 61.31 80.97 61.31 75.24 99.31 97.18 99.31 102.91"/>
      <polygon class="cls-41" points="151.22 94.88 99.31 102.91 99.31 97.18 151.22 89.15 151.22 94.88"/>
      <polygon points="165.13 64.91 151.22 94.88 151.22 89.15 165.13 59.18 165.13 64.91"/>
      <polygon class="cls-5" points="165.13 59.18 151.22 89.15 99.31 97.18 103.81 87.47 105.02 87.73 114.5 88.26 123.89 87.35 132.55 85.07 139.9 81.57 145.43 77.1 148.76 71.95 149.68 66.47 149.68 60.75 148.32 56.05 134.73 58.15 134.73 63.88 134.94 64.29 134.23 66.05 131.47 69.03 127.46 71.5 122.48 73.29 116.87 74.27 111.02 74.38 109.96 74.24 118.98 54.79 122.62 46.95 127.13 37.24 165.13 59.18"/>
      <polygon class="cls-6" points="105.02 87.73 103.81 87.47 103.81 81.75 105.02 82.01 105.02 87.73"/>
      <polygon class="cls-6" points="114.5 88.26 105.02 87.73 105.02 82.01 114.5 82.53 114.5 88.26"/>
      <polygon class="cls-6" points="123.89 87.35 114.5 88.26 114.5 82.53 123.89 81.62 123.89 87.35"/>
      <polygon class="cls-6" points="132.55 85.07 123.89 87.35 123.89 81.62 132.55 79.34 132.55 85.07"/>
      <polygon class="cls-89" points="139.9 81.57 132.55 85.07 132.55 79.34 139.9 75.84 139.9 81.57"/>
      <polygon class="cls-38" points="145.43 77.1 139.9 81.57 139.9 75.84 145.43 71.37 145.43 77.1"/>
      <polygon class="cls-10" points="148.76 71.95 145.43 77.1 145.43 71.37 148.76 66.22 148.76 71.95"/>
      <polygon class="cls-61" points="149.68 66.47 148.76 71.95 148.76 66.22 149.68 60.75 149.68 66.47"/>
      <polygon class="cls-72" points="134.94 64.29 134.73 63.88 134.73 58.15 135.37 59.37 135.37 63.23 134.94 64.29"/>
      <polygon class="cls-48" points="105.02 82.01 103.81 81.75 96.1 80.08 88.34 76.89 82.28 72.65 78.33 67.64 76.76 62.22 77.67 56.75 81.01 51.6 86.54 47.12 93.88 43.62 102.55 41.34 111.94 40.43 121.42 40.96 122.62 41.22 118.98 49.06 115.42 48.58 109.56 48.69 103.95 49.68 98.98 51.46 94.97 53.93 92.21 56.92 90.88 60.21 91.07 63.59 91.5 64.41 92.77 66.83 95.86 69.7 100.14 72.02 105.31 73.61 109.96 74.24 111.02 74.38 116.87 74.27 122.48 73.29 127.46 71.5 131.47 69.03 134.23 66.05 134.94 64.29 135.37 63.23 135.56 62.75 135.37 59.37 134.73 58.15 148.32 56.05 149.68 60.75 148.76 66.22 145.43 71.37 139.9 75.84 132.55 79.34 123.89 81.62 114.5 82.53 105.02 82.01"/>
      <polygon class="cls-54" points="105.31 73.61 100.14 72.02 95.86 69.7 92.77 66.83 91.5 64.41 92.21 62.64 94.97 59.66 98.98 57.19 103.95 55.4 109.56 54.42 115.42 54.31 118.98 54.79 109.96 74.24 105.31 73.61"/>
      <polygon class="cls-79" points="92.21 62.64 91.5 64.41 91.07 63.59 90.88 60.21 92.21 56.92 92.21 62.64"/>
      <polygon class="cls-40" points="94.97 59.66 92.21 62.64 92.21 56.92 94.97 53.93 94.97 59.66"/>
      <polygon class="cls-32" points="98.98 57.19 94.97 59.66 94.97 53.93 98.98 51.46 98.98 57.19"/>
      <polygon class="cls-82" points="103.95 55.4 98.98 57.19 98.98 51.46 103.95 49.68 103.95 55.4"/>
      <polygon class="cls-6" points="109.56 54.42 103.95 55.4 103.95 49.68 109.56 48.69 109.56 54.42"/>
      <polygon class="cls-6" points="115.42 54.31 109.56 54.42 109.56 48.69 115.42 48.58 115.42 54.31"/>
      <polygon class="cls-6" points="118.98 54.79 115.42 54.31 115.42 48.58 118.98 49.06 118.98 54.79"/>
      <polygon class="cls-2" points="118.98 49.06 122.62 41.22 122.62 46.95 118.98 54.79 118.98 49.06"/>
      <polygon class="cls-54" points="122.62 41.22 121.42 40.96 111.94 40.43 102.55 41.34 93.88 43.62 86.54 47.12 81.01 51.6 77.67 56.75 76.76 62.22 76.76 67.95 78.33 73.37 82.28 78.37 88.34 82.62 96.1 85.81 103.81 87.47 99.31 97.18 61.31 75.24 75.22 45.27 127.13 37.24 122.62 46.95 122.62 41.22"/>
      <polygon class="cls-1" points="78.33 73.37 76.76 67.95 76.76 62.22 78.33 67.64 78.33 73.37"/>
      <polygon class="cls-25" points="82.28 78.37 78.33 73.37 78.33 67.64 82.28 72.65 82.28 78.37"/>
      <polygon class="cls-80" points="88.34 82.62 82.28 78.37 82.28 72.65 88.34 76.89 88.34 82.62"/>
      <polygon class="cls-75" points="96.1 85.81 88.34 82.62 88.34 76.89 96.1 80.08 96.1 85.81"/>
      <polygon class="cls-6" points="103.81 87.47 96.1 85.81 96.1 80.08 103.81 81.75 103.81 87.47"/>
      <polygon class="cls-29" points="135.37 59.37 135.56 62.75 135.37 63.23 135.37 59.37"/>
      <polygon class="cls-83" points="140.37 153.76 151.08 147.58 152.51 148.41 166.31 140.46 168.62 141.79 144.11 155.92 140.37 153.76"/>
      <polygon class="cls-83" points="148.77 146.24 148.76 137.87 152.5 140.04 152.51 148.41 151.08 147.58 148.77 146.24"/>
      <polygon class="cls-87" points="133.14 188.63 132.82 187.86 136.56 190.03 136.88 190.8 133.14 188.63"/>
      <polygon class="cls-26" points="133.52 189.33 133.14 188.63 136.88 190.8 137.26 191.5 133.52 189.33"/>
      <polygon class="cls-73" points="133.98 189.95 133.52 189.33 137.26 191.5 137.72 192.12 133.98 189.95"/>
      <polygon class="cls-61" points="134.5 190.48 133.98 189.95 137.72 192.12 138.23 192.65 134.5 190.48"/>
      <polygon class="cls-64" points="135.08 190.92 134.5 190.48 138.23 192.65 138.82 193.09 135.08 190.92"/>
      <polygon class="cls-67" points="132.82 187.86 132.57 187.08 136.31 189.25 136.56 190.03 132.82 187.86"/>
      <polygon class="cls-13" points="132.57 187.08 132.34 186.28 136.08 188.45 136.31 189.25 132.57 187.08"/>
      <polygon class="cls-19" points="132.34 186.28 132.13 185.46 135.87 187.63 136.08 188.45 132.34 186.28"/>
      <polygon class="cls-52" points="132.13 185.46 131.95 184.62 135.68 186.79 135.87 187.63 132.13 185.46"/>
      <polygon class="cls-20" points="131.95 184.62 131.78 183.77 135.52 185.94 135.68 186.79 131.95 184.62"/>
      <polygon class="cls-40" points="131.78 183.77 131.64 182.89 135.37 185.06 135.52 185.94 131.78 183.77"/>
      <polygon class="cls-15" points="131.64 182.89 131.52 182.01 135.25 184.17 135.37 185.06 131.64 182.89"/>
      <polygon class="cls-37" points="131.52 182.01 131.42 181.1 135.15 183.27 135.25 184.17 131.52 182.01"/>
      <polygon class="cls-34" points="131.42 181.1 131.34 180.18 135.08 182.35 135.15 183.27 131.42 181.1"/>
      <polygon class="cls-11" points="131.34 180.18 131.28 179.24 135.02 181.41 135.08 182.35 131.34 180.18"/>
      <polygon class="cls-81" points="131.28 179.24 131.25 178.3 134.99 180.46 135.02 181.41 131.28 179.24"/>
      <polygon class="cls-85" points="131.25 178.3 131.24 177.33 134.98 179.5 134.99 180.46 131.25 178.3"/>
      <polygon class="cls-56" points="131.24 177.33 131.25 176.35 134.99 178.51 134.98 179.5 131.24 177.33"/>
      <polygon class="cls-57" points="131.25 176.35 131.29 175.35 135.03 177.52 134.99 178.51 131.25 176.35"/>
      <polygon class="cls-39" points="131.29 175.35 131.35 174.33 135.09 176.5 135.03 177.52 131.29 175.35"/>
      <polygon class="cls-12" points="131.35 174.33 131.44 173.31 135.17 175.48 135.09 176.5 131.35 174.33"/>
      <polygon class="cls-80" points="131.44 173.31 131.55 172.28 135.28 174.44 135.17 175.48 131.44 173.31"/>
      <polygon class="cls-45" points="131.55 172.28 131.68 171.23 135.42 173.4 135.28 174.44 131.55 172.28"/>
      <polygon class="cls-9" points="131.68 171.23 131.84 170.18 135.58 172.35 135.42 173.4 131.68 171.23"/>
      <polygon class="cls-60" points="131.84 170.18 132.02 169.12 135.76 171.29 135.58 172.35 131.84 170.18"/>
      <polygon class="cls-3" points="132.02 169.12 132.23 168.05 135.96 170.22 135.76 171.29 132.02 169.12"/>
      <polygon class="cls-35" points="132.23 168.05 132.46 166.97 136.19 169.14 135.96 170.22 132.23 168.05"/>
      <polygon class="cls-35" points="132.46 166.97 132.71 165.89 136.45 168.06 136.19 169.14 132.46 166.97"/>
      <polygon class="cls-90" points="132.71 165.89 132.99 164.81 136.72 166.98 136.45 168.06 132.71 165.89"/>
      <polygon class="cls-90" points="132.99 164.81 133.19 164.24 136.93 166.41 136.72 166.98 132.99 164.81"/>
      <polygon class="cls-90" points="133.19 164.24 133.41 163.68 137.14 165.85 136.93 166.41 133.19 164.24"/>
      <polygon class="cls-90" points="133.41 163.68 133.64 163.11 137.37 165.28 137.14 165.85 133.41 163.68"/>
      <polygon class="cls-90" points="133.64 163.11 133.88 162.55 137.62 164.72 137.37 165.28 133.64 163.11"/>
      <polygon class="cls-90" points="133.88 162.55 134.14 161.99 137.87 164.16 137.62 164.72 133.88 162.55"/>
      <polygon class="cls-90" points="134.14 161.99 134.4 161.43 138.14 163.6 137.87 164.16 134.14 161.99"/>
      <polygon class="cls-90" points="134.4 161.43 134.68 160.88 138.42 163.05 138.14 163.6 134.4 161.43"/>
      <polygon class="cls-90" points="134.68 160.88 134.97 160.34 138.71 162.5 138.42 163.05 134.68 160.88"/>
      <polygon class="cls-90" points="134.97 160.34 135.28 159.79 139.01 161.96 138.71 162.5 134.97 160.34"/>
      <polygon class="cls-90" points="135.28 159.79 135.59 159.26 139.33 161.43 139.01 161.96 135.28 159.79"/>
      <polygon class="cls-90" points="135.59 159.26 135.91 158.73 139.65 160.9 139.33 161.43 135.59 159.26"/>
      <polygon class="cls-90" points="135.91 158.73 136.25 158.21 139.98 160.37 139.65 160.9 135.91 158.73"/>
      <polygon class="cls-90" points="136.25 158.21 136.54 157.76 140.28 159.93 139.98 160.37 136.25 158.21"/>
      <polygon class="cls-90" points="136.54 157.76 136.85 157.33 140.59 159.5 140.28 159.93 136.54 157.76"/>
      <polygon class="cls-90" points="136.85 157.33 137.17 156.91 140.91 159.08 140.59 159.5 136.85 157.33"/>
      <polygon class="cls-90" points="137.17 156.91 137.5 156.5 141.24 158.67 140.91 159.08 137.17 156.91"/>
      <polygon class="cls-90" points="137.5 156.5 137.84 156.1 141.57 158.27 141.24 158.67 137.5 156.5"/>
      <polygon class="cls-90" points="137.84 156.1 138.18 155.72 141.92 157.89 141.57 158.27 137.84 156.1"/>
      <polygon class="cls-90" points="138.18 155.72 138.53 155.35 142.27 157.52 141.92 157.89 138.18 155.72"/>
      <polygon class="cls-90" points="138.53 155.35 138.89 155 142.63 157.17 142.27 157.52 138.53 155.35"/>
      <polygon class="cls-35" points="138.89 155 139.26 154.66 142.99 156.83 142.63 157.17 138.89 155"/>
      <polygon class="cls-35" points="139.26 154.66 139.62 154.34 143.36 156.51 142.99 156.83 139.26 154.66"/>
      <polygon class="cls-60" points="139.62 154.34 140 154.04 143.73 156.21 143.36 156.51 139.62 154.34"/>
      <polygon class="cls-45" points="140 154.04 140.37 153.76 144.11 155.92 143.73 156.21 140 154.04"/>
      <polygon class="cls-66" points="179.43 116.28 179.43 116.28 182.93 118.31 182.68 118.19 178.95 116.02 179.19 116.14 179.43 116.28"/>
      <polygon class="cls-66" points="178.29 115.77 178.95 116.02 182.68 118.19 182.03 117.94 178.29 115.77"/>
      <polygon class="cls-43" points="177.61 115.59 178.29 115.77 182.03 117.94 181.35 117.76 177.61 115.59"/>
      <polygon class="cls-17" points="176.9 115.46 177.61 115.59 181.35 117.76 180.64 117.63 176.9 115.46"/>
      <polygon class="cls-78" points="176.17 115.39 176.9 115.46 180.64 117.63 179.9 117.56 176.17 115.39"/>
      <polygon class="cls-33" points="175.41 115.39 176.17 115.39 179.9 117.56 179.15 117.56 175.41 115.39"/>
      <polygon class="cls-16" points="174.63 115.44 175.41 115.39 179.15 117.56 178.37 117.61 174.63 115.44"/>
      <polygon class="cls-49" points="173.84 115.55 174.63 115.44 178.37 117.61 177.58 117.72 173.84 115.55"/>
      <polygon class="cls-76" points="173.03 115.73 173.84 115.55 177.58 117.72 176.77 117.9 173.03 115.73"/>
      <polygon class="cls-70" points="172.21 115.96 173.03 115.73 176.77 117.9 175.95 118.13 172.21 115.96"/>
      <polygon class="cls-69" points="171.38 116.25 172.21 115.96 175.95 118.13 175.11 118.42 171.38 116.25"/>
      <polygon class="cls-62" points="170.54 116.6 171.38 116.25 175.11 118.42 174.28 118.77 170.54 116.6"/>
      <polygon class="cls-47" points="169.69 117 170.54 116.6 174.28 118.77 173.43 119.17 169.69 117"/>
      <polygon class="cls-83" points="148.76 137.87 148.76 135.94 152.49 138.11 152.5 140.04 148.76 137.87"/>
      <polygon class="cls-90" points="148.76 135.94 148.94 135.32 152.67 137.49 152.49 138.11 148.76 135.94"/>
      <polygon class="cls-90" points="148.94 135.32 149.15 134.69 152.88 136.86 152.67 137.49 148.94 135.32"/>
      <polygon class="cls-90" points="149.15 134.69 149.39 134.07 153.13 136.24 152.88 136.86 149.15 134.69"/>
      <polygon class="cls-90" points="149.39 134.07 149.66 133.45 153.4 135.62 153.13 136.24 149.39 134.07"/>
      <polygon class="cls-90" points="149.66 133.45 149.96 132.84 153.7 135 153.4 135.62 149.66 133.45"/>
      <polygon class="cls-90" points="149.96 132.84 150.29 132.23 154.03 134.4 153.7 135 149.96 132.84"/>
      <polygon class="cls-90" points="150.29 132.23 150.64 131.65 154.38 133.81 154.03 134.4 150.29 132.23"/>
      <polygon class="cls-90" points="150.64 131.65 151.02 131.08 154.76 133.24 154.38 133.81 150.64 131.65"/>
      <polygon class="cls-90" points="151.02 131.08 151.42 130.52 155.15 132.69 154.76 133.24 151.02 131.08"/>
      <polygon class="cls-90" points="151.42 130.52 151.83 130 155.57 132.17 155.15 132.69 151.42 130.52"/>
      <polygon class="cls-90" points="151.83 130 152.27 129.5 156 131.66 155.57 132.17 151.83 130"/>
      <polygon class="cls-90" points="152.27 129.5 152.72 129.02 156.45 131.19 156 131.66 152.27 129.5"/>
      <polygon class="cls-90" points="152.72 129.02 153.24 128.44 156.97 130.61 156.45 131.19 152.72 129.02"/>
      <polygon class="cls-90" points="153.24 128.44 153.76 127.87 157.5 130.04 156.97 130.61 153.24 128.44"/>
      <polygon class="cls-90" points="153.76 127.87 154.3 127.31 158.04 129.48 157.5 130.04 153.76 127.87"/>
      <polygon class="cls-90" points="154.3 127.31 154.84 126.77 158.58 128.94 158.04 129.48 154.3 127.31"/>
      <polygon class="cls-90" points="154.84 126.77 155.38 126.24 159.12 128.41 158.58 128.94 154.84 126.77"/>
      <polygon class="cls-35" points="155.38 126.24 155.94 125.72 159.67 127.89 159.12 128.41 155.38 126.24"/>
      <polygon class="cls-35" points="155.94 125.72 156.49 125.23 160.23 127.4 159.67 127.89 155.94 125.72"/>
      <polygon class="cls-3" points="156.49 125.23 157.05 124.74 160.79 126.91 160.23 127.4 156.49 125.23"/>
      <polygon class="cls-60" points="157.05 124.74 157.61 124.28 161.35 126.45 160.79 126.91 157.05 124.74"/>
      <polygon class="cls-9" points="157.61 124.28 158.18 123.83 161.92 126 161.35 126.45 157.61 124.28"/>
      <polygon class="cls-45" points="158.18 123.83 158.75 123.4 162.49 125.57 161.92 126 158.18 123.83"/>
      <polygon class="cls-45" points="158.75 123.4 159.32 122.98 163.06 125.15 162.49 125.57 158.75 123.4"/>
      <polygon class="cls-83" points="159.32 122.98 169.69 117 173.43 119.17 163.06 125.15 159.32 122.98"/>
      <polygon class="cls-86" points="148.87 197.16 148.86 190.74 150.5 189.79 150.48 178 150.53 177.66 152.57 178.84 152.6 199.33 148.87 197.16"/>
      <polygon points="149.72 198.76 149.54 198.54 153.28 200.7 153.46 200.93 149.72 198.76"/>
      <polygon points="150.33 199.34 150.11 199.17 153.85 201.33 154.06 201.51 150.33 199.34"/>
      <polygon class="cls-30" points="148.97 197.46 148.87 197.16 152.6 199.33 152.71 199.63 148.97 197.46"/>
      <polygon points="149.91 198.97 149.72 198.76 153.46 200.93 153.65 201.14 149.91 198.97"/>
      <polygon points="150.11 199.17 149.91 198.97 153.65 201.14 153.85 201.33 150.11 199.17"/>
      <polygon class="cls-2" points="194.27 124.5 194.9 124.85 198.64 127.02 198 126.67 194.27 124.5"/>
      <polygon points="193.58 124.25 194.27 124.5 198 126.67 197.31 126.42 193.58 124.25"/>
      <polygon points="192.84 124.1 193.58 124.25 197.31 126.42 196.58 126.27 192.84 124.1"/>
      <polygon class="cls-68" points="192.06 124.05 192.84 124.1 196.58 126.27 195.8 126.22 192.06 124.05"/>
      <polygon class="cls-63" points="191.25 124.1 192.06 124.05 195.8 126.22 194.99 126.27 191.25 124.1"/>
      <polygon class="cls-30" points="190.41 124.25 191.25 124.1 194.99 126.27 194.15 126.42 190.41 124.25"/>
      <polygon class="cls-55" points="189.55 124.5 190.41 124.25 194.15 126.42 193.29 126.67 189.55 124.5"/>
      <polygon class="cls-42" points="149.38 198.29 149.23 198.03 152.97 200.2 153.12 200.46 149.38 198.29"/>
      <polygon points="150.55 199.5 150.33 199.34 154.06 201.51 154.29 201.66 150.55 199.5"/>
      <polygon class="cls-31" points="149.1 197.76 148.97 197.46 152.71 199.63 152.83 199.92 149.1 197.76"/>
      <polygon class="cls-7" points="149.54 198.54 149.38 198.29 153.12 200.46 153.28 200.7 149.54 198.54"/>
      <polygon class="cls-86" points="184.86 127.2 189.55 124.5 193.29 126.67 186.95 130.32 184.87 129.11 184.86 127.2"/>
      <polygon class="cls-63" points="149.23 198.03 149.1 197.76 152.83 199.92 152.97 200.2 149.23 198.03"/>
      <path class="cls-88" d="m184.75,120.48l.11.31v6.42s.01,1.9.01,1.9l.02,11.79v.37s-.09.8-.09.8l-.03.23-.18.96-.02.09-.28,1.07v.04s-.36,1.04-.36,1.04l-.06.16-.37.92-.12.26-.37.8-.2.36-.37.68-.27.44-.35.56-.35.51-.32.46-.44.55-.28.36-.51.58-.24.27-.59.58-.2.2-.81.46-20.45,11.79-.67.54-.23.19-.6.57-.27.26-.52.57-.31.34-.44.55-.35.44-.35.51-.38.54-.27.44-.4.66-.19.36-.41.78-.12.27-.4.9-.06.16-.38,1.02v.04s-.33,1.05-.33,1.05l-.03.09-.21.95-.05.21-.11.79-.05.34.02,11.79-1.64.95-4.69,2.7-.86.25-.84.15-.81.05-.78-.05-.74-.15-.69-.25-.64-.35-.58-.44-.52-.53-.45-.62-.39-.7-.31-.78-.25-.78-.23-.8-.21-.82-.19-.84-.17-.86-.14-.87-.12-.89-.1-.91-.08-.92-.06-.94-.03-.95v-.96s0-.99,0-.99l.04-1,.06-1.01.09-1.02.11-1.03.13-1.04.16-1.05.18-1.06.21-1.07.23-1.07.25-1.08.28-1.09.2-.57.22-.57.23-.56.24-.56.26-.56.27-.56.28-.55.29-.55.3-.54.31-.54.32-.53.33-.52.3-.44.31-.43.32-.42.33-.41.34-.4.34-.38.35-.37.36-.35.36-.34.37-.32.37-.3.38-.28,24.51-14.13v-2.67s-2.31,1.33-2.31,1.33l-13.8,7.96v-8.37s-.02-1.93-.02-1.93l.18-.62.21-.63.24-.62.27-.62.3-.61.33-.6.35-.59.38-.57.4-.55.42-.53.43-.5.45-.47.52-.58.53-.57.53-.56.54-.54.55-.53.55-.51.56-.5.56-.48.56-.47.57-.45.57-.43.57-.41,10.37-5.98.84-.4.84-.35.83-.29.82-.23.81-.17.79-.11.78-.05h.76s.73.07.73.07l.71.13.68.19.65.25.25.12.24.14.23.16.21.17.2.19.19.21.18.23.16.24.15.26.14.28.12.29Zm-22.92,16.25l.33-.98.14-.94-.03-.4-.03-.44-.25-.68-.37-.41-.06-.07-.19-.08-.39-.16h-.22s-.47.01-.47.01l-.27.1-.45.16h-.03s-.29.2-.29.2l-.47.31-.28.28-.16.15-.28.27-.63.85-.5.95-.26.77-.07.21-.06.41-.08.53.03.38.03.46.12.32.13.36.25.28.18.2.58.24h.69s.75-.28.75-.28l.76-.5.72-.7.63-.85.5-.95Z"/>
      <polygon class="cls-77" points="184.29 144.42 184.57 143.35 184.58 143.26 186.56 144.4 186.21 145.58 184.27 144.46 184.29 144.42"/>
      <polygon class="cls-83" points="168.62 139.13 168.62 141.79 166.31 140.46 168.62 139.13"/>
      <path class="cls-50" d="m152.6,199.33l-.03-20.49.12-1.02.2-1.05.28-1.07.36-1.08.43-1.08.5-1.06.56-1.04.62-1.01.67-.96.72-.91.76-.85.79-.78,21.26-12.26.9-.73.87-.83.84-.91.79-.99.74-1.05.67-1.1.6-1.14.52-1.17.44-1.18.35-1.18.26-1.16.16-1.13-.02-11.79,6.33-3.65.86-.25.84-.15.81-.05.78.05.74.15.69.25.64.35.58.44.52.53.45.62.39.7.31.78.25.78.23.8.21.82.19.84.17.86.14.87.12.89.1.91.08.92.06.94.03.95v.96s0,.99,0,.99l-.04,1-.06,1.01-.09,1.02-.11,1.03-.13,1.04-.16,1.05-.18,1.06-.21,1.07-.23,1.07-.25,1.08-.28,1.08-.2.57-.22.57-.23.56-.24.56-.26.56-.27.56-.28.55-.29.55-.3.54-.31.54-.32.53-.33.52-.3.44-.31.43-.32.42-.33.41-.34.4-.34.38-.35.37-.36.35-.36.34-.37.32-.37.3-.38.28-10.71,6.17-13.8,7.96v2.67s16.11-9.28,16.11-9.28l.02,10.3-.18.62-.21.63-.24.62-.27.62-.3.61-.33.6-.35.59-.38.57-.4.55-.42.53-.43.5-.45.47-.52.58-.53.57-.53.56-.54.54-.55.53-.55.51-.56.5-.56.48-.56.47-.57.45-.57.43-.57.41-10.37,5.98-.84.4-.84.35-.83.29-.82.23-.81.17-.79.11-.78.05h-.76s-.73-.07-.73-.07l-.71-.13-.68-.19-.65-.25-.25-.12-.24-.14-.23-.16-.21-.17-.2-.19-.19-.21-.18-.23-.16-.24-.15-.26-.14-.28-.12-.29-.11-.31Zm23.52-16.9l-.5.95-.26.77-.07.21-.06.41-.08.53.03.38.03.46.12.32.13.36.25.28.18.2.58.24h.69s.75-.28.75-.28l.76-.5.72-.7.63-.85.28-.53.22-.42.33-.98.13-.9v-.04s-.05-.84-.05-.84l-.25-.68-.43-.48-.58-.24h-.22s-.47.01-.47.01l-.27.1-.48.17-.29.19-.04.02-.43.29-.28.28-.16.15-.28.27-.63.85Z"/>
      <polygon class="cls-77" points="183.23 151.21 182.44 152.2 180.71 151.2 181.15 150.65 181.47 150.19 183.23 151.21"/>
      <polygon class="cls-77" points="182.44 152.2 181.61 153.11 179.91 152.13 180.43 151.56 180.71 151.2 182.44 152.2"/>
      <polygon class="cls-51" points="181.61 153.11 180.74 153.94 179.08 152.98 179.67 152.4 179.91 152.13 181.61 153.11"/>
      <polygon class="cls-44" points="180.74 153.94 179.84 154.67 178.07 153.65 178.88 153.18 179.08 152.98 180.74 153.94"/>
      <polygon class="cls-86" points="179.84 154.67 158.58 166.93 156.95 165.98 157.62 165.44 178.07 153.65 179.84 154.67"/>
      <polygon class="cls-64" points="158.58 166.93 157.79 167.71 156.12 166.74 156.72 166.17 156.95 165.98 158.58 166.93"/>
      <polygon class="cls-77" points="157.79 167.71 157.03 168.55 155.33 167.57 155.85 166.99 156.12 166.74 157.79 167.71"/>
      <polygon class="cls-77" points="157.03 168.55 156.31 169.46 154.58 168.46 155.02 167.91 155.33 167.57 157.03 168.55"/>
      <polygon class="cls-77" points="156.31 169.46 155.64 170.43 153.87 169.4 154.23 168.89 154.58 168.46 156.31 169.46"/>
      <polygon class="cls-77" points="155.64 170.43 155.02 171.43 153.22 170.39 153.49 169.95 153.87 169.4 155.64 170.43"/>
      <polygon class="cls-77" points="155.02 171.43 154.45 172.47 152.63 171.41 152.82 171.05 153.22 170.39 155.02 171.43"/>
      <polygon class="cls-77" points="154.45 172.47 153.96 173.54 152.1 172.46 152.22 172.19 152.63 171.41 154.45 172.47"/>
      <polygon class="cls-77" points="153.96 173.54 153.53 174.61 151.63 173.51 151.69 173.36 152.1 172.46 153.96 173.54"/>
      <polygon class="cls-77" points="153.53 174.61 153.17 175.69 151.24 174.57 151.25 174.53 151.63 173.51 153.53 174.61"/>
      <polygon class="cls-64" points="153.17 175.69 152.89 176.76 150.93 175.62 151.24 174.57 153.17 175.69"/>
      <polygon class="cls-74" points="152.89 176.76 152.69 177.82 150.69 176.66 150.9 175.71 150.93 175.62 152.89 176.76"/>
      <polygon class="cls-46" points="152.69 177.82 152.57 178.84 150.53 177.66 150.64 176.87 150.69 176.66 152.69 177.82"/>
      <polygon class="cls-86" points="184.95 171.7 168.84 180.98 168.84 178.31 182.64 170.36 184.95 171.7"/>
      <polygon class="cls-86" points="186.95 130.32 186.97 142.11 184.89 140.9 184.87 129.11 186.95 130.32"/>
      <polygon class="cls-71" points="186.97 142.11 186.81 143.24 184.79 142.07 184.89 141.27 184.89 140.9 186.97 142.11"/>
      <polygon class="cls-74" points="186.81 143.24 186.56 144.4 184.58 143.26 184.77 142.29 184.79 142.07 186.81 143.24"/>
      <polygon class="cls-77" points="186.21 145.58 185.77 146.75 183.87 145.65 183.93 145.5 184.27 144.46 186.21 145.58"/>
      <polygon class="cls-77" points="185.77 146.75 185.24 147.92 183.38 146.84 183.5 146.57 183.87 145.65 185.77 146.75"/>
      <polygon class="cls-77" points="185.24 147.92 184.64 149.06 182.81 148 183 147.64 183.38 146.84 185.24 147.92"/>
      <polygon class="cls-77" points="184.64 149.06 183.97 150.16 182.17 149.12 182.44 148.68 182.81 148 184.64 149.06"/>
      <polygon class="cls-77" points="183.97 150.16 183.23 151.21 181.47 150.19 181.82 149.68 182.17 149.12 183.97 150.16"/>
      <polygon class="cls-90" points="156.69 136.63 156.97 136.36 160.7 138.53 159.98 139.23 156.56 137.25 156.62 136.84 156.69 136.63"/>
      <polygon class="cls-2" points="156.97 136.36 156.69 136.63 156.95 135.86 157.44 134.91 158.07 134.06 158.35 133.79 158.09 134.56 157.59 135.51 156.97 136.36"/>
      <polygon class="cls-90" points="156.97 136.36 157.59 135.51 161.33 137.68 160.7 138.53 156.97 136.36"/>
      <polygon class="cls-90" points="157.59 135.51 158.09 134.56 161.83 136.73 161.33 137.68 157.59 135.51"/>
      <polygon class="cls-90" points="158.09 134.56 158.35 133.79 158.51 133.63 162.15 135.75 161.83 136.73 158.09 134.56"/>
      <polygon class="cls-27" points="162.24 133.97 162.27 134.41 159.58 132.84 160.02 132.68 162.24 133.97"/>
      <polygon class="cls-27" points="162.27 134.41 162.29 134.81 159.26 133.05 159.55 132.85 159.58 132.84 162.27 134.41"/>
      <polygon class="cls-9" points="162.29 134.81 162.15 135.75 158.51 133.63 158.79 133.36 159.26 133.05 162.29 134.81"/>
      <polygon class="cls-12" points="159.98 139.23 159.23 139.74 156.5 138.16 156.48 137.78 156.56 137.25 159.98 139.23"/>
      <polygon class="cls-65" points="159.23 139.74 158.48 140 156.66 138.95 156.54 138.62 156.5 138.16 159.23 139.74"/>
      <polygon class="cls-84" points="158.48 140 157.79 140.02 157.04 139.58 156.79 139.3 156.66 138.95 158.48 140"/>
      <polygon class="cls-53" points="157.79 140.02 157.22 139.78 157.04 139.58 157.79 140.02"/>
      <polygon class="cls-36" points="161.56 132.81 161.62 132.88 161.37 132.73 161.56 132.81"/>
      <polygon class="cls-36" points="161.62 132.88 161.99 133.29 160.76 132.58 160.98 132.57 161.37 132.73 161.62 132.88"/>
      <polygon class="cls-10" points="161.99 133.29 162.24 133.97 160.02 132.68 160.29 132.59 160.76 132.58 161.99 133.29"/>
      <polygon class="cls-77" points="176.77 182.08 177.03 181.31 177.19 181.15 180.84 183.27 180.51 184.25 176.77 182.08"/>
      <polygon class="cls-2" points="177.03 181.31 176.77 182.08 176.55 182.5 176.28 183.03 175.65 183.88 175.37 184.15 175.63 183.38 176.13 182.43 176.76 181.58 177.03 181.31"/>
      <polygon class="cls-77" points="176.55 182.5 176.77 182.08 180.51 184.25 180.29 184.67 176.55 182.5"/>
      <polygon class="cls-64" points="175.37 184.15 175.65 183.88 179.39 186.05 178.67 186.75 175.24 184.76 175.3 184.36 175.37 184.15"/>
      <polygon class="cls-77" points="176.28 183.03 176.55 182.5 180.29 184.67 180.01 185.2 176.28 183.03"/>
      <polygon class="cls-77" points="175.65 183.88 176.28 183.03 180.01 185.2 179.39 186.05 175.65 183.88"/>
      <polygon points="179.66 180.09 180.24 180.33 180.67 180.81 179.44 180.1 179.66 180.09"/>
      <polygon class="cls-58" points="180.67 180.81 180.92 181.49 178.71 180.2 178.98 180.11 179.44 180.1 180.67 180.81"/>
      <polygon class="cls-28" points="180.92 181.49 180.98 182.33 177.94 180.57 178.23 180.37 178.71 180.2 180.92 181.49"/>
      <polygon class="cls-49" points="180.98 182.33 180.97 182.37 177.9 180.59 177.94 180.57 180.98 182.33"/>
      <polygon class="cls-71" points="180.97 182.37 180.84 183.27 177.19 181.15 177.47 180.87 177.9 180.59 180.97 182.37"/>
      <polygon class="cls-8" points="178.67 186.75 177.91 187.25 175.19 185.67 175.16 185.3 175.24 184.76 178.67 186.75"/>
      <polygon class="cls-21" points="177.91 187.25 177.16 187.52 175.34 186.46 175.22 186.14 175.19 185.67 177.91 187.25"/>
      <polygon class="cls-23" points="177.16 187.52 176.48 187.54 175.72 187.1 175.47 186.82 175.34 186.46 177.16 187.52"/>
      <polygon points="176.48 187.54 175.9 187.3 175.72 187.1 176.48 187.54"/>
      <path class="cls-22" d="m113.84,129.58l99.21-57.28v114.56l-99.21,57.28v-114.56Zm37.24,18.01l-10.71,6.17-.38.28-.37.3-.37.32-.36.34-.36.35-.35.37-.34.38-.34.4-.33.41-.32.42-.31.43-.3.44-.33.52-.32.53-.31.54-.3.54-.29.55-.28.55-.27.56-.26.56-.24.56-.23.56-.22.57-.2.57-.28,1.08-.25,1.08-.23,1.07-.21,1.07-.18,1.06-.16,1.05-.13,1.04-.11,1.03-.09,1.02-.06,1.01-.04,1v.99s0,.96,0,.96l.03.95.06.94.08.92.1.91.12.89.14.87.17.86.19.84.21.82.23.8.25.78.31.78.39.7.45.62.52.53.58.44,3.74,2.17.64.35.69.25.74.15.78.05.81-.05.84-.15.86-.25,4.69-2.7v6.42s.12.31.12.31l.12.29.14.28.15.26.16.24.18.23.19.21.2.19.21.17.23.16,3.74,2.17.24.14.25.12.65.25.68.19.71.13.73.07h.76s.78-.05.78-.05l.79-.11.81-.17.82-.23.83-.29.84-.35.84-.4,10.37-5.98.57-.41.57-.43.57-.45.56-.47.56-.48.56-.5.55-.51.55-.53.54-.54.53-.56.53-.57.52-.58.45-.47.43-.5.42-.53.4-.55.38-.57.35-.59.33-.6.3-.61.27-.62.24-.62.21-.63.18-.62-.02-10.3-2.31-1.34,10.71-6.17.38-.28.37-.3.37-.32.36-.34.36-.35.35-.37.34-.38.34-.4.33-.41.32-.42.31-.43.3-.44.33-.52.32-.53.31-.54.3-.54.29-.55.28-.55.27-.56.26-.56.24-.56.23-.56.22-.57.2-.57.28-1.08.25-1.08.23-1.07.21-1.07.18-1.06.16-1.05.13-1.04.11-1.03.09-1.02.06-1.01.04-1v-.99s0-.96,0-.96l-.03-.95-.06-.94-.08-.92-.1-.91-.12-.89-.14-.87-.17-.86-.19-.84-.21-.82-.23-.8-.25-.78-.31-.78-.39-.7-.45-.62-.52-.53-.58-.44-3.74-2.17-.64-.35-.69-.25-.74-.15-.78-.05-.81.05-.84.15-.86.25-4.69,2.7v-6.42s-.12-.31-.12-.31l-.12-.29-.14-.28-.15-.26-.16-.24-.18-.23-.19-.21-.2-.19-.21-.17-.23-.16-.24-.14-3.5-2.03h0s-.24-.14-.24-.14l-.25-.12-.65-.25-.68-.19-.71-.13-.73-.07h-.76s-.78.05-.78.05l-.79.11-.81.17-.82.23-.83.29-.84.35-.84.4-10.37,5.98-.57.41-.57.43-.57.45-.56.47-.56.48-.56.5-.55.51-.55.53-.54.54-.53.56-.53.57-.52.58-.45.47-.43.5-.42.53-.4.55-.38.57-.35.59-.33.6-.3.61-.27.62-.24.62-.21.63-.18.62v1.93s.02,8.37.02,8.37l2.31,1.34Z"/>
      <path class="cls-2" d="m213.05,72.3l-99.21,57.28L14.63,72.3,113.84,15.02l99.21,57.28Zm-151.74,8.67l38,21.94,51.91-8.03,13.91-29.97v-5.73l-38-21.94-51.91,8.03-13.91,29.97v5.73Z"/>
      <path class="cls-54" d="m113.84,129.58v114.56L14.63,186.86v-114.56l99.21,57.28Zm-89.72-22.69l4.4,10.43-.33.19,12.56,29.77-16.62,20.22,34.97,20.19,2.39-1.38,4.6-5.59,5.28,12.52.54.31.85,2.02,20.13,11.62,2.39-1.38-6.86-16.27,9.33,5.38,2.39-1.38v-30.49l-30.25-17.47-8.39-19.89-34.97-20.19-2.39,1.38Z"/>
      <path class="cls-59" d="m31.15,115.8l10.87,6.27m1.56,3.69l-1.56-3.69m0,50.8l13.72-16.69m-9.74-31.82l10.03,5.79m28.32,67.15l-13.65-32.35m-4.59-10.89l-10.08-23.91m0,50.8l6.72-8.17m6-20.24l24,13.86m-16.62,2.89l16.62,9.6m0-4.62v-7.86m0,20.69v-8.2m-31.43-97.93l38,21.94m0,0l51.91-8.03m0,0l13.91-29.97m-73.63-.5l.71-1.76m0,0l2.76-2.98m0,0l4.01-2.47m0,0l4.98-1.79m0,0l5.61-.98m0,0l5.86-.11m0,0l3.56.48m-40.65,18.58l-1.57-5.42m5.52,10.43l-3.95-5m3.95,5l6.06,4.24m0,0l7.75,3.19m0,0l7.72,1.67m0,0l1.2.26m0,0l9.48.53m0,0l9.39-.91m0,0l8.67-2.28m0,0l7.35-3.5m0,0l5.53-4.48m0,0l3.33-5.15m0,0l.91-5.47m-14.74-2.19l-.21-.4m16.35,83.7l-10.71,6.17m8.4-7.51v-8.37m-15.95,49.99l.31.78m0,0l.39.7m0,0l.45.62m0,0l.52.53m0,0l.58.44m-2.25-3.07l-.25-.78m0,0l-.23-.8m0,0l-.21-.82m0,0l-.19-.84m0,0l-.17-.86m0,0l-.14-.87m0,0l-.12-.89m0,0l-.1-.91m0,0l-.08-.92m0,0l-.06-.94m0,0l-.03-.95m0,0v-.96m-.01,0v-.99m.01,0l.04-1m0,0l.06-1.01m0,0l.09-1.02m0,0l.11-1.03m0,0l.13-1.04m0,0l.16-1.05m0,0l.18-1.06m0,0l.21-1.07m0,0l.23-1.07m0,0l.25-1.08m0,0l.28-1.08m0,0l.2-.57m0,0l.22-.57m0,0l.23-.56m0,0l.24-.56m0,0l.26-.56m0,0l.27-.56m0,0l.28-.55m0,0l.29-.55m0,0l.3-.54m0,0l.31-.54m0,0l.32-.53m0,0l.33-.52m0,0l.3-.44m0,0l.31-.43m0,0l.32-.42m0,0l.33-.41m0,0l.34-.4m0,0l.34-.38m0,0l.35-.37m0,0l.36-.35m0,0l.36-.34m0,0l.37-.32m0,0l.37-.3m0,0l.38-.28m39.06-37.48h0m0,0l-.24-.14m0,0l-.25-.12m0,0l-.65-.25m0,0l-.68-.19m0,0l-.71-.13m0,0l-.73-.07m0,0h-.76m0,0l-.78.05m0,0l-.79.11m0,0l-.81.17m0,0l-.82.23m0,0l-.83.29m0,0l-.84.35m0,0l-.84.4m-20.93,20.87v-1.93m0,0l.18-.62m0,0l.21-.63m0,0l.24-.62m0,0l.27-.62m0,0l.3-.61m0,0l.33-.6m0,0l.35-.59m0,0l.38-.57m0,0l.4-.55m0,0l.42-.53m0,0l.43-.5m0,0l.45-.47m0,0l.52-.58m0,0l.53-.57m0,0l.53-.56m0,0l.54-.54m0,0l.55-.53m0,0l.55-.51m0,0l.56-.5m0,0l.56-.48m0,0l.56-.47m0,0l.57-.45m0,0l.57-.43m0,0l.57-.41m0,0l10.37-5.98m-13,19.63l.28-.27m0,0l.63-.85m0,0l.5-.95m0,0l.26-.77m18.42,48.29l.26-.77m-.48,1.19l.22-.42m-27.91,8.66v6.42m.69,1.38l.18.23m.39.4l.21.17m-1.46-2.18l.11.31m.75,1.3l.19.21m25.46-14.82l.28-.27m-25.74,15.09l.2.19m44.79-74.32l-.64-.35m0,0l-.69-.25m0,0l-.74-.15m0,0l-.78-.05m0,0l-.81.05m0,0l-.84.15m-14.14,58.77l.28-.53m13.86-58.25l-.86.25m-40.32,73.53l.15.26m.95,1.05l.23.16m-1.58-2.03l.12.29m.28.54l.16.24m35.32-71.33l4.69-2.7m-13.9,59.38l.63-.85m-27.18,14.73l.14.28m35.06-53.61l.28-1.07m.29-22.56l-.11-.31m0,0l-.12-.29m0,0l-.14-.28m0,0l-.15-.26m0,0l-.16-.24m0,0l-.18-.23m0,0l-.19-.21m0,0l-.2-.19m0,0l-.21-.17m0,0l-.23-.16m0,0l-.24-.14"/>
      <path class="cls-59" d="m182.93,118.31l-.25-.12m0,0l-.65-.25m0,0l-.68-.19m0,0l-.71-.13m0,0l-.73-.07m0,0h-.76m0,0l-.78.05m0,0l-.79.11m0,0l-.81.17m0,0l-.82.23m0,0l-.83.29m0,0l-.84.35m0,0l-.84.4m-10.37,5.98l10.37-5.98m-10.94,6.39l.57-.41m-1.14.85l.57-.43m-1.14.88l.57-.45m-1.13.91l.56-.47m-1.12.95l.56-.48m-1.11.98l.56-.5m-1.11,1.01l.55-.51m-1.1,1.04l.55-.53m-1.09,1.07l.54-.54m-1.07,1.1l.53-.56m-1.06,1.13l.53-.57m-1.05,1.16l.52-.58m-.97,1.06l.45-.47m-.88.97l.43-.5m-.85,1.03l.42-.53m-.81,1.08l.4-.55m-.77,1.12l.38-.57m-.73,1.16l.35-.59m-.68,1.19l.33-.6m-.63,1.21l.3-.61m-.57,1.23l.27-.62m-.51,1.25l.24-.62m-.45,1.25l.21-.63m-.39,1.25l.18-.62m-.18,2.55v-1.93m.01,10.3v-8.37m16.11-.91v2.67m0,0l-24.51,14.13m-.38.28l.38-.28m-.75.59l.37-.3m-.74.62l.37-.32m-.73.66l.36-.34m-.72.69l.36-.35m-.71.72l.35-.37m-.7.75l.34-.38m-.68.78l.34-.4m-.67.81l.33-.41m-.65.83l.32-.42m-.63.86l.31-.43m-.61.88l.3-.44m-.63.97l.33-.52m-.66,1.05l.32-.53m-.64,1.07l.31-.54m-.62,1.08l.3-.54m-.59,1.09l.29-.55m-.57,1.1l.28-.55m-.55,1.11l.27-.56m-.52,1.12l.26-.56m-.5,1.12l.24-.56m-.47,1.13l.23-.56m-.45,1.13l.22-.57m-.42,1.13l.2-.57m-.48,1.65l.28-1.09m-.53,2.17l.25-1.08m-.48,2.16l.23-1.07m-.44,2.14l.21-1.07m-.39,2.13l.18-1.06m-.34,2.11l.16-1.05m-.29,2.1l.13-1.04m-.24,2.08l.11-1.03m-.2,2.06l.09-1.02m-.15,2.04l.06-1.01m-.1,2.01l.04-1m-.05,1.99v-.99m.01,1.95v-.96m.03,1.91l-.03-.95m.09,1.88l-.06-.94m.13,1.86l-.08-.92m.18,1.83l-.1-.91m.22,1.79l-.12-.89m.27,1.76l-.14-.87m.31,1.73l-.17-.86m.35,1.69l-.19-.84m.4,1.66l-.21-.82m.44,1.62l-.23-.8m.48,1.58l-.25-.78m.25.78l.31.78m0,0l.39.7m0,0l.45.62m0,0l.52.53m0,0l.58.44"/>
      <path class="cls-59" d="m138.82,193.09l.64.35m0,0l.69.25m0,0l.74.15m0,0l.78.05m0,0l.81-.05m0,0l.84-.15m0,0l.86-.25m6.33-3.65l-.02-11.79"/>
      <path class="cls-59" d="m162.27,134.41l-.03-.44m.06.84l-.03-.4m-.11,1.34l.14-.94m-.47,1.92l.33-.98m-.82,1.93l.5-.95m-1.12,1.8l.63-.85m-1.34,1.56l.72-.7m-1.48,1.2l.76-.5m-1.51.77l.75-.27m-1.43.28h.69m-1.26-.24l.58.24"/>
      <line class="cls-59" x1="158.07" y1="134.06" x2="157.44" y2="134.91"/>
      <path class="cls-59" d="m161.62,132.88l-.06-.07m.43.48l-.37-.41m.62,1.09l-.25-.68m16.96-17.27l3.74,2.17m-12.99-1.19l3.74,2.17m-14.11,3.81l3.74,2.17m-10.34,3.87l3.74,2.17m-7.7,4.75l3.74,2.17m-3.73-.24l3.74,2.17m13.82.42l2.31,1.34m-28.25,11.96l3.74,2.17m-7.86,2.28l3.74,2.17m-6.99,4.43l3.74,2.17m-5.48,10.36l3.74,2.17m-2.15,8.36l3.74,2.17"/>
      <line class="cls-59" x1="135.08" y1="190.92" x2="138.82" y2="193.09"/>
      <path class="cls-59" d="m183.23,151.21l-.79.99m0,0l-.84.91m0,0l-.87.83m0,0l-.9.73m0,0l-21.26,12.26m0,0l-.79.78m0,0l-.76.85m0,0l-.72.91m0,0l-.67.96m0,0l-.62,1.01m0,0l-.56,1.04m0,0l-.5,1.06m0,0l-.43,1.08m0,0l-.36,1.08m0,0l-.28,1.07m0,0l-.2,1.05m0,0l-.12,1.02m0,0l.03,20.49m0,0l.11.31m0,0l.12.29m0,0l.14.28m0,0l.15.26m0,0l.16.24m0,0l.18.23m0,0l.19.21m0,0l.2.19m0,0l.21.17m0,0l.23.16"/>
      <path class="cls-59" d="m154.29,201.66l.24.14m0,0l.25.12m0,0l.65.25m0,0l.68.19m0,0l.71.13m0,0l.73.07m0,0h.76m0,0l.78-.05m0,0l.79-.11m0,0l.81-.17m0,0l.82-.23m0,0l.83-.29m0,0l.84-.35m0,0l.84-.4m10.37-5.98l-10.37,5.98m10.94-6.39l-.57.41m1.14-.85l-.57.43m1.14-.88l-.57.45m1.13-.91l-.56.47m1.12-.95l-.56.48m1.11-.98l-.56.5m1.11-1.01l-.55.51m1.1-1.04l-.55.53m1.09-1.07l-.54.54m1.07-1.1l-.53.56m1.06-1.13l-.53.57m1.05-1.16l-.52.58m.97-1.06l-.45.47m.88-.97l-.43.5m.85-1.03l-.42.53m.81-1.08l-.4.55m.77-1.12l-.38.57m.73-1.16l-.35.59m.68-1.19l-.33.6m.63-1.21l-.3.61m.57-1.23l-.27.62m.51-1.25l-.24.62m.45-1.25l-.21.63m.39-1.25l-.18.62"/>
      <line class="cls-59" x1="184.95" y1="171.7" x2="168.84" y2="180.98"/>
      <path class="cls-59" d="m168.84,180.98v-2.67m24.88-14.41l-.38.28m.75-.59l-.37.3m.74-.62l-.37.32m.73-.66l-.36.34m.72-.69l-.36.35m.71-.72l-.35.37m.7-.75l-.34.38m.68-.78l-.34.4m.67-.81l-.33.41m.65-.83l-.32.42m.63-.86l-.31.43m.61-.88l-.3.44m.63-.97l-.33.52m.66-1.05l-.32.53m.64-1.07l-.31.54m.61-1.08l-.3.54m.59-1.09l-.29.55m.57-1.1l-.28.55m.55-1.11l-.27.56m.52-1.12l-.26.56m.5-1.12l-.24.56m.47-1.13l-.23.56m.45-1.13l-.22.57m.42-1.13l-.2.57m.48-1.65l-.28,1.08m.53-2.17l-.25,1.08m.48-2.16l-.23,1.07m.44-2.14l-.21,1.07m.39-2.13l-.18,1.06m.34-2.11l-.16,1.05m.29-2.1l-.13,1.04m.24-2.08l-.11,1.03m.2-2.06l-.09,1.02m.15-2.04l-.06,1.01m.1-2.01l-.04,1m.05-1.99v.99m-.01-1.95v.96m-.03-1.91l.03.95m-.09-1.88l.06.94m-.13-1.86l.08.92m-.18-1.83l.1.91m-.22-1.79l.12.89m-.27-1.76l.14.87m-.31-1.73l.17.86m-.35-1.69l.19.84m-.4-1.66l.21.82m-.44-1.62l.23.8m-.48-1.58l.25.78m-.25-.78l-.31-.78m0,0l-.39-.7m0,0l-.45-.62m0,0l-.52-.53m0,0l-.58-.44"/>
      <path class="cls-59" d="m198.64,127.02l-.64-.35m0,0l-.69-.25m0,0l-.74-.15m0,0l-.78-.05m0,0l-.81.05m0,0l-.84.15m0,0l-.86.25m-6.33,3.65l6.33-3.65m-6.33,3.65l.02,11.79m0,0l-.16,1.13m0,0l-.26,1.16m0,0l-.35,1.18m0,0l-.44,1.18m0,0l-.52,1.17m0,0l-.6,1.14m0,0l-.67,1.1m0,0l-.74,1.05"/>
      <path class="cls-59" d="m176.13,182.43l-.5.95m1.12-1.8l-.63.85m4.11-2.1l-.58-.24"/>
      <path class="cls-59" d="m180.67,180.81l-.43-.48m.68,1.16l-.25-.68m.31,1.52l-.06-.84m.05.88v-.04m-.13.94l.13-.9m-.46,1.88l.33-.98m-.55,1.4l.22-.42m-.5.95l.28-.53m-.9,1.38l.63-.85m-1.34,1.56l.72-.7m-1.48,1.2l.76-.5m-1.51.77l.75-.27m-1.43.28h.69m-1.26-.24l.58.24m1.59-33.89l1.77,1.03m-22.89,11.31l1.63.95m-8.05,10.73l2.04,1.18m-3.7,18.32l3.74,2.17"/>
      <path class="cls-59" d="m150.55,199.5l3.74,2.17m28.35-31.31l2.31,1.34m9.96-46.85l3.74,2.17"/>
      <path class="cls-59" d="m189.55,124.5l3.74,2.17m-8.42,2.44l2.09,1.21m-2.07,10.58l2.09,1.21"/>
      <line class="cls-59" x1="61.49" y1="186.31" x2="66.08" y2="180.72"/>
      <path class="cls-59" d="m67.49,146.97l-8.39-19.89m0,0l-34.97-20.19"/>
      <path class="cls-59" d="m24.13,106.89l4.4,10.43m12.22,29.96l-16.62,20.22m0,0l34.97,20.19"/>
      <line class="cls-59" x1="59.1" y1="187.69" x2="65.66" y2="179.71"/>
      <path class="cls-59" d="m71.91,193.55l.85,2.02m0,0l20.13,11.62"/>
      <line class="cls-59" x1="92.89" y1="207.19" x2="84.49" y2="187.28"/>
      <line class="cls-59" x1="100.13" y1="193.55" x2="97.74" y2="194.93"/>
      <path class="cls-59" d="m100.13,163.06l-2.39,1.38m-27.86-18.85l-2.39,1.38m-6-21.27l-2.39,1.38"/>
      <path class="cls-59" d="m26.51,105.51l-2.39,1.38m37.36,79.42l-2.39,1.38m36.18,18.13l-2.39,1.38"/>
      <path class="cls-59" d="m95.28,205.81l-6.86-16.27m11.72,4.01v-30.49"/>
      <line class="cls-59" x1="97.74" y1="164.44" x2="67.49" y2="146.97"/>
      <path class="cls-59" d="m69.88,145.59l-8.39-19.89m0,0l-34.97-20.19m73.61,57.55l-30.25-17.47"/>
      <line class="cls-59" x1="56.02" y1="130.16" x2="53.07" y2="131.87"/>
      <path class="cls-59" d="m56.02,180.97l-2.96,1.71m31.28,14.65l-2.96,1.71"/>
      <path class="cls-59" d="m81.39,199.03l-28.32-67.15m-10.03-5.79l10.03,5.79"/>
      <path class="cls-59" d="m57.2,159.66l-14.16,17.22m0,0l10.03,5.79"/>
      <path class="cls-59" d="m62.21,171.55l-9.15,11.12m39.67-3.78l-1.61.93m0,0v8.2"/>
      <path class="cls-59" d="m92.74,187.1l-1.61.93m-15.01-18.73l-1.61.93"/>
      <line class="cls-59" x1="91.13" y1="179.82" x2="74.5" y2="170.23"/>
      <path class="cls-59" d="m91.13,188.03l-11.77-6.8m0,0l-4.85-11"/>
      <line class="cls-59" x1="92.74" y1="166.41" x2="89.78" y2="168.12"/>
      <path class="cls-59" d="m70.43,164.81l-4.65-10.55m26.96,20.02l-2.96,1.71"/>
      <path class="cls-59" d="m65.78,154.26l24,13.86m0,0v7.86m-47.76-53.9l-2.96,1.71m14.16,33.58l-14.16-33.58m16.58,32.18l-2.42,1.4"/>
      <line class="cls-59" x1="42.36" y1="151.09" x2="28.19" y2="168.31"/>
      <line class="cls-59" x1="28.19" y1="117.51" x2="39.06" y2="123.78"/>
      <path class="cls-59" d="m42.02,172.88l-2.96,1.71m-10.87-6.27l10.87,6.27"/>
      <path class="cls-59" d="m113.84,129.58l99.21-57.28m-99.21,171.84v-114.56"/>
      <path class="cls-59" d="m213.05,186.86l-99.21,57.28m99.21-171.84v114.56m-99.21,57.28L14.63,186.86m198.43-114.56L113.84,15.02M14.63,72.3L113.84,15.02"/>
      <line class="cls-59" x1="113.84" y1="129.58" x2="14.63" y2="72.3"/>
      <path class="cls-59" d="m14.63,186.86v-114.56m90.68,1.32l-5.17-1.6m0,0l-4.28-2.31m0,0l-3.09-2.87m-1.7-3.24l-.19-3.38"/>
      <path class="cls-59" d="m90.88,60.21l1.33-3.3m0,0l2.76-2.98m0,0l4.01-2.47m0,0l4.98-1.79m0,0l5.61-.98m0,0l5.86-.11m0,0l3.56.48m3.64-7.84l-3.64,7.84"/>
      <path class="cls-59" d="m121.42,40.96l1.2.26m-10.68-.79l9.48.53m-18.87.38l9.39-.91m-18.06,3.19l8.67-2.28m-16.01,5.78l7.35-3.5m-12.88,7.97l5.53-4.48m-8.86,9.63l3.33-5.15m-4.25,10.62l.91-5.47"/>
      <path class="cls-59" d="m78.33,67.64l-1.57-5.42m5.52,10.43l-3.95-5m10.01,9.25l-6.06-4.24m13.81,7.43l-7.75-3.19m15.47,4.86l-7.72-1.67m8.92,1.92l-1.2-.26m10.68.79l-9.48-.53m18.87-.38l-9.39.91m18.06-3.19l-8.67,2.28m16.01-5.78l-7.35,3.5m12.88-7.97l-5.53,4.48m8.86-9.63l-3.33,5.15m4.25-10.62l-.91,5.47"/>
      <path class="cls-59" d="m148.32,56.05l1.36,4.69m-1.36-4.69l-13.59,2.1"/>
      <path class="cls-59" d="m134.73,58.15l.64,1.22m0,0l.19,3.38"/>
      <path class="cls-59" d="m134.23,66.05l-2.76,2.98m0,0l-4.01,2.47m0,0l-4.98,1.79m0,0l-5.61.98m0,0l-5.86.11"/>
      <path class="cls-59" d="m122.62,46.95v-5.73m-45.86,26.73v-5.73m72.92,4.25v-5.73m-14.95,3.14v-5.73"/>
      <line class="cls-59" x1="151.22" y1="89.15" x2="165.13" y2="59.18"/>
      <path class="cls-59" d="m165.13,59.18l-38-21.94m0,0l-4.5,9.71m0,0l-3.64,7.84m0,0l-9.03,19.45m-6.14,13.24l-4.5,9.71"/>
      <line class="cls-59" x1="99.31" y1="97.18" x2="151.22" y2="89.15"/>
      <path class="cls-59" d="m99.31,102.91v-5.73m27.82-59.94l-51.91,8.03m0,0l-13.91,29.97"/>
      <line class="cls-59" x1="61.31" y1="75.24" x2="99.31" y2="97.18"/>
      <path class="cls-59" d="m61.31,80.97v-5.73m92.91,93.65l.35-.44m0,0l.44-.55m0,0l.31-.34m0,0l.52-.57m0,0l.27-.26m0,0l.6-.57m0,0l.23-.19m0,0l.67-.54m0,0l20.45-11.79m0,0l.81-.46m0,0l.2-.2m0,0l.59-.58m0,0l.24-.27m0,0l.51-.58m0,0l.28-.36m0,0l.44-.55m0,0l.32-.46m0,0l.35-.51m0,0l.35-.56m0,0l.27-.44m0,0l.37-.68m0,0l.2-.36m0,0l.37-.8m0,0l.12-.26m0,0l.37-.92m0,0l.06-.16m0,0l.34-1.04m0,0v-.04m.29-1.07l.02-.09m0,0l.18-.96m0,0l.03-.23m0,0l.09-.8m0,0v-.37m-32.38,7.52l13.8-7.96m0,0l2.3-1.33m-18.11,50.66l-1.64.95m0,0l-4.69,2.7m6.31-15.44l.05-.34m0,0l.11-.79m0,0l.05-.21m0,0l.21-.95m0,0l.03-.09m.33-1.09l.38-1.02m0,0l.06-.16m0,0l.4-.9m0,0l.12-.27m0,0l.41-.78m0,0l.19-.36m0,0l.4-.66m0,0l.27-.44m0,0l.38-.54m0,0l.35-.51m2.56-29.59l.25.28m0,0l.18.2m-.68-1.16l.12.32m0,0l.13.36m-.31-1.52l.03.38m0,0l.03.46m.08-1.78l-.06.41m.39-1.38l-.26.77m0,0l-.07.21m1.73-3.05l-.28.27m1.48-1.2l-.29.19m0,0l-.47.31m.79-.51h-.03m1.43-.27h-.22m0,0h-.47m1.26.23l-.19-.08m0,0l-.39-.16m18.45-16.3l3.5,2.03m-34.16,27.94l2.31,1.34m0,0l1.43.83m16.33,29.9l13.8-7.96m0,0l10.71-6.17m-18.18,21.11l.03.38m.11-1.32l-.06.41m0,0l-.08.53m.47-1.92l-.26.77m0,0l-.07.21m1.73-3.05l-.28.27m1.48-1.2l-.29.19m1.04-.46l-.27.1m0,0l-.48.17m1.43-.28h-.22m0,0h-.47m-3.51,6.72l.25.28m-.5-.96l.12.32m0,0l.13.36m-90.99.46l3.93,2.27m0,0l9.33,5.38m-51.75-70.56l-2.42,1.4m0,0l-.54.31m14.16,33.58l-1.46-3.47m6.48,15.36l.53,1.25m8.62,20.44l.54.31m0,0l9.49,5.48m-12.66-46.47l-2.63,1.52m0,0l-.33.19m4.65,10.55l.27.16m0,0l19.08,11.02m-47.43-24.89l-1.61-3.81m0,0l-12.56-29.77m2.96-1.71l-2.62,1.52m0,0l-.33.19m82.82-43.13l-1.06-.14m-17.19-7.41l-1.27-2.42m0,0l-.43-.81m43.87.69l-.71,1.76m50.66,74.85l-.02-11.79m-33.94,46.51l.31-1.05m0,0v-.04m7.55-41.18l-.28.28m0,0l-.16.15m1.95-1.2l-.27.1m0,0l-.45.16m17.9,48.03l-.28.28m0,0l-.16.15m.91-.74l-.04.02m0,0l-.43.29m-121.73-24.68l-.1-.23m0,0l-12.6-29.88m23.04,54.64l5.28,12.52M135.56,62.75l-.19.47m0,0l-.43,1.06m49.93,64.82v-1.9m0,0v-6.42m-122.12,52.01l2.92,6.91m0,0l.43,1.01m90.4-42.94l.08-.53m.39-1.38l.5-.95m27.52,47.09l-.02-10.3m-9.73,14.44l-.03-.46m.71,1.62l-.18-.2m-70.41-113.48l4.65.63M31.11,115.78l.04.02"/>
    </g>
  </g>
</svg>