<?xml version="1.0" encoding="UTF-8"?>
<svg id="Layer_2" data-name="Layer 2" xmlns="http://www.w3.org/2000/svg" viewBox="0 0 157.33 179.56">
  <defs>
    <style>
      .cls-1 {
        fill: #fff;
      }

      .cls-2 {
        fill: #be1e2d;
      }

      .cls-3 {
        fill: none;
      }

      .cls-4 {
        fill: #1c75bc;
      }
    </style>
  </defs>
  <g id="Layer_1-2" data-name="Layer 1">
    <g>
      <path d="m157.33,131.24V48.31c0-2.45-1.31-4.71-3.42-5.93L82.09.92c-2.12-1.22-4.73-1.22-6.85,0L3.42,42.38c-2.12,1.22-3.42,3.48-3.42,5.93v82.93c0,2.45,1.31,4.71,3.42,5.93l71.82,41.47c2.12,1.22,4.73,1.22,6.85,0l71.82-41.47c2.12-1.22,3.42-3.48,3.42-5.93Z"/>
      <g>
        <path class="cls-4" d="m63.13,42v77.89c0,8.37-1.92,14.59-5.76,18.67-3.84,4.09-9.7,6.13-17.58,6.13-2.92,0-5.4-.2-7.44-.59v-6.54h.08c7.88,0,13.73-2.04,17.58-6.13,3.84-4.08,5.76-10.3,5.76-18.67V42h7.36Z"/>
        <path class="cls-1" d="m107.1,56.61c-.19-.01-.38-.02-.58-.02h-7.73v19.81c-.35.03-.71.04-1.09.04h-6.27v-26.98h7.73c2.82,0,4.89.82,6.2,2.48.88,1.1,1.45,2.66,1.74,4.67Z"/>
        <path class="cls-4" d="m132.34,111.14v8.75c0,7.88-2.06,13.88-6.2,18.02-4.13,4.13-10.18,6.19-18.16,6.19h-25.23v-7.13h17.87c7.97,0,14.03-2.06,18.16-6.2,4.13-4.13,6.2-10.13,6.2-18.01v-8.75c0-5.46-.91-9.91-2.72-13.39,6.71,3.16,10.08,9.99,10.08,20.52Z"/>
        <path class="cls-4" d="m130.74,65.48v4.09c0,5.25-.85,9.53-2.55,12.83-1.54,2.99-3.82,5.21-6.82,6.69-1.97-3.01-4.75-5.15-8.35-6.38v-.29c3.5-1.46,6.1-3.84,7.8-7.15.1-.19.19-.38.28-.57,1.51-3.22,2.27-7.31,2.27-12.26v-4.09c0-5.61-.96-10.18-2.84-13.75,1.74.85,3.27,1.89,4.52,3.16,3.79,3.84,5.69,9.75,5.69,17.72Z"/>
        <path class="cls-1" d="m55.77,42v70.76c0,8.37-1.92,14.59-5.76,18.67-3.85,4.09-9.7,6.13-17.58,6.13h-.08v-8.04c.6.15,1.23.27,1.88.36,1.05.15,2.17.22,3.37.22,3.21,0,5.59-.8,7.15-2.41,1.56-1.6,2.33-4.05,2.33-7.36V42h8.69Z"/>
        <path class="cls-2" d="m55.77,34.87v7.13h-8.69v78.33c0,3.31-.77,5.76-2.33,7.36-1.56,1.61-3.94,2.41-7.15,2.41-1.2,0-2.32-.07-3.37-.22-.65-.09-1.28-.21-1.88-.36v8.04c-2.88-.01-5.34-.2-7.36-.59v-14.58c1.55.39,3.3.58,5.25.58,2.54,0,4.56-.5,6.06-1.51.4-.26.76-.56,1.09-.9,1.55-1.6,2.33-4.05,2.33-7.36V34.87h16.05Z"/>
        <path class="cls-1" d="m122.27,90.62c-.28-.53-.57-1.04-.89-1.53"/>
        <path class="cls-1" d="m122.26,90.62l-.89-1.53c-1.97-3.01-4.75-5.15-8.35-6.38v-.29c3.5-1.46,6.1-3.84,7.8-7.15.1-.19.19-.38.28-.57,1.51-3.22,2.27-7.31,2.27-12.26v-4.09c0-5.61-.96-10.18-2.84-13.75-3.53-1.72-8.03-2.6-13.57-2.6h-24.21v94.97h17.87c7.97,0,14.03-2.06,18.16-6.2,4.13-4.13,6.2-10.13,6.2-18.01v-8.75c0-5.46-.91-9.91-2.72-13.39Zm-30.83-41.16h7.73c2.82,0,4.89.82,6.2,2.48.88,1.1,1.45,2.66,1.74,4.67,2.52.11,4.4.92,5.62,2.46.44.55.8,1.2,1.08,1.97h0c.6,1.56.89,3.58.89,6.05v5.69c0,3.89-.8,6.66-2.4,8.31-1.61,1.66-4.02,2.48-7.22,2.48h-6.28v-7.17c-.35.03-.71.04-1.09.04h-6.27v-26.98Zm24.87,69.99c0,3.7-.68,6.3-2.04,7.81-1.37,1.51-3.46,2.26-6.28,2.26h-9.19v-7.13h-7.36v-31.36h7.15c1.04,0,1.99.07,2.87.22,2.23.36,3.92,1.19,5.08,2.48.93,1.04,1.58,2.58,1.97,4.59,2.27.32,4,1.1,5.2,2.34.07.06.13.13.19.2,1.61,1.8,2.41,5.03,2.41,9.7v8.89Z"/>
        <path class="cls-4" d="m114.69,67.09v5.69c0,3.89-.8,6.66-2.4,8.31-1.61,1.66-4.02,2.48-7.22,2.48h-6.28v-7.17c2.67-.17,4.72-.98,6.13-2.44,1.61-1.65,2.41-4.42,2.41-8.31v-5.69c0-1.24-.08-2.35-.23-3.35,2.52.11,4.4.92,5.62,2.46.44.55.8,1.2,1.08,1.97h0c.6,1.56.89,3.58.89,6.05Z"/>
        <path class="cls-2" d="m108.5,98.32c-.79-.11-1.64-.16-2.56-.16h-7.15v24.23h-7.36v-31.36h7.15c1.04,0,1.99.07,2.87.22,2.23.36,3.92,1.19,5.08,2.48.93,1.04,1.58,2.58,1.97,4.59Z"/>
        <path class="cls-4" d="m116.3,110.56v8.89c0,3.7-.68,6.3-2.04,7.81-1.37,1.51-3.46,2.26-6.28,2.26h-9.19v-7.13h1.83c2.82,0,4.91-.75,6.27-2.26,1.36-1.51,2.04-4.11,2.04-7.81v-8.89c0-1.96-.15-3.65-.43-5.11,2.27.32,4,1.1,5.2,2.34.07.06.13.13.19.2,1.61,1.8,2.41,5.03,2.41,9.7Z"/>
        <path class="cls-3" d="m108.93,103.43v8.89c0,3.7-.68,6.3-2.04,7.81-1.36,1.51-3.45,2.26-6.27,2.26h-1.83v-24.23h7.15c.92,0,1.77.05,2.56.16.28,1.46.43,3.15.43,5.11Z"/>
        <path class="cls-1" d="m107.1,56.61c-.19-.01-.38-.02-.58-.02h-7.73v19.81c-.35.03-.71.04-1.09.04h-6.27v-26.98h7.73c2.82,0,4.89.82,6.2,2.48.88,1.1,1.45,2.66,1.74,4.67Z"/>
        <path class="cls-2" d="m107.1,56.61c-.19-.01-.38-.02-.58-.02h-7.73v19.81c-.35.03-.71.04-1.09.04h-6.27v-26.98h7.73c2.82,0,4.89.82,6.2,2.48.88,1.1,1.45,2.66,1.74,4.67Z"/>
        <path class="cls-2" d="m120.53,44.6c-3.53-1.72-8.03-2.6-13.57-2.6h-24.21v94.97h-7.36V34.87h24.21c8.26,0,14.29,1.92,18.09,5.76,1.12,1.14,2.05,2.48,2.84,3.97Z"/>
        <path class="cls-3" d="m107.33,59.96v5.69c0,3.89-.8,6.66-2.41,8.31-1.41,1.46-3.46,2.27-6.13,2.44v-19.81h7.73c.2,0,.39.01.58.02.15,1,.23,2.11.23,3.35Z"/>
      </g>
    </g>
  </g>
</svg>