<?xml version="1.0" encoding="UTF-8"?>
<svg id="Layer_2" data-name="Layer 2" xmlns="http://www.w3.org/2000/svg" viewBox="0 0 227.68 259.15">
  <defs>
    <style>
      .cls-1 {
        fill: #fff;
      }

      .cls-2 {
        fill: #a9a8a9;
      }

      .cls-3 {
        fill: #b94026;
      }

      .cls-4 {
        fill: #5a80c0;
      }

      .cls-5 {
        fill: #f6f6f6;
      }

      .cls-6 {
        fill: #bfbfbf;
      }

      .cls-7 {
        fill: #c44427;
      }

      .cls-8 {
        fill: #131313;
      }

      .cls-9 {
        fill: #dbdada;
      }

      .cls-10 {
        fill: #d9ba5d;
      }

      .cls-11 {
        fill: #dcdbdb;
      }

      .cls-12 {
        fill: #c9c9c9;
      }

      .cls-13 {
        fill: #4558a7;
      }

      .cls-14 {
        fill: #bdbdbd;
      }

      .cls-15 {
        fill: #dab927;
      }

      .cls-16 {
        fill: #d4d4d4;
      }

      .cls-17 {
        fill: #242424;
      }

      .cls-18 {
        fill: #cf5828;
      }

      .cls-19 {
        fill: #485ca9;
      }

      .cls-20 {
        fill: #485ba9;
      }

      .cls-21 {
        fill: #e5e5e5;
      }

      .cls-22 {
        fill: none;
      }

      .cls-23 {
        fill: #cfb024;
      }

      .cls-24 {
        fill: #b8b9b9;
      }

      .cls-25 {
        fill: #d2d2d2;
      }

      .cls-26 {
        fill: #1e1e1e;
      }

      .cls-27 {
        fill: #c6c6c5;
      }

      .cls-28 {
        fill: #58595b;
      }

      .cls-29 {
        fill: #dddcdc;
      }
    </style>
  </defs>
  <g id="Layer_1-2" data-name="Layer 1">
    <path class="cls-1" d="m113.84,259.15c-2.09,0-4.19-.54-6.06-1.62L6.06,198.8c-3.75-2.17-6.06-6.17-6.06-10.5v-117.45c0-4.33,2.31-8.34,6.06-10.5L107.78,1.62c3.75-2.17,8.38-2.17,12.13,0l101.71,58.73c3.75,2.17,6.06,6.17,6.06,10.5v117.45c0,4.33-2.31,8.34-6.06,10.5l-101.71,58.72c-1.88,1.08-3.97,1.62-6.06,1.62ZM24.25,181.3l89.59,51.72,89.59-51.72v-103.45L113.84,26.13,24.25,77.85v103.45Z"/>
    <g>
      <polygon points="136.64 90.89 103.58 71.8 103.58 64.53 138.09 84.45 138.09 90.44 136.72 90.88 136.64 90.89"/>
      <polygon points="143.45 105.39 132.13 98.86 132.13 91.59 143.45 98.13 143.45 105.39"/>
      <polygon points="148.62 104.18 143.45 105.39 143.45 98.13 148.62 96.91 148.62 104.18"/>
      <polygon points="152.83 102.34 148.62 104.18 148.62 96.91 152.83 95.07 152.83 102.34"/>
      <polygon points="155.38 100.56 152.83 102.34 152.83 95.07 155.38 93.3 155.38 100.56"/>
      <polygon points="157.11 98.65 155.38 100.56 155.38 93.3 157.11 91.38 157.11 98.65"/>
      <polygon points="158.02 96.6 157.11 98.65 157.11 91.38 158.02 89.33 158.02 96.6"/>
      <polygon points="158.12 94.41 158.02 96.6 158.02 89.33 158.12 87.14 158.12 94.41"/>
      <polygon class="cls-28" points="103.58 64.53 114.86 58.02 150.6 78.65 153.65 80.67 155.92 82.76 157.41 84.92 158.12 87.14 158.02 89.33 157.11 91.38 155.38 93.3 152.83 95.07 148.62 96.91 143.45 98.13 132.13 91.59 136.64 90.89 136.72 90.88 138.09 90.44 139.24 90.06 140.2 89.27 140.78 88.79 141.09 87.43 140.2 85.98 138.09 84.45 103.58 64.53"/>
      <polygon points="141.09 87.43 140.78 88.79 140.2 89.27 140.2 85.98 141.09 87.43"/>
      <polygon points="138.09 84.45 140.2 85.98 140.2 89.27 139.24 90.06 138.09 90.44 138.09 84.45"/>
      <polygon points="130.45 61.89 130.05 59.61 130.05 52.34 130.45 54.62 130.45 61.89"/>
      <polygon points="131.66 64.05 130.45 61.89 130.45 54.62 131.66 56.78 131.66 64.05"/>
      <polygon points="133.67 66.09 131.66 64.05 131.66 56.78 133.67 58.83 133.67 66.09"/>
      <polygon points="136.49 68.01 133.67 66.09 133.67 58.83 136.49 60.75 136.49 68.01"/>
      <polygon points="141.65 70.24 136.49 68.01 136.49 60.75 141.65 62.97 141.65 70.24"/>
      <polygon points="147.69 71.45 141.65 70.24 141.65 62.97 147.69 64.18 147.69 71.45"/>
      <polygon points="155.13 71.79 147.69 71.45 147.69 64.18 155.13 64.52 155.13 71.79"/>
      <polygon points="152.51 54.79 151.81 55.06 149.51 54.75 148.21 54.27 148.21 49.2 152.51 47.52 152.51 54.79"/>
      <polygon points="159.12 53.35 152.51 54.79 152.51 47.52 159.12 46.09 159.12 53.35"/>
      <polygon points="164.48 71.37 155.13 71.79 155.13 64.52 164.48 64.1 164.48 71.37"/>
      <polygon points="173.98 87.47 162.4 80.78 162.4 73.51 173.98 80.2 173.98 87.47"/>
      <polygon points="171.06 71.23 164.48 71.37 164.48 64.1 171.06 63.96 171.06 71.23"/>
      <polygon points="171.51 71.3 171.06 71.23 171.06 63.96 173.15 64.31 173.15 70.66 171.51 71.3"/>
      <polygon points="180.33 85.74 173.98 87.47 173.98 80.2 180.33 78.47 180.33 85.74"/>
      <polygon points="185.59 83.34 180.33 85.74 180.33 78.47 185.59 76.07 185.59 83.34"/>
      <polygon points="188.64 81.28 185.59 83.34 185.59 76.07 188.64 74.01 188.64 81.28"/>
      <polygon points="190.86 79.08 188.64 81.28 188.64 74.01 190.86 71.81 190.86 79.08"/>
      <polygon points="192.24 76.76 190.86 79.08 190.86 71.81 192.24 69.49 192.24 76.76"/>
      <polygon points="192.8 74.3 192.24 76.76 192.24 69.49 192.8 67.03 192.8 74.3"/>
      <polygon class="cls-28" points="173.98 80.2 162.4 73.51 169.68 72.02 171.51 71.3 173.15 70.66 174.54 70.12 174.83 69.88 176.14 68.85 176.27 68.54 176.71 67.51 176.27 66.19 174.83 65 173.15 64.31 171.06 63.96 164.48 64.1 155.13 64.52 147.69 64.18 141.65 62.97 136.49 60.75 133.67 58.83 131.66 56.78 130.45 54.62 130.05 52.34 130.45 50.06 131.66 47.9 133.67 45.86 136.49 43.94 141.75 41.49 147.99 39.66 159.12 46.09 152.51 47.52 148.21 49.2 146.6 50.43 145.94 51.7 146.25 52.92 146.6 53.22 147.54 54.02 148.21 54.27 149.51 54.75 151.81 55.06 152.27 55.12 160.2 54.83 166.36 54.49 173.49 54.66 177.18 55.05 180.6 55.78 183.75 56.85 186.64 58.27 189.44 60.22 191.4 62.32 192.52 64.59 192.8 67.03 192.24 69.49 190.86 71.81 188.64 74.01 185.59 76.07 180.33 78.47 173.98 80.2"/>
      <polygon points="176.27 66.19 176.71 67.51 176.27 68.54 176.27 66.19"/>
      <polygon points="174.83 65 176.27 66.19 176.27 68.54 176.14 68.85 174.83 69.88 174.83 65"/>
      <polygon points="173.15 64.31 174.83 65 174.83 69.88 174.54 70.12 173.15 70.66 173.15 64.31"/>
      <polygon points="146.6 50.43 148.21 49.2 148.21 54.27 147.54 54.02 146.6 53.22 146.6 50.43"/>
      <polygon points="145.94 51.7 146.6 50.43 146.6 53.22 146.25 52.92 145.94 51.7"/>
      <polygon class="cls-3" points="139.96 211.95 134.66 148.66 137.83 150.5 143.14 213.78 139.96 211.95"/>
      <polygon class="cls-7" points="134.66 148.66 191.15 116.05 194.32 117.88 137.83 150.5 134.66 148.66"/>
      <path class="cls-7" d="m194.32,117.88l-5.3,69.41-22.94,20.76-22.94,5.74-5.3-63.29,56.49-32.62Zm-28.25,21.76v8.17l-17.68,10.21,1.89,23.48,2.3,1.33,13.48-7.78v10.44l-5.7,1.45-.35-4.16-2.3-1.33-7.08,4.09.95,12.13,2.3,1.33,12.18-3.06v6.54l18.59-16.86,4.53-59.32-23.12,13.35Z"/>
      <polygon class="cls-26" points="139.88 140.06 139.88 127.69 143.05 129.52 143.05 141.89 139.88 140.06"/>
      <polygon class="cls-26" points="146.77 136.08 146.77 135.69 149.95 133.86 149.95 137.91 146.77 136.08"/>
      <polygon class="cls-26" points="155.05 131.3 155.05 126.8 155.11 126.83 158.23 125.03 158.23 133.13 155.05 131.3"/>
      <polygon class="cls-26" points="146.65 128.05 146.77 127.98 149.95 129.81 146.65 131.72 146.65 128.05"/>
      <polygon class="cls-26" points="146.77 127.98 146.77 123.7 149.95 125.54 149.95 129.81 146.77 127.98"/>
      <polygon class="cls-26" points="139.88 127.69 143.47 125.61 146.65 127.44 143.05 129.52 139.88 127.69"/>
      <polygon class="cls-26" points="163.39 126.48 163.39 122.05 165.02 121.11 165.02 116.84 163.39 115.89 163.39 114.11 166.57 115.94 166.57 128.32 163.39 126.48"/>
      <polygon class="cls-26" points="151.93 122.51 151.93 120.72 155.11 122.56 155.11 126.83 155.05 126.8 153.57 125.94 153.57 123.45 151.93 122.51"/>
      <polygon class="cls-26" points="146.77 123.7 150.39 121.62 151.93 122.51 153.57 123.45 149.95 125.54 146.77 123.7"/>
      <polygon class="cls-26" points="151.93 120.72 161.85 115 163.39 115.89 165.02 116.84 155.11 122.56 151.93 120.72"/>
      <polygon class="cls-26" points="177.28 108.23 177.28 106.09 180.46 107.92 180.46 120.29 178.61 119.22 178.61 108.99 177.28 108.23"/>
      <polygon class="cls-17" points="169.96 113.54 171.62 109.36 174.79 111.2 172.59 116.74 170.34 113.77 169.96 113.54"/>
      <polygon class="cls-26" points="163.39 114.11 167.16 111.93 169.96 113.54 170.34 113.77 166.57 115.94 163.39 114.11"/>
      <polygon class="cls-26" points="184.05 110.4 185.85 109.37 189.03 111.2 184.05 114.07 184.05 110.4"/>
      <polygon class="cls-26" points="171.62 109.36 175.43 107.16 177.28 108.23 178.61 108.99 174.79 111.2 171.62 109.36"/>
      <polygon class="cls-26" points="177.28 106.09 180.88 104.01 184.05 105.85 180.46 107.92 177.28 106.09"/>
      <polygon class="cls-28" points="149.95 129.81 149.95 125.54 153.57 123.45 153.57 125.94 153.57 135.82 149.95 137.91 149.95 133.86 146.77 135.69 146.65 135.77 146.65 139.82 143.05 141.89 143.05 129.52 146.65 127.44 146.65 128.05 146.65 131.72 149.95 129.81"/>
      <polygon class="cls-28" points="158.23 125.03 155.11 126.83 155.11 122.56 165.02 116.84 165.02 121.11 163.39 122.05 161.88 122.92 161.88 131.02 158.23 133.13 158.23 125.03"/>
      <polygon class="cls-28" points="178.61 121.37 175.12 123.38 175.12 117.19 172.99 122.16 172.59 123.09 170.07 120.11 170.07 121.63 170.07 126.29 166.57 128.32 166.57 115.94 170.34 113.77 172.59 116.74 174.79 111.2 178.61 108.99 178.61 119.22 178.61 121.37"/>
      <polygon class="cls-26" points="175.12 117.19 175.12 123.38 172.99 122.16 175.12 117.19"/>
      <polygon class="cls-8" points="170.07 120.11 172.59 123.09 170.07 121.63 170.07 120.11"/>
      <polygon class="cls-28" points="184.05 114.07 189.03 111.2 189.03 115.35 180.46 120.29 180.46 107.92 184.05 105.85 184.05 110.4 184.05 114.07"/>
      <polygon class="cls-16" points="51.68 176.58 59.72 183.72 56.26 185.73 48.23 178.59 51.68 176.58"/>
      <polygon class="cls-4" points="59.75 144.6 59.72 136.14 83.67 149.75 79.35 206.32 59.76 201.46 59.74 195.44 71.49 198.35 74.95 196.35 78.1 155.03 59.75 144.6"/>
      <polygon class="cls-25" points="78.1 155.03 74.95 196.35 71.49 198.35 74.65 157.03 78.1 155.03"/>
      <polygon class="cls-11" points="59.75 144.6 78.1 155.03 74.65 157.03 56.3 146.6 59.72 144.62 59.75 144.6"/>
      <polygon class="cls-4" points="59.72 161.7 59.72 157.09 66.69 161.06 66.36 165.47 59.72 161.7"/>
      <polygon class="cls-11" points="59.72 161.7 66.36 165.47 66.07 169.28 56.26 163.71 59.72 161.7"/>
      <polygon class="cls-4" points="59.72 183.72 59.72 174.24 65.43 177.51 64.86 185.05 59.72 183.72"/>
      <polygon class="cls-24" points="59.72 183.72 64.86 185.05 64.65 187.89 56.26 185.73 59.72 183.72"/>
      <polygon class="cls-14" points="59.72 161.7 56.26 163.71 39.35 154.09 42.8 152.09 59.72 161.7"/>
      <polygon class="cls-14" points="40.38 167.41 43.83 165.4 51.14 169.55 47.68 171.56 40.38 167.41"/>
      <polygon class="cls-27" points="51.68 176.58 48.23 178.59 47.68 171.56 51.14 169.55 51.68 176.58"/>
      <polygon class="cls-14" points="40.04 163.04 39.35 154.09 56.26 163.71 56.26 172.26 40.04 163.04"/>
      <polygon class="cls-29" points="56.26 172.26 56.26 163.71 66.07 169.28 66.36 165.47 66.69 161.06 59.72 157.09 56.26 155.13 56.26 146.58 56.3 146.6 74.65 157.03 71.49 198.35 59.74 195.44 56.27 194.58 56.27 194.57 56.27 193.32 56.26 185.73 64.65 187.89 64.86 185.05 65.43 177.51 59.72 174.24 56.26 172.26"/>
      <polygon class="cls-14" points="37.96 136.18 41.41 134.17 59.72 144.58 56.26 146.58 37.96 136.18"/>
      <polygon class="cls-14" points="56.26 146.58 59.72 144.58 59.72 144.62 56.3 146.6 56.26 146.58"/>
      <polygon class="cls-14" points="56.26 146.58 56.26 155.13 38.65 145.12 37.96 136.18 56.26 146.58"/>
      <polygon class="cls-14" points="56.26 185.73 56.27 193.32 56.27 194.58 41.47 181.44 40.38 167.41 47.68 171.56 48.23 178.59 56.26 185.73"/>
      <path class="cls-15" d="m113.84,129.58L14.63,72.3,113.84,15.02l99.21,57.28-99.21,57.28Zm-10.27-57.78l33.07,19.09-4.51.7v7.27l11.32,6.53,5.18-1.21,4.21-1.84,2.55-1.78,1.73-1.91.91-2.05.09-2.19v-7.27l-.71-2.22-1.49-2.16-2.27-2.09-3.05-2.02-35.74-20.64-11.28,6.51v7.27Zm26.47-12.19l.4,2.28,1.21,2.16,2.01,2.04,2.82,1.92,5.17,2.22,6.04,1.21,7.44.33,9.35-.42,6.57-.14.45.08-1.83.72-7.28,1.49v7.27l11.58,6.68,6.35-1.73,5.27-2.4,3.05-2.06,2.22-2.19,1.39-2.32.55-2.46v-7.27l-.28-2.44-1.12-2.27-1.96-2.11-2.8-1.94-2.89-1.42-3.15-1.07-3.42-.73-3.68-.39-7.14-.17-6.15.34-7.93.29-.46-.06.69-.27,6.62-1.43v-7.27l-11.13-6.43-6.25,1.83-5.26,2.45-2.82,1.92-2.01,2.04-1.21,2.16-.4,2.28v7.27Z"/>
      <path class="cls-23" d="m14.63,72.3l99.21,57.28v114.56L14.63,186.86v-114.56Zm52.41,39.82l-8.96-5.09-1.7.99v-2.16s-8.97-5.09-8.97-5.09l-4.71,2.73.02,4.34.03,8.63,8.96,5.09,1.7-.99v2.16s8.97,5.09,8.97,5.09l2.03-1.18v2.39s8.97,5.09,8.97,5.09l4.71-2.73-.03-8.63-.58-.33.57-.33v-3.68s-8.97-5.09-8.97-5.09l-2.03,1.18v-2.39Zm16.94,101.13l2.76-1.61,5.03-65.88-58.63-33.33-2.76,1.61,5.57,71.9,24.05,21.36,23.99,5.95Z"/>
      <path class="cls-10" d="m113.84,129.58l99.21-57.28v114.56l-99.21,57.28v-114.56Zm20.81,19.08l5.3,63.29,3.18,1.83,22.94-5.74,22.94-20.76,5.3-69.41-3.18-1.83-56.49,32.62Zm5.22-20.98v12.37l3.18,1.83,3.59-2.08v-4.05l.13-.07v.38l3.18,1.83,3.62-2.09v-9.88l1.48.86v4.5l3.18,1.83,3.65-2.11v-8.1l1.51-.87v4.43l3.18,1.83,3.5-2.02v-4.66l2.52,1.46.4-.94,2.12,1.23,3.49-2.01v-2.14l1.86,1.07,8.57-4.95v-4.15l-3.18-1.83-1.8,1.04v-4.56l-3.18-1.83-3.59,2.07v2.14l-1.86-1.07-3.81,2.2-1.66,4.18-2.79-1.61-3.77,2.18v1.78l-1.54-.89-9.91,5.72v1.78l-1.54-.89-3.62,2.09v4.27l-.13.07v-.61l-3.18-1.83-3.59,2.08Z"/>
      <polygon points="67.04 112.12 62.34 114.85 53.38 109.76 56.38 108.02 58.09 107.03 67.04 112.12"/>
      <polygon points="62.34 114.85 67.04 112.12 67.05 114.51 64.38 116.07 64.38 117.35 62.35 118.53 62.34 114.85"/>
      <polygon class="cls-28" points="62.39 127.83 53.43 122.74 53.42 120.58 53.42 118.79 58.59 121.74 58.59 121.04 54.02 118.44 53.41 118.1 53.41 116.23 53.39 112.77 53.39 111.95 53.38 109.76 62.34 114.85 62.35 118.53 57.88 115.99 57.3 115.66 57.31 116.32 62.35 119.19 62.39 127.83"/>
      <polygon points="57.31 116.32 57.3 115.66 57.88 115.99 57.31 116.32"/>
      <polygon points="57.31 116.32 57.88 115.99 62.35 118.53 64.38 117.35 64.38 118.01 62.35 119.19 57.31 116.32"/>
      <polygon points="62.35 119.19 64.38 118.01 64.41 124.41 65.01 124.75 64.41 125.1 64.42 126.65 62.39 127.83 62.35 119.19"/>
      <polygon points="58.59 121.74 53.42 118.79 54.02 118.44 58.59 121.04 58.59 121.74"/>
      <polygon points="54.02 118.44 53.42 118.79 53.42 120.58 51.72 121.57 51.7 117.22 53.41 116.23 53.41 118.1 54.02 118.44"/>
      <polygon points="56.38 105.86 56.38 108.02 53.38 109.76 53.39 111.95 52.67 112.36 51.69 112.94 51.67 108.59 56.38 105.86"/>
      <polygon points="56.38 105.86 51.67 108.59 42.71 103.5 47.42 100.77 56.38 105.86"/>
      <polygon class="cls-28" points="51.72 121.57 42.76 116.48 42.73 107.85 42.71 103.5 51.67 108.59 51.69 112.94 50.37 112.19 46.64 110.07 46.66 114.35 51.7 117.22 51.72 121.57"/>
      <polygon points="46.66 114.35 46.64 110.07 50.37 112.19 46.66 114.35"/>
      <polygon points="46.66 114.35 50.37 112.19 51.69 112.94 52.67 112.36 53.39 112.77 53.41 116.23 51.7 117.22 46.66 114.35"/>
      <polygon class="cls-15" points="53.39 112.77 52.67 112.36 53.39 111.95 53.39 112.77"/>
      <polygon points="69.08 113.33 78.04 118.42 73.33 121.16 64.38 116.07 67.05 114.51 69.08 113.33"/>
      <polygon points="73.33 121.16 78.04 118.42 78.05 122.1 77.48 122.44 73.35 124.84 73.33 121.16"/>
      <polygon class="cls-28" points="73.38 134.13 64.43 129.04 64.42 126.65 64.41 125.1 69.59 128.04 69.58 127.35 65.01 124.75 64.41 124.41 64.38 118.01 64.38 117.35 64.38 116.07 73.33 121.16 73.35 124.84 68.87 122.3 68.3 121.97 68.3 122.63 73.35 125.5 73.38 134.13"/>
      <polygon points="68.3 122.63 68.3 121.97 68.87 122.3 68.3 122.63"/>
      <polygon points="68.3 122.63 68.87 122.3 73.35 124.84 77.48 122.44 78.06 122.76 73.35 125.5 68.3 122.63"/>
      <polygon points="73.35 125.5 78.06 122.76 78.09 131.4 73.38 134.13 73.35 125.5"/>
      <polygon points="69.59 128.04 64.41 125.1 65.01 124.75 69.58 127.35 69.59 128.04"/>
      <polygon class="cls-13" points="86.76 211.64 83.99 213.25 89.02 147.37 91.78 145.76 86.76 211.64"/>
      <polygon class="cls-20" points="91.78 145.76 89.02 147.37 30.38 114.04 33.15 112.44 91.78 145.76"/>
      <path class="cls-19" d="m60,207.3l-24.05-21.36-5.57-71.9,58.63,33.33-5.03,65.88-23.99-5.95Zm-.29-23.58l-8.04-7.14-.54-7.03-7.3-4.15-3.45,2.01,1.09,14.03,14.8,13.14h0s0,0,0,0l3.47.86.02,6.02,19.59,4.86,4.32-56.57-23.95-13.61.03,8.46-.03-.02-18.3-10.4-3.45,2.01.69,8.94,17.61,10.01,3.45,1.96v4.61s-16.92-9.61-16.92-9.61l-3.45,2.01.69,8.94,16.22,9.22,3.45,1.98v9.49Z"/>
      <polygon class="cls-18" points="166.08 147.81 166.08 139.64 189.2 126.29 184.67 185.61 166.08 202.47 166.08 195.94 168.38 195.36 182.86 182.27 184.78 156.25 182.48 154.92 166.08 164.39 166.08 158.71 168.38 157.38 185.42 147.54 186.06 138.93 183.76 137.61 166.08 147.81"/>
      <polygon class="cls-6" points="151.6 197.67 150.64 185.53 152.95 186.86 153.9 198.99 151.6 197.67"/>
      <polygon class="cls-12" points="150.64 185.53 157.72 181.44 160.02 182.77 152.95 186.86 150.64 185.53"/>
      <polygon class="cls-2" points="160.38 186.94 166.08 185.48 168.38 186.81 160.53 188.81 160.38 186.94"/>
      <polygon class="cls-18" points="166.08 185.48 166.08 175.05 168.38 173.72 174.56 170.15 173.92 178.42 166.08 185.48"/>
      <polygon class="cls-6" points="150.29 181.5 148.4 158.02 150.7 159.35 152.6 182.83 150.29 181.5"/>
      <polygon class="cls-12" points="148.4 158.02 166.08 147.81 168.38 149.14 150.7 159.35 148.4 158.02"/>
      <polygon class="cls-7" points="166.08 158.71 166.08 164.39 158.83 168.58 158.37 163.16 166.08 158.71"/>
      <polygon class="cls-9" points="166.08 164.39 182.48 154.92 184.78 156.25 168.38 165.72 166.08 164.39"/>
      <polygon class="cls-9" points="166.08 147.81 183.76 137.61 186.06 138.93 168.38 149.14 166.08 147.81"/>
      <polygon class="cls-12" points="158.83 168.58 166.08 164.39 168.38 165.72 159.04 171.11 158.83 168.58"/>
      <polygon class="cls-5" points="166.08 185.48 173.92 178.42 176.23 179.75 168.38 186.81 166.08 185.48"/>
      <polygon class="cls-21" points="173.92 178.42 174.56 170.15 177.08 168.7 176.23 179.75 173.92 178.42"/>
      <polygon class="cls-9" points="176.23 179.75 177.08 168.7 174.56 170.15 168.38 173.72 168.38 165.72 184.78 156.25 182.86 182.27 168.38 195.36 168.38 186.81 176.23 179.75"/>
      <polygon class="cls-9" points="185.42 147.54 168.38 157.38 168.38 149.14 186.06 138.93 185.42 147.54"/>
      <polygon class="cls-12" points="168.38 149.14 168.38 157.38 166.08 158.71 158.37 163.16 158.83 168.58 159.04 171.11 168.38 165.72 168.38 173.72 166.08 175.05 152.6 182.83 150.7 159.35 168.38 149.14"/>
      <polygon class="cls-12" points="168.38 186.81 168.38 195.36 166.08 195.94 153.9 198.99 152.95 186.86 160.02 182.77 160.38 186.94 160.53 188.81 168.38 186.81"/>
      <path class="cls-22" d="m103.58,71.8l33.07,19.09m-6.19-29l-.4-2.28m1.61,4.44l-1.21-2.16m3.22,4.2l-2.01-2.04m.47,34.81l11.32,6.53m-9.78-39.3l2.82,1.92m0,0l5.17,2.22m0,0l6.04,1.21m-4.24,33.94l5.18-1.21m-.93-32.73l7.44.33m-3.32-16.73l.69-.27m-3.88,49.39l4.21-1.84m-.33-47.55l6.62-1.43m-6.29,48.99l2.55-1.78m-.25-28.78l9.35-.42m-9.1,29.2l1.73-1.91m0,0l.91-2.05m0,0l.09-2.19m4.28-13.63l11.58,6.68m-9.49-16.1l6.57-.14m0,0l.45.08m2.47,16.16l6.35-1.73m0,0l5.27-2.4m0,0l3.05-2.06m0,0l2.22-2.19m0,0l1.39-2.32m0,0l.55-2.46M51.68,176.58l8.04,7.14"/>
      <path class="cls-22" d="m113.84,129.58L14.63,72.3m99.21,57.28l99.21-57.28"/>
      <path class="cls-22" d="m213.05,72.3L113.84,15.02M14.63,72.3L113.84,15.02"/>
      <path class="cls-22" d="m113.84,244.14l99.21-57.28m0,0v-114.56M14.63,186.86l99.21,57.28M14.63,72.3v114.56m88.95-122.33l11.28-6.51m0,0l35.74,20.64m0,0l3.05,2.02m0,0l2.27,2.09m0,0l1.49,2.16m0,0l.71,2.22"/>
      <path class="cls-22" d="m158.12,87.14l-.09,2.19m0,0l-.91,2.05m0,0l-1.73,1.91m0,0l-2.55,1.78m0,0l-4.21,1.84m0,0l-5.18,1.21m0,0l-11.32-6.53"/>
      <line class="cls-22" x1="140.78" y1="88.79" x2="141.09" y2="87.43"/>
      <path class="cls-22" d="m141.09,87.43l-.9-1.44m0,0l-2.11-1.53m0,0l-34.51-19.93"/>
      <path class="cls-22" d="m103.58,71.8v-7.27m54.54,29.88v-7.27"/>
      <line class="cls-22" x1="173.98" y1="80.2" x2="162.4" y2="73.51"/>
      <line class="cls-22" x1="162.4" y1="73.51" x2="169.68" y2="72.02"/>
      <path class="cls-22" d="m176.71,67.51l-.44-1.32m0,0l-1.44-1.18m0,0l-1.69-.69m0,0l-2.09-.35m0,0l-6.57.14m0,0l-9.35.42m0,0l-7.44-.33m0,0l-6.04-1.21m0,0l-5.17-2.22m0,0l-2.82-1.92m0,0l-2.01-2.04m0,0l-1.21-2.16m0,0l-.4-2.28"/>
      <path class="cls-22" d="m130.05,52.34l.4-2.28m0,0l1.21-2.16m0,0l2.01-2.04m0,0l2.82-1.92m0,0l5.26-2.45m0,0l6.25-1.83m0,0l11.13,6.43"/>
      <path class="cls-22" d="m159.12,46.09l-6.62,1.43m0,0l-4.29,1.68m0,0l-1.61,1.23m0,0l-.66,1.27"/>
      <path class="cls-22" d="m145.94,51.7l.31,1.23m6.02,2.2l7.93-.29m0,0l6.15-.34m0,0l7.14.17m0,0l3.68.39m0,0l3.42.73m0,0l3.15,1.07m0,0l2.89,1.42m0,0l2.8,1.94m0,0l1.96,2.11m0,0l1.12,2.27m0,0l.28,2.44"/>
      <path class="cls-22" d="m192.8,67.03l-.55,2.46m0,0l-1.39,2.32m0,0l-2.22,2.19m0,0l-3.05,2.06m0,0l-5.27,2.4m0,0l-6.35,1.73"/>
      <path class="cls-22" d="m130.05,59.61v-7.27m29.08,1.01v-7.27m33.68,28.22v-7.27"/>
      <line class="cls-22" x1="67.04" y1="112.12" x2="62.34" y2="114.85"/>
      <line class="cls-22" x1="67.04" y1="112.12" x2="58.09" y2="107.03"/>
      <line class="cls-22" x1="62.39" y1="127.83" x2="53.43" y2="122.74"/>
      <line class="cls-22" x1="57.3" y1="115.66" x2="57.31" y2="116.32"/>
      <line class="cls-22" x1="62.34" y1="114.85" x2="62.35" y2="118.53"/>
      <line class="cls-22" x1="53.38" y1="109.76" x2="62.34" y2="114.85"/>
      <path class="cls-22" d="m57.88,115.99l-.57.33m7.08,1.69l-2.03,1.18m0,0l.03,8.63"/>
      <line class="cls-22" x1="62.39" y1="127.83" x2="64.42" y2="126.65"/>
      <line class="cls-22" x1="57.31" y1="116.32" x2="62.35" y2="119.19"/>
      <line class="cls-22" x1="64.38" y1="117.35" x2="62.35" y2="118.53"/>
      <line class="cls-22" x1="67.05" y1="114.51" x2="67.04" y2="112.12"/>
      <line class="cls-22" x1="53.42" y1="118.79" x2="58.59" y2="121.74"/>
      <path class="cls-22" d="m53.42,118.79l.6-.35m4.57,2.6v.69"/>
      <line class="cls-22" x1="56.38" y1="105.86" x2="51.67" y2="108.59"/>
      <path class="cls-22" d="m56.38,108.02v-2.16m0,0l-8.96-5.09"/>
      <line class="cls-22" x1="51.72" y1="121.57" x2="42.76" y2="116.48"/>
      <line class="cls-22" x1="46.64" y1="110.07" x2="46.66" y2="114.35"/>
      <path class="cls-22" d="m47.42,100.77l-4.71,2.73m.02,4.34l.03,8.63"/>
      <line class="cls-22" x1="51.67" y1="108.59" x2="51.69" y2="112.94"/>
      <line class="cls-22" x1="42.73" y1="107.85" x2="42.71" y2="103.5"/>
      <line class="cls-22" x1="42.71" y1="103.5" x2="51.67" y2="108.59"/>
      <path class="cls-22" d="m50.37,112.19l-3.72,2.16m6.75,1.88l-1.7.99m0,0l.02,4.34"/>
      <line class="cls-22" x1="51.72" y1="121.57" x2="53.42" y2="120.58"/>
      <line class="cls-22" x1="46.66" y1="114.35" x2="51.7" y2="117.22"/>
      <line class="cls-22" x1="52.67" y1="112.36" x2="53.39" y2="112.77"/>
      <line class="cls-22" x1="78.04" y1="118.42" x2="73.33" y2="121.16"/>
      <line class="cls-22" x1="78.04" y1="118.42" x2="69.08" y2="113.33"/>
      <line class="cls-22" x1="73.38" y1="134.13" x2="64.43" y2="129.04"/>
      <line class="cls-22" x1="68.3" y1="121.97" x2="68.3" y2="122.63"/>
      <line class="cls-22" x1="73.33" y1="121.16" x2="73.35" y2="124.84"/>
      <line class="cls-22" x1="64.38" y1="116.07" x2="73.33" y2="121.16"/>
      <path class="cls-22" d="m68.87,122.3l-.57.33m9.75.13l-4.71,2.73m0,0l.03,8.63"/>
      <path class="cls-22" d="m73.38,134.13l4.71-2.73m-.03-8.63l.03,8.63"/>
      <line class="cls-22" x1="68.3" y1="122.63" x2="73.35" y2="125.5"/>
      <path class="cls-22" d="m77.48,122.44l.58.33m0-.66v-3.68"/>
      <line class="cls-22" x1="64.41" y1="125.1" x2="69.59" y2="128.04"/>
      <path class="cls-22" d="m64.41,125.1l.6-.35m4.57,2.6v.69m14.41,85.21l2.76-1.61m5.03-65.88l-5.03,65.88"/>
      <line class="cls-22" x1="91.78" y1="145.76" x2="89.02" y2="147.37"/>
      <path class="cls-22" d="m30.38,114.04l2.76-1.61m0,0l58.63,33.33m-25.42,19.71l-6.64-3.77m.03-17.1l-.03-8.46m.04,65.32l-.02-6.02m15.21.91l3.15-41.32m0,0l-18.35-10.43m23.92,5.15l-4.32,56.57m-19.64-70.18l23.95,13.61m-23.95,11.95v-4.61m0,26.63v-9.49m5.14,10.81l-5.14-1.33m-23.76,2.22l24.05,21.36m23.99,5.95l-23.99-5.95"/>
      <path class="cls-22" d="m89.02,147.37l-5.03,65.88M30.38,114.04l58.63,33.33"/>
      <path class="cls-22" d="m30.38,114.04l5.57,71.9m20.31-13.69v-8.55m3.45-19.13l-3.45,2.01m3.45,15.12l-3.45,2.01m0,30.87h0m-12.43-29.17l-3.45,2.01"/>
      <path class="cls-22" d="m51.68,176.58l-3.45,2.01m2.91-9.04l-3.45,2.01"/>
      <path class="cls-22" d="m59.72,183.72l-3.45,2.01m-16.22-22.69l-.69-8.94m16.92,18.16l-16.22-9.22m2.76-10.95l-3.45,2.01"/>
      <line class="cls-22" x1="56.26" y1="163.71" x2="39.35" y2="154.09"/>
      <line class="cls-22" x1="41.41" y1="134.17" x2="37.96" y2="136.18"/>
      <line class="cls-22" x1="59.72" y1="144.58" x2="59.72" y2="144.62"/>
      <line class="cls-22" x1="74.95" y1="196.35" x2="71.49" y2="198.35"/>
      <path class="cls-22" d="m78.1,155.03l-3.45,2.01m-3.15,41.32l3.15-41.32m0,0l-18.35-10.43m8.35,41.29l-8.38-2.17m0-22.02l9.8,5.57"/>
      <path class="cls-22" d="m56.26,146.58l.03.02m-.03,8.53v-8.55m0,46.73v-7.59m0-30.6l-17.61-10.01"/>
      <line class="cls-22" x1="37.96" y1="136.18" x2="56.26" y2="146.58"/>
      <path class="cls-22" d="m38.65,145.12l-.69-8.94m18.31,58.4l-14.8-13.14"/>
      <path class="cls-22" d="m56.27,194.58v-1.26m-8.04-14.73l8.04,7.14m-8.58-14.17l.54,7.03m-7.85-11.18l7.3,4.15"/>
      <line class="cls-22" x1="41.47" y1="181.44" x2="40.38" y2="167.41"/>
      <path class="cls-22" d="m149.95,125.54v4.27m-3.3,1.91l3.3-1.91m-3.3-2.37l-3.59,2.08m0,0v12.37"/>
      <path class="cls-22" d="m143.05,141.89l3.59-2.08m0,0v-4.05"/>
      <line class="cls-22" x1="149.95" y1="137.91" x2="153.57" y2="135.82"/>
      <path class="cls-22" d="m153.57,123.45l-3.62,2.09m-3.18,2.44l3.18,1.83m-3.18-6.11l3.18,1.83"/>
      <line class="cls-22" x1="143.47" y1="125.61" x2="146.65" y2="127.44"/>
      <line class="cls-22" x1="139.88" y1="127.69" x2="143.05" y2="129.52"/>
      <path class="cls-22" d="m139.88,140.06l3.18,1.83m3.72-5.82l3.18,1.83m5.16-11.08l3.12-1.8"/>
      <path class="cls-22" d="m158.23,133.13l3.65-2.11m0,0v-8.1m3.14-6.09v4.27"/>
      <path class="cls-22" d="m165.02,116.84l-9.91,5.72m0,0v4.27"/>
      <line class="cls-22" x1="155.05" y1="131.3" x2="158.23" y2="133.13"/>
      <path class="cls-22" d="m151.93,120.72l3.18,1.83m20,.82v-6.19"/>
      <line class="cls-22" x1="175.12" y1="123.38" x2="178.61" y2="121.37"/>
      <path class="cls-22" d="m178.61,108.99l-3.81,2.2m-2.2,5.54l2.2-5.54"/>
      <line class="cls-22" x1="170.34" y1="113.77" x2="172.59" y2="116.74"/>
      <path class="cls-22" d="m170.34,113.77l-3.77,2.18m0,12.37v-12.37"/>
      <line class="cls-22" x1="166.57" y1="128.32" x2="170.07" y2="126.29"/>
      <line class="cls-22" x1="172.59" y1="123.09" x2="170.07" y2="120.11"/>
      <path class="cls-22" d="m170.07,121.63l2.52,1.46m.4-.94l2.12,1.23"/>
      <path class="cls-22" d="m171.62,109.36l3.18,1.83m-11.4,2.91l3.18,1.83"/>
      <line class="cls-22" x1="163.39" y1="126.48" x2="166.57" y2="128.32"/>
      <path class="cls-22" d="m184.05,114.07l4.97-2.87m-4.97-5.35l-3.59,2.07m0,12.37v-12.37"/>
      <path class="cls-22" d="m180.46,120.29l8.57-4.95m0,0v-4.15m-3.18-1.83l3.18,1.83m-8.15-7.19l3.18,1.83"/>
      <line class="cls-22" x1="177.28" y1="106.09" x2="180.46" y2="107.92"/>
      <path class="cls-22" d="m178.61,119.22l1.86,1.07m13.86-2.41l-5.3,69.41"/>
      <path class="cls-22" d="m137.83,150.5l56.49-32.62m-56.49,32.62l5.3,63.29"/>
      <path class="cls-22" d="m143.14,213.78l22.94-5.74m22.94-20.76l-22.94,20.76"/>
      <path class="cls-22" d="m166.08,147.81v-8.17m0,0l23.12-13.35m0,0l-4.53,59.32m-18.59,16.86v-6.54m-14.48,1.73l-.95-12.13m0,0l7.08-4.09m2.65,5.49l5.7-1.45m0,0v-10.44m-17.68-17.03l1.89,23.48m15.78-33.69l-17.68,10.21"/>
      <line class="cls-22" x1="191.15" y1="116.05" x2="194.32" y2="117.88"/>
      <line class="cls-22" x1="134.66" y1="148.66" x2="137.83" y2="150.5"/>
      <line class="cls-22" x1="139.96" y1="211.95" x2="143.14" y2="213.78"/>
      <path class="cls-22" d="m166.08,164.39v-5.68m0,5.68l16.4-9.47m2.19,30.69l-18.59,16.86m0-54.66l17.68-10.21m-17.68,26.79l-7.25,4.19m15.1,9.84l-7.85,7.06m8.48-15.34l-.64,8.27m3.15-9.72l-.85,11.05m0,0l-7.85,7.06"/>
      <path class="cls-22" d="m182.86,182.27l-14.48,13.08m16.4-39.11l-1.92,26.02"/>
      <path class="cls-22" d="m168.38,165.72l16.4-9.47m-10.86,22.17l2.3,1.33m-10.15,5.73l2.3,1.33"/>
      <line class="cls-22" x1="182.48" y1="154.92" x2="184.78" y2="156.25"/>
      <line class="cls-22" x1="166.08" y1="164.39" x2="168.38" y2="165.72"/>
      <path class="cls-22" d="m168.38,157.38l17.04-9.84m.63-8.6l-.63,8.6"/>
      <line class="cls-22" x1="168.38" y1="149.14" x2="186.06" y2="138.93"/>
      <line class="cls-22" x1="183.76" y1="137.61" x2="186.06" y2="138.93"/>
      <path class="cls-22" d="m166.08,147.81l2.3,1.33m0,8.24v-8.24m0,0l-17.68,10.21m0,0l1.89,23.48m15.78-9.11v-8m0,0l-9.34,5.39m-10.64-13.09l2.3,1.33"/>
      <line class="cls-22" x1="150.29" y1="181.5" x2="152.6" y2="182.83"/>
      <path class="cls-22" d="m168.38,195.36v-8.54m-7.85,2l7.85-2m-15.43.05l7.08-4.09m-6.13,16.22l-.95-12.13"/>
      <line class="cls-22" x1="157.72" y1="181.44" x2="160.02" y2="182.77"/>
      <line class="cls-22" x1="150.64" y1="185.53" x2="152.95" y2="186.86"/>
      <path class="cls-22" d="m151.6,197.67l2.3,1.33m-21.77-107.4l4.51-.7m0,0h.08m0-.01l1.37-.44m0,0l1.15-.37m0,0l.96-.8m0,0l.58-.48m28.9-16.77l1.83-.72m3.03-1.19l.3-.23m0,0l1.31-1.03m0,0l.13-.31m0,0l.44-1.04m-30.46-14.58l.35.3m0,0l.94.8m0,0l.67.25m0,0l1.29.48m0,0l2.3.32m0,0l.46.06"/>
      <path class="cls-22" d="m58.09,107.03l-1.7.99m0,0l-3,1.75m.05,12.97v-2.16m0,0v-1.78m8.93-.26l-4.47-2.54m0,0l-.58-.33m-3.89,2.44v-1.87"/>
      <path class="cls-22" d="m58.59,121.04l-4.57-2.6m0,0l-.6-.34"/>
      <path class="cls-22" d="m53.39,111.95l-.71.41m0,0l-.99.57m0,0l-1.31-.75m0,0l-3.74-2.12m22.44,3.26l-2.03,1.18m0,0l-2.68,1.56m.05,12.97v-2.39m0,0v-1.55m8.93-.26l-4.47-2.54m0,0l-.58-.33m9.75.13l-.57.33m0,0l-4.13,2.4m-8.94-.43l-.03-6.39"/>
      <path class="cls-22" d="m69.58,127.35l-4.57-2.6m0,0l-.6-.34m-4.69,20.17l.03.02m0,0l-.03.02m0,0l-3.42,1.99m15.2,51.75l-11.76-2.92m0,0l-3.47-.86m10.42-33.52l-6.98-3.97m0,0l-3.45-1.96m9.17,22.38l-5.71-3.27m0,0l-3.45-1.98m9.8-2.98l.29-3.81m0,0l.34-4.42m-1.26,16.45l-.57,7.54m0,0l-.21,2.84m-8.38,5.42v1.26m0,0h0m90.38-62.85v-3.67m0,0v-.61m3.3,6.42l-3.18,1.83m0,0l-.13.07m6.92.05v-9.88m0,0v-2.49m-3.18-1.83l1.54.89m0,0l1.63.94m8.32-.53l1.51-.87m0,0l1.63-.94m-11.46,4.83l1.48.86m0,0l.06.03m6.74-11.83l1.54.89m0,0l1.63.94m10.09.36l-2.12,4.96m0,0l-.4.94m6.01-1.72v-2.14m0,0v-10.23m-8.53,17.3v-4.66m0,0v-1.53m5.36-12.95l1.86,1.07m0,0l1.32.76m-11.44,2.94l2.79,1.61m0,0l.38.22m13.72-7.92v4.56m0,0v3.67m-15.67,59.64l6.18-3.57m0,0l2.52-1.45m-18.71-5.54l.46,5.42m0,0l.21,2.53m9.34-13.73l-2.3,1.33m0,0l-7.71,4.45m10.01,10.56l-2.3,1.33m0,0l-13.48,7.78m7.43-.06l.35,4.16m0,0l.16,1.87m-6.63,10.19l12.18-3.06m0,0l2.3-.58m3.13-124.05l1.64-.64m0,0l1.39-.54"/>
      <path class="cls-22" d="m53.41,116.23v-3.46m10.98,5.24v-.66m0,0v-1.29m-10.99-3.29v-.82m0,0v-2.19"/>
      <path class="cls-22" d="m41.41,134.17l18.3,10.4m-15.88,20.82l7.3,4.15m0,0l.54,7.03m8.08,24.87l19.59,4.86m-19.64-44.62l-16.92-9.61m10.01-3.5l.03.02"/>
    </g>
  </g>
</svg>